<svg xmlns="http://www.w3.org/2000/svg" width="152.01" height="148.98" viewBox="0 0 152.01 148.98"><defs><style>.cls-1{fill:#555;}</style></defs><title>Asset 1</title><g id="Layer_2" data-name="Layer 2"><g id="Layer_1-2" data-name="Layer 1"><path class="cls-1" d="M125.44,78.83A2.21,2.21,0,0,0,123.23,81a2.81,2.81,0,1,1-5.62,0,2.21,2.21,0,1,0-4.42,0,7.23,7.23,0,0,0,14.46,0A2.21,2.21,0,0,0,125.44,78.83Z"/><path class="cls-1" d="M146.21,79.19l-6.23-2a2.57,2.57,0,0,1-1.68-1.7,39.91,39.91,0,0,0-5.89-11.64,41.78,41.78,0,0,0-3.93-4.64,54.49,54.49,0,0,0,1.35-12.53c-.09-5.64-1.21-8.94-3.44-10.11-1.2-.63-4.84-2.54-24.58,6.5a6.59,6.59,0,0,0-1.3.78c-1.34-.36-2.69-.69-4.06-1l-.5-.1a30,30,0,0,0,2.7-11.21,2.21,2.21,0,0,0-4.42-.19,25.72,25.72,0,0,1-16.84,23,63.93,63.93,0,0,0-17.8,0A25.77,25.77,0,1,1,86.71,12a25.9,25.9,0,0,1,4.81,6.64,2.21,2.21,0,1,0,4-2,30.31,30.31,0,0,0-5.63-7.78,30.2,30.2,0,1,0-42.7,42.71,29.72,29.72,0,0,0,5.33,4.24h0c-1.38.36-2.74.76-4.09,1.21a2.21,2.21,0,0,0,1.4,4.2,59.42,59.42,0,0,1,37.42,0,2.13,2.13,0,0,0,.7.11A2.21,2.21,0,0,0,88.6,57c-1.35-.45-2.71-.85-4.09-1.21h0a29.72,29.72,0,0,0,5.33-4.24,30.54,30.54,0,0,0,3.86-4.74l1.81.38c.79.17,1.58.35,2.37.55a2.46,2.46,0,0,0-.07.29c-1.08,5.12-1,9.65.21,13.46a16,16,0,0,0,5.86,8.24,18.57,18.57,0,0,0,10.89,3.46,14.62,14.62,0,0,0,7.06-1.63c2.08-1.18,3.82-3.66,5.2-7.39.64.74,1.24,1.51,1.81,2.29a35.74,35.74,0,0,1,5.24,10.36,7.07,7.07,0,0,0,4.55,4.59l6.23,2a3.93,3.93,0,0,1,2.73,3.75V97.47a3.91,3.91,0,0,1-2.73,3.74l-10,3.22a6.79,6.79,0,0,0-3.83,3.1c-3.94,6.81-10.14,12.45-18.42,16.76a3.46,3.46,0,0,0-1.82,2.44l-3.21,17a1,1,0,0,1-1,.81H96.13a1,1,0,0,1-1-.81l-1.78-9.4a3.48,3.48,0,0,0-4-2.8,92.57,92.57,0,0,1-13.78,1A88.2,88.2,0,0,1,65.5,132a3.51,3.51,0,0,0-3.84,2.81L60,143.74a1,1,0,0,1-1,.81H48.55a1,1,0,0,1-1-.81l-3.09-16.07a3.47,3.47,0,0,0-1.79-2.42c-14.11-7.53-21.57-20.12-21.57-36.41a42.63,42.63,0,0,1,5.34-21.62,38.72,38.72,0,0,1,14.38-14,2.21,2.21,0,0,0-2.21-3.83A42.13,42.13,0,0,0,17.26,80.81h0l-.64-.06a11,11,0,0,0-.81-4.41c-1.28-3.2-3.92-5.5-6.72-5.87A6.09,6.09,0,0,0,3.34,73c-2.11,2.79-1.77,5-1.11,6.36,1.11,2.3,4,3.92,8.73,4.94-.13.2-.27.39-.43.59a10.85,10.85,0,0,1-8.27,4.37A2.34,2.34,0,0,0,0,91.61H0a2.32,2.32,0,0,0,2.22,2.31h.5c2.72,0,7.08-1,11.27-6.26a13.1,13.1,0,0,0,1.62-2.61l1.2.12h0c-.08,1.2-.12,2.42-.12,3.65a45.61,45.61,0,0,0,6.53,24.42,44.65,44.65,0,0,0,17,15.68l3,15.63A5.42,5.42,0,0,0,48.55,149H59a5.42,5.42,0,0,0,5.32-4.41l1.53-8.08a94.89,94.89,0,0,0,9.79.5,96.69,96.69,0,0,0,13.55-.94l1.61,8.52A5.44,5.44,0,0,0,96.13,149h10.44a5.44,5.44,0,0,0,5.33-4.42L115,128c8.83-4.67,15.5-10.81,19.8-18.25a2.41,2.41,0,0,1,1.35-1.11l10-3.21a8.33,8.33,0,0,0,5.8-8V87.14A8.32,8.32,0,0,0,146.21,79.19ZM125.08,52.9c-.85,7.28-3.14,13.51-5.43,14.81-2.61,1.47-8.63,1.76-13.16-1.55s-6-9.27-4.35-17.22h0a2.65,2.65,0,0,1,1.51-1.85c11.08-5.07,17.47-6.73,19.84-6.73a2.28,2.28,0,0,1,.8.11C125,41.23,125.94,45.55,125.08,52.9ZM6.21,77.46c-.23-.47.31-1.3.66-1.76a1.77,1.77,0,0,1,1.42-.86h.22A4.85,4.85,0,0,1,11.71,78a6.8,6.8,0,0,1,.46,2.08C9.11,79.44,6.73,78.52,6.21,77.46Z"/><path class="cls-1" d="M70.64,27.66V19.74c2.73.2,3.74,1.45,4.68,1.45C76.49,21.19,77,19.7,77,19c0-1.91-3.74-2.73-6.39-2.8V15.1c0-.47-.59-.9-1.17-.9a1,1,0,0,0-1.13.9v1.13c-3.71.39-7.41,2.34-7.41,7.26s3.9,6.39,7.41,7.64V40.3c-4-.32-5-3-6.32-3-1,0-1.79,1.29-1.79,2.23,0,1.91,3.27,4.52,8.11,4.6h0v1.21a1,1,0,0,0,1.13.9c.58,0,1.17-.43,1.17-.9V44c4.21-.58,7.1-3.23,7.1-8C77.74,30.62,74,28.91,70.64,27.66Zm-2.07-.74c-2.07-.78-3.74-1.6-3.74-3.82,0-2,1.56-3,3.74-3.28Zm1.83,13.3V32c1.91.82,3.44,1.91,3.44,4.37C73.84,38.58,72.51,39.83,70.4,40.22Z"/></g></g></svg>