<?xml version="1.0" encoding="utf-8"?>
<!-- Generator: Adobe Illustrator 24.2.1, SVG Export Plug-In . SVG Version: 6.00 Build 0)  -->
<svg version="1.1" id="Capa_1" xmlns="http://www.w3.org/2000/svg" xmlns:xlink="http://www.w3.org/1999/xlink" x="0px" y="0px"
	 viewBox="0 0 512 512" style="enable-background:new 0 0 512 512;" xml:space="preserve">
<style type="text/css">
	.st0{fill:#555555;}
</style>
<g>
	<g>
		<path class="st0" d="M216,368.7L216,368.7c-4.2,0-7.5,3.4-7.5,7.5s3.4,7.5,7.5,7.5s7.5-3.4,7.5-7.5
			C223.5,372.1,220.1,368.7,216,368.7z"/>
	</g>
</g>
<g>
	<g>
		<path class="st0" d="M504.5,344.7c-4.1,0-7.5,3.4-7.5,7.5v8c0,0.3-0.2,0.5-0.5,0.5h-32.6v-64.6c0-8.6-7-15.5-15.5-15.5h-16.5
			V159.8c0-39.5-32.1-71.6-71.6-71.6H71.6C32.1,88.2,0,120.3,0,159.8v144.3c0,39.5,32.1,71.6,71.6,71.6h96.7c0,0.2,0,0.3,0,0.5
			c0,26.2,21.3,47.6,47.6,47.6s47.6-21.3,47.6-47.6c0-0.2,0-0.3,0-0.5h233c8.6,0,15.5-7,15.5-15.5v-8
			C512,348.1,508.6,344.7,504.5,344.7z M215.9,408.8c-18,0-32.6-14.6-32.6-32.6s14.6-32.6,32.6-32.6s32.6,14.6,32.6,32.6
			S233.9,408.8,215.9,408.8z M360.7,360.7h-65.2V247.5h65.2V360.7z M360.7,232.5h-65.2v-33.1h65.2V232.5z M360.7,184.4h-65.2v-0.5
			c0-18,14.6-32.6,32.6-32.6s32.6,14.6,32.6,32.6V184.4z M328.1,136.3c-26.2,0-47.6,21.3-47.6,47.6v96.7H256c-4.1,0-7.5,3.4-7.5,7.5
			s3.4,7.5,7.5,7.5h24.6v65.2h-19.7c-6.4-18.6-24.2-32.1-45-32.1s-38.5,13.4-45,32.1H71.6c-31.2,0-56.6-25.4-56.6-56.6v-8.5h208.9
			c4.1,0,7.5-3.4,7.5-7.5s-3.4-7.5-7.5-7.5H15V159.8c0-31.2,25.4-56.6,56.6-56.6h288.6c31.2,0,56.6,25.4,56.6,56.6v120.8h-41.1
			v-96.7C375.7,157.6,354.4,136.3,328.1,136.3z M375.7,358.5v-63h41.1v8.5C416.8,329.9,399.4,351.8,375.7,358.5z M404,360.7
			c16.9-13.1,27.8-33.6,27.8-56.6v-8.5h16.5c0.3,0,0.5,0.2,0.5,0.5v64.6L404,360.7L404,360.7z"/>
	</g>
</g>
<g>
	<g>
		<path class="st0" d="M207.9,168.3H79.6c-13,0-23.5,10.6-23.5,23.5V240c0,13,10.6,23.5,23.5,23.5h128.3c13,0,23.5-10.6,23.5-23.5
			v-48.1C231.4,178.9,220.9,168.3,207.9,168.3z M136.3,248.5H79.6c-4.7,0-8.5-3.8-8.5-8.5v-48.1c0-4.7,3.8-8.5,8.5-8.5h56.6V248.5z
			 M216.4,240c0,4.7-3.8,8.5-8.5,8.5h-56.6v-65.2h56.6c4.7,0,8.5,3.8,8.5,8.5V240z"/>
	</g>
</g>
</svg>
