<svg xmlns="http://www.w3.org/2000/svg" width="177.53" height="150.84" viewBox="0 0 177.53 150.84"><defs><style>.cls-1{fill:#555;}</style></defs><title>Asset 2</title><g id="Layer_2" data-name="Layer 2"><g id="Layer_1-2" data-name="Layer 1"><path class="cls-1" d="M165.1,86.15l-4.6-18.39A2.78,2.78,0,0,0,162.7,65v-3A11.69,11.69,0,0,0,151,50.4H130.09V44.29a5.76,5.76,0,0,0-5.75-5.75H85.41l23.66-9.46A2.78,2.78,0,1,0,107,23.91L87.63,31.66c5.9-3.78,11.75-7.95,14-10.87A12.95,12.95,0,0,0,81,5.09c-3.16,4.15-7.33,15.8-10,24-2.7-8.21-6.87-19.86-10-24a12.95,12.95,0,0,0-20.59,15.7c2.22,2.92,8.06,7.09,14,10.87L34.94,23.91a2.78,2.78,0,0,0-2.06,5.17l23.66,9.46H17.6a5.76,5.76,0,0,0-5.74,5.75v50.4a2.78,2.78,0,0,0,5.56,0V44.29a.18.18,0,0,1,.18-.19H124.34a.18.18,0,0,1,.19.19v50.4a2.78,2.78,0,0,0,5.56,0V91.54H162.9a9.08,9.08,0,0,1,8.63,6.3h-8.64a2.78,2.78,0,0,0-2.78,2.78v5.93a8.72,8.72,0,0,0,8.71,8.71H172v12.23H164.7a17.6,17.6,0,0,0-33.27,0h-1.34V106.55a2.78,2.78,0,1,0-5.56,0v20.94H66.86a17.6,17.6,0,0,0-33.28,0h-16a.18.18,0,0,1-.18-.18v-6.12h12a2.78,2.78,0,1,0,0-5.56H2.78a2.78,2.78,0,0,0,0,5.56h9.08v6.12a5.75,5.75,0,0,0,5.74,5.74h15v.18a17.6,17.6,0,1,0,35.2,0v-.18h62.64v.18a17.61,17.61,0,1,0,35.21,0c0-.06,0-.12,0-.18h9.09a2.78,2.78,0,0,0,2.78-2.78V100.62A14.66,14.66,0,0,0,165.1,86.15ZM60,28.63c-11-6.81-14.22-9.95-15.18-11.21a7.39,7.39,0,0,1,11.75-9C59.21,12,63.42,23.85,66.2,32.4,64.32,31.3,62.16,30,60,28.63Zm15.8,3.77c2.78-8.55,7-20.41,9.68-23.94a7.39,7.39,0,0,1,11.75,9c-1,1.26-4.22,4.4-15.18,11.21C79.79,30,77.63,31.3,75.75,32.4ZM130.09,56H151a6.12,6.12,0,0,1,6.12,6.11v.19H130.09Zm0,30V67.82h24.7L159.33,86Zm-79.87,59.3a12,12,0,1,1,12-12.05A12.06,12.06,0,0,1,50.22,145.28Zm97.84,0a12,12,0,1,1,12.05-12.05A12.05,12.05,0,0,1,148.06,145.28ZM172,109.7h-3.15a3.15,3.15,0,0,1-3.15-3.15V103.4H172v6.3Z"/><path class="cls-1" d="M50.22,127.49A5.75,5.75,0,1,0,56,133.23,5.76,5.76,0,0,0,50.22,127.49Z"/><path class="cls-1" d="M148.06,127.49a5.75,5.75,0,1,0,5.75,5.74A5.75,5.75,0,0,0,148.06,127.49Z"/><path class="cls-1" d="M115.45,115.63H73.94a2.78,2.78,0,0,0,0,5.56h41.51a2.78,2.78,0,1,0,0-5.56Z"/><path class="cls-1" d="M44.29,103.77H8.71a2.78,2.78,0,1,0,0,5.56H44.29a2.78,2.78,0,1,0,0-5.56Z"/><path class="cls-1" d="M44.29,62.26H32.43A2.77,2.77,0,0,0,29.65,65V88.76a2.78,2.78,0,0,0,5.56,0V79.68h6.11a2.78,2.78,0,0,0,0-5.56H35.21v-6.3h9.08a2.78,2.78,0,0,0,0-5.56Z"/><path class="cls-1" d="M66.17,81A10.19,10.19,0,0,0,60.6,62.26H53.18A2.78,2.78,0,0,0,50.4,65V88.76a2.78,2.78,0,0,0,5.56,0V82.64h4.63L65.7,90.3A2.77,2.77,0,0,0,68,91.54a2.73,2.73,0,0,0,1.54-.47,2.77,2.77,0,0,0,.77-3.85ZM60.6,77.09H56V67.82H60.6a4.64,4.64,0,0,1,0,9.27Z"/><path class="cls-1" d="M88.76,86H79.68V79.67H85.8a2.78,2.78,0,0,0,0-5.56H79.68V67.82h9.08a2.78,2.78,0,0,0,0-5.56H76.9A2.78,2.78,0,0,0,74.12,65V88.76a2.79,2.79,0,0,0,2.78,2.78H88.76a2.78,2.78,0,0,0,0-5.56Z"/><path class="cls-1" d="M109.52,86h-9.08v-6.3h3.15a2.78,2.78,0,0,0,0-5.56h-3.15v-6.3h9.08a2.78,2.78,0,0,0,0-5.56H97.66A2.77,2.77,0,0,0,94.88,65V88.76a2.78,2.78,0,0,0,2.78,2.78h11.86a2.78,2.78,0,0,0,0-5.56Z"/></g></g></svg>