<svg xmlns="http://www.w3.org/2000/svg" xmlns:xlink="http://www.w3.org/1999/xlink" width="149.66" height="150.74" viewBox="0 0 149.66 150.74"><defs><style>.cls-1,.cls-38,.cls-39{fill:none;}.cls-2{fill:#596f80;}.cls-3{fill:#425869;}.cls-4{fill:#eeedee;}.cls-5{fill:#e3e3e6;}.cls-6{fill:#e9bf77;}.cls-7{fill:#e5a768;}.cls-8{fill:#de9083;}.cls-9{fill:#f1dab4;}.cls-10{fill:#ecc98a;}.cls-11{fill:#3f3d3d;}.cls-12{fill:#fae0a8;}.cls-13{fill:#f3cf91;}.cls-14{fill:#ebbe7c;}.cls-15{fill:#9b7358;}.cls-16{fill:#eaecee;}.cls-17{fill:#cdd5dc;}.cls-18{fill:#606161;}.cls-19{fill:#e45d41;}.cls-20{fill:#aed8a7;}.cls-21{fill:#76c69a;}.cls-22{fill:#795651;}.cls-23{fill:#93ce99;}.cls-24{fill:#4a3f3f;}.cls-25{fill:#5282c3;}.cls-26{fill:#3a3a38;}.cls-27{fill:#3b6080;}.cls-28{fill:#2d5069;}.cls-29{fill:#c6d7ef;}.cls-30{fill:#b8c8e7;}.cls-31{fill:#eab24c;}.cls-32{fill:#e79747;}.cls-33{fill:#df6d58;}.cls-34{fill:#f1cb86;}.cls-35{fill:#ebbe6b;}.cls-36{fill:#3d2929;}.cls-37{clip-path:url(#clip-path);}.cls-38,.cls-39{stroke:#5f5048;stroke-linecap:round;stroke-miterlimit:10;stroke-width:3px;}.cls-39{stroke-dasharray:10.1 10.1;}</style><clipPath id="clip-path"><rect id="SVGID" class="cls-1" x="21.23" y="74.38" width="61.38" height="38.12"/></clipPath></defs><title>Asset 1</title><g id="Layer_2" data-name="Layer 2"><g id="Layer_1-2" data-name="Layer 1"><g id="Layer_1-2-2" data-name="Layer 1-2"><g id="Layer_1-2-2-2" data-name="Layer 1-2-2"><path class="cls-2" d="M89.83,112H24.22v-3.3a1.35,1.35,0,0,1,1.33-1.33h63a1.35,1.35,0,0,1,1.33,1.33h0V112Z"/><path class="cls-3" d="M88.5,107.37H85.72a1.35,1.35,0,0,1,1.33,1.33h0V112h2.78v-3.3A1.35,1.35,0,0,0,88.5,107.37Z"/><path class="cls-4" d="M38.68,115.68H28.44a1.27,1.27,0,0,1-1.27-1.27h0V112H40v2.43a1.27,1.27,0,0,1-1.29,1.25h0Z"/><path class="cls-4" d="M62.15,115.68H51.91a1.27,1.27,0,0,1-1.27-1.27h0V112H63.42v2.43a1.27,1.27,0,0,1-1.26,1.28h0Z"/><path class="cls-4" d="M85.61,115.68H75.37a1.27,1.27,0,0,1-1.27-1.27h0V112H86.88v2.43a1.27,1.27,0,0,1-1.26,1.28h0Z"/><path class="cls-5" d="M37.17,112v2.43a1.27,1.27,0,0,1-1.26,1.28h2.77A1.27,1.27,0,0,0,40,114.49h0V112Z"/><path class="cls-5" d="M60.64,112v2.43a1.27,1.27,0,0,1-1.26,1.28h2.77a1.27,1.27,0,0,0,1.27-1.27h0V112Z"/><path class="cls-5" d="M84.1,112v2.43a1.27,1.27,0,0,1-1.26,1.28h2.77a1.27,1.27,0,0,0,1.27-1.27h0V112Z"/><path class="cls-6" d="M47.2,107.37H27.55V91.68a.65.65,0,0,1,.62-.68h19Z"/><path class="cls-7" d="M44.93,91H47.2v16.34H44.93Z"/><path class="cls-8" d="M38.62,96.68H36.13a.61.61,0,0,1-.59-.59V91h3.67v5.06a.6.6,0,0,1-.58.62h0Z"/><path class="cls-6" d="M47.2,91H66.85v16.34H47.2Z"/><path class="cls-7" d="M64.58,91h2.27v16.34H64.58Z"/><path class="cls-8" d="M58.27,96.68H55.78a.61.61,0,0,1-.59-.59V91h3.67v5.06a.59.59,0,0,1-.56.62h0Z"/><path class="cls-6" d="M86.5,107.37H66.85V91h19a.65.65,0,0,1,.65.65h0Z"/><path class="cls-7" d="M84.23,91v16.34H86.5V91.68a.65.65,0,0,0-.65-.65h0Z"/><path class="cls-2" d="M77.92,96.68H75.44a.6.6,0,0,1-.6-.59V91h3.67v5.06a.58.58,0,0,1-.57.59h0Z"/><path class="cls-9" d="M57,91H34.47V82.3a.65.65,0,0,1,.65-.65H57Z"/><path class="cls-10" d="M54.25,81.68H57V91H54.25Z"/><path class="cls-2" d="M46.94,86.35H44.56a.67.67,0,0,1-.69-.65v0h0v-4h3.75v4a.67.67,0,0,1-.66.68h0Z"/><path class="cls-9" d="M79.58,91H57V81.68H78.9a.65.65,0,0,1,.65.65h0Z"/><path class="cls-10" d="M76.8,81.68V91h2.78V82.3a.65.65,0,0,0-.65-.65h0Z"/><path class="cls-8" d="M69.5,86.35H67.11a.67.67,0,0,1-.68-.66v0h0v-4h3.75v4a.67.67,0,0,1-.66.68Z"/><path class="cls-6" d="M68.31,81.68H45.75V61.59a1.07,1.07,0,0,1,1.07-1.07H67.24a1.07,1.07,0,0,1,1.07,1.07Z"/><path class="cls-7" d="M67.24,60.52H64.62a1.07,1.07,0,0,1,1.07,1.07V81.68h2.62V61.59A1.07,1.07,0,0,0,67.24,60.52Z"/><path class="cls-8" d="M58.28,66.29H55.77a1,1,0,0,1-1-1V60.52H59.2v4.81A1,1,0,0,1,58.28,66.29Z"/><path class="cls-11" d="M88.5,106.38h-1V91.68A1.63,1.63,0,0,0,85.92,90H80.57V82.33A1.63,1.63,0,0,0,79,80.69H77a1,1,0,0,0,0,2h1.55V90H58V82.67h7.42v3a1.67,1.67,0,0,0,1.67,1.67H69.5a1.67,1.67,0,0,0,1.67-1.67v-3h1.91a1,1,0,0,0,0-2H69.3V61.59a2.06,2.06,0,0,0-2.06-2.06H46.82a2.06,2.06,0,0,0-2.06,2.06h0v3.58a1,1,0,0,0,2,0V61.59a.09.09,0,0,1,.08-.08h7v3.82a2,2,0,0,0,2,2h2.51a2,2,0,0,0,1.95-2V61.51h7a.09.09,0,0,1,.08.08v19.1H46.74V69.13a1,1,0,0,0-2,0V80.69H35.12a1.63,1.63,0,0,0-1.64,1.62V90H28.2a1.63,1.63,0,0,0-1.64,1.62v14.72h-1a2.32,2.32,0,0,0-2.32,2.32V112a1,1,0,0,0,1,1h2v1.44a2.27,2.27,0,0,0,2.26,2.27H38.68a2.27,2.27,0,0,0,2.26-2.27V113h8.71v1.44a2.27,2.27,0,0,0,2.26,2.27h3.14a1,1,0,0,0,0-2H51.91a.3.3,0,0,1-.28-.28h0V113h10.8v1.44a.29.29,0,0,1-.28.29H59a1,1,0,0,0,0,2h3.14a2.27,2.27,0,0,0,2.26-2.27V113h8.7v1.44a2.27,2.27,0,0,0,2.26,2.27H85.61a2.27,2.27,0,0,0,2.26-2.27V113h2a1,1,0,0,0,1-1v-3.3a2.32,2.32,0,0,0-2.32-2.32ZM58.25,65.3H55.8V61.51h2.45Zm27.26,41.08H67.84V92h6v4.07a1.61,1.61,0,0,0,1.59,1.58h2.48a1.58,1.58,0,0,0,1.58-1.58h0V92h6v14.36ZM77.52,92v3.67H75.83V92ZM65.86,106.38H48.19V92h6v4.07a1.58,1.58,0,0,0,1.58,1.58h2.49a1.58,1.58,0,0,0,1.58-1.58h0V92h6ZM57.87,92v3.67H56.18V92Zm11.32-6.66H67.42V82.67h1.77ZM44.86,82.67h1.77v2.69H44.86Zm-9.4,0h7.42v3a1.69,1.69,0,0,0,1.68,1.67h2.38a1.67,1.67,0,0,0,1.67-1.67v-3H56V90H35.46ZM36.53,92h1.69v3.67H36.53Zm-8,0h6v4.07a1.58,1.58,0,0,0,1.58,1.58H38.6a1.58,1.58,0,0,0,1.58-1.58h0V92h6v14.36H28.54ZM39,114.4a.29.29,0,0,1-.28.29H28.44a.3.3,0,0,1-.28-.28h0V113H39Zm46.93,0a.29.29,0,0,1-.27.29H75.37a.29.29,0,0,1-.28-.29V113h10.8Zm3-3.42H25.21V108.7a.34.34,0,0,1,.34-.34h63a.34.34,0,0,1,.34.34V111Z"/><path class="cls-11" d="M62.56,78.35a1,1,0,0,0,1-1v-.69a1,1,0,0,0,.38.08,1,1,0,0,0,.81-.42A1,1,0,0,0,64.5,75l-1.37-1A1,1,0,0,0,62,74l-1.37,1a1,1,0,0,0,1,1.72v.69a1,1,0,0,0,1,1Z"/><path class="cls-11" d="M43.66,101.79l-1.38-1a1,1,0,0,0-1.14,0l-1.38,1a1,1,0,0,0,1,1.72v.69a1,1,0,0,0,2,0v-.69a1,1,0,0,0,1-1.72Z"/><path class="cls-11" d="M59.57,101.79a1,1,0,0,0,1,1.72v.69a1,1,0,0,0,2,0v-.69a1,1,0,0,0,1-1.72l-1.37-1a1,1,0,0,0-1.15,0Z"/><path class="cls-11" d="M78.87,103.17a1,1,0,0,0,.81.42,1,1,0,0,0,.38-.08v.69a1,1,0,0,0,2,0v-.69a1,1,0,0,0,1-1.72l-1.37-1a1,1,0,0,0-1.15,0l-1.37,1A1,1,0,0,0,78.87,103.17Z"/><path class="cls-12" d="M60.57,69.36h57.87V115.7H60.57Z"/><path class="cls-13" d="M113.89,69.36h4.55V115.7h-4.55Z"/><path class="cls-14" d="M113.89,94.18v18.23H65.11V94.18Z"/><path class="cls-14" d="M113.89,72.65V90.88H65.11V72.65Z"/><path class="cls-15" d="M84.23,122.63C83,122.63,82,121.89,82,121v-6.59h4.55V121C86.51,121.89,85.49,122.63,84.23,122.63Z"/><path class="cls-15" d="M108.06,123.94c-1.26,0-2.27-.74-2.27-1.65V115.7h4.54v6.61C110.33,123.2,109.31,123.94,108.06,123.94Z"/><path class="cls-16" d="M93,83.42H86a1.72,1.72,0,0,1-1.21-2.1A1.69,1.69,0,0,1,86,80.12h7a1.7,1.7,0,0,1,1.2,2.09A1.72,1.72,0,0,1,93,83.42Z"/><path class="cls-17" d="M93,80.12H90.5c.68,0,1.24.74,1.24,1.65s-.56,1.65-1.24,1.65H93a1.72,1.72,0,0,0,1.2-2.1A1.69,1.69,0,0,0,93,80.12Z"/><path class="cls-14" d="M88.92,121.19H87.38V115.7h6.49v1.89C93.87,119.58,91.66,121.19,88.92,121.19Z"/><path class="cls-14" d="M104.25,121.19h1.54V115.7H99.27v1.89C99.27,119.58,101.5,121.19,104.25,121.19Z"/><path class="cls-18" d="M118.44,109.88c-.63,0-1.14.37-1.14.83v4.17H61.71V79.05c0-.45-.51-.82-1.13-.82s-1.14.37-1.14.82V115.7c0,.46.51.83,1.14.83h7v5.78c0,1.36,1.53,2.47,3.41,2.47s3.41-1.11,3.41-2.47V122h.41c3.36,0,6.11-2,6.11-4.43v-1.06H98.19v1.06c0,2.44,2.74,4.43,6.11,4.43h.4v.27c0,1.36,1.53,2.47,3.41,2.47s3.41-1.11,3.41-2.47v-5.76h7c.63,0,1.13-.37,1.13-.83v-5A1.16,1.16,0,0,0,118.44,109.88ZM72.08,122.31c0,.46-.51.83-1.14.83s-1.13-.37-1.13-.83v-5.76h2.27Zm6.51-4.7c0,1.53-1.72,2.78-3.83,2.78h-.41v-3.84h4.24Zm25.66,2.78c-2.12,0-3.84-1.25-3.84-2.78v-1.06h4.24v3.84Zm5,1.92c0,.46-.51.83-1.14.83s-1.14-.37-1.14-.83v-5.76h2.28Z"/><path class="cls-18" d="M118.44,68.54H60.57c-.63,0-1.14.36-1.14.82v6.2c0,.46.51.83,1.14.83s1.14-.37,1.14-.83V70.18h55.6v37c0,.46.51.83,1.14.83s1.13-.37,1.13-.83V69.36C119.57,68.9,119.07,68.54,118.44,68.54Z"/><path class="cls-18" d="M64,112.41c0,.45.51.82,1.14.82h48.78c.63,0,1.14-.37,1.14-.82V94.18c0-.46-.51-.83-1.14-.83H65.11c-.63,0-1.14.37-1.14.83ZM66.25,95h46.51v16.58H66.25Z"/><path class="cls-18" d="M105.18,72.65c0-.45-.51-.82-1.13-.82H65.11c-.63,0-1.14.37-1.14.82V90.88c0,.46.51.83,1.14.83h48.78c.63,0,1.14-.37,1.14-.83V72.65c0-.45-.51-.82-1.14-.82h-5c-.62,0-1.13.37-1.13.82s.51.83,1.13.83h3.87V90.06H66.25V73.48h37.8C104.71,73.48,105.18,73.11,105.18,72.65Z"/><path class="cls-18" d="M86,79.31a2.57,2.57,0,0,0,0,4.94h7a2.57,2.57,0,0,0,0-4.94Zm7.59,2.47a.76.76,0,0,1-.63.82H86c-.34,0-.62-.37-.62-.82S85.64,81,86,81h7a.74.74,0,0,1,.63.82Z"/><path class="cls-16" d="M93,105.31H86a1.72,1.72,0,0,1-1.21-2.1A1.69,1.69,0,0,1,86,102h7a1.7,1.7,0,0,1,1.2,2.09A1.72,1.72,0,0,1,93,105.31Z"/><path class="cls-17" d="M93,102H90.5c.68,0,1.24.74,1.24,1.65s-.56,1.65-1.24,1.65H93a1.72,1.72,0,0,0,1.2-2.1A1.69,1.69,0,0,0,93,102Z"/><path class="cls-18" d="M86,101.14a2.57,2.57,0,0,0,0,4.94h7a2.57,2.57,0,0,0,0-4.94Zm7.59,2.47a.76.76,0,0,1-.63.82H86c-.34,0-.62-.37-.62-.82s.28-.82.62-.82h7A.75.75,0,0,1,93.61,103.61Z"/><path class="cls-12" d="M60.57,90.31h57.87v46.34H60.57Z"/><path class="cls-13" d="M113.89,90.31h4.55v46.34h-4.55Z"/><path class="cls-14" d="M113.89,115.13v18.23H65.11V115.13Z"/><path class="cls-14" d="M113.89,93.6v18.23H65.11V93.6Z"/><path class="cls-15" d="M84.23,143.58c-1.25,0-2.27-.74-2.27-1.65v-6.59h4.55v6.59C86.51,142.84,85.49,143.58,84.23,143.58Z"/><path class="cls-15" d="M108.06,144.89c-1.26,0-2.27-.74-2.27-1.65v-6.59h4.54v6.59C110.33,144.15,109.31,144.89,108.06,144.89Z"/><path class="cls-16" d="M93,104.37H86a1.72,1.72,0,0,1-1.21-2.1,1.69,1.69,0,0,1,1.21-1.2h7a1.7,1.7,0,0,1,1.2,2.09A1.72,1.72,0,0,1,93,104.37Z"/><path class="cls-17" d="M93,101.07H90.5c.68,0,1.24.74,1.24,1.65s-.56,1.65-1.24,1.65H93a1.72,1.72,0,0,0,1.2-2.1A1.69,1.69,0,0,0,93,101.07Z"/><path class="cls-14" d="M88.92,142.14H87.38v-5.49h6.49v1.89C93.87,140.53,91.66,142.14,88.92,142.14Z"/><path class="cls-14" d="M104.25,142.14h1.54v-5.49H99.27v1.89C99.27,140.53,101.5,142.14,104.25,142.14Z"/><path class="cls-18" d="M118.44,130.83c-.63,0-1.14.37-1.14.83v4.17H61.71V100c0-.45-.51-.82-1.13-.82s-1.14.37-1.14.82v36.65c0,.46.51.83,1.14.83h7v5.76c0,1.37,1.53,2.47,3.41,2.47s3.41-1.1,3.41-2.47V143h.41c3.36,0,6.11-2,6.11-4.43v-1.06H98.19v1.06c0,2.44,2.74,4.43,6.11,4.43h.4v.27c0,1.37,1.53,2.47,3.41,2.47s3.41-1.1,3.41-2.47v-5.76h7c.63,0,1.13-.37,1.13-.83v-5A1.16,1.16,0,0,0,118.44,130.83ZM72.08,143.24c0,.46-.51.83-1.14.83s-1.13-.37-1.13-.83v-5.76h2.27Zm6.51-4.7c0,1.53-1.72,2.78-3.83,2.78h-.41v-3.84h4.24Zm25.66,2.77c-2.12,0-3.84-1.25-3.84-2.78v-1.06h4.24v3.84Zm5,1.92c0,.46-.51.83-1.14.83s-1.14-.37-1.14-.83v-5.76h2.28Z"/><path class="cls-18" d="M118.44,89.49H60.57c-.63,0-1.14.37-1.14.82v6.2c0,.46.51.83,1.14.83s1.14-.37,1.14-.83V91.13h55.6v37c0,.46.51.83,1.14.83s1.13-.37,1.13-.83V90.31C119.57,89.86,119.07,89.49,118.44,89.49Z"/><path class="cls-18" d="M64,133.36c0,.45.51.82,1.14.82h48.78c.63,0,1.14-.37,1.14-.82V115.13c0-.46-.51-.82-1.14-.82H65.11c-.63,0-1.14.36-1.14.82ZM66.25,116h46.51v16.59H66.25Z"/><path class="cls-18" d="M105.18,93.6c0-.45-.51-.82-1.13-.82H65.11c-.63,0-1.14.37-1.14.82v18.23c0,.46.51.83,1.14.83h48.78c.63,0,1.14-.37,1.14-.83V93.6c0-.45-.51-.82-1.14-.82h-5c-.62,0-1.13.37-1.13.82s.51.83,1.13.83h3.87V111H66.25V94.43h37.8C104.71,94.43,105.18,94.06,105.18,93.6Z"/><path class="cls-18" d="M86,100.25a2.57,2.57,0,0,0,0,4.94h7a2.57,2.57,0,0,0,0-4.94Zm7.59,2.47a.76.76,0,0,1-.63.82H86c-.34,0-.62-.37-.62-.82s.28-.82.62-.82h7A.75.75,0,0,1,93.61,102.72Z"/><path class="cls-16" d="M93,126.21H86a1.72,1.72,0,0,1-1.21-2.1,1.69,1.69,0,0,1,1.21-1.2h7a1.7,1.7,0,0,1,1.2,2.09A1.72,1.72,0,0,1,93,126.21Z"/><path class="cls-17" d="M93,122.91H90.5c.68,0,1.24.74,1.24,1.65s-.56,1.65-1.24,1.65H93a1.72,1.72,0,0,0,1.2-2.1A1.69,1.69,0,0,0,93,122.91Z"/><path class="cls-18" d="M86,122.09A2.57,2.57,0,0,0,86,127h7a2.57,2.57,0,0,0,0-4.94Zm7.59,2.47c0,.46-.28.83-.63.83H86c-.34,0-.62-.37-.62-.83s.28-.82.62-.82h7A.75.75,0,0,1,93.61,124.56Z"/><path class="cls-19" d="M40.24,136.65H30.6a2.75,2.75,0,0,1,2.45-1.51H37.8A2.74,2.74,0,0,1,40.24,136.65Z"/><path class="cls-20" d="M127.88,30l-33.31,3.5v99.19l33.31,3.51a4,4,0,0,0,4.38-4V34A4,4,0,0,0,127.88,30Z"/><path class="cls-21" d="M110.44,126.78V87.1a4,4,0,0,0-4-4,4,4,0,0,0,4-4V39.49a4,4,0,0,0-4-4h-4a4,4,0,0,0-4,4v87.29a4,4,0,0,0,4,4h4A4,4,0,0,0,110.44,126.78Z"/><path class="cls-22" d="M92.58,33.54,83,31.94a2,2,0,0,0-2.31,2v.4a2,2,0,0,0,1.1,1.77l10.8,5.41Z"/><path class="cls-22" d="M92.58,132.73,83,134.33a2,2,0,0,1-2.31-2V132a2,2,0,0,1,1.1-1.77l10.8-5.41"/><path class="cls-23" d="M117.86,144.46a5.94,5.94,0,0,0-.69-11.65l-15.06-3a2,2,0,0,1-1.59-2V38.42a2,2,0,0,1,1.59-2l15.06-3a5.94,5.94,0,1,0-6.64-6.76L95.92,29A4,4,0,0,0,92.58,33V133.31a4,4,0,0,0,3.34,3.92l14.61,2.34A5.94,5.94,0,0,0,117.86,144.46Z"/><path class="cls-21" d="M96.55,37A4,4,0,0,1,99.92,33L119,30.09a4,4,0,0,0,3.31-3.3,5.94,5.94,0,0,0-11.76-.09L95.93,29A4,4,0,0,0,92.58,33v99.77a2,2,0,0,0,2,2h0a2,2,0,0,0,2-2V37Z"/><path class="cls-24" d="M118.29,146.26a7.84,7.84,0,0,0,5.85-6.62,8.53,8.53,0,0,0,0-1.82l3.62.33a5.83,5.83,0,0,0,6.35-5.8V33.92a5.83,5.83,0,0,0-6.35-5.8l-3.62.33a8.53,8.53,0,0,0,0-1.82A7.79,7.79,0,0,0,109,25.06l-13.4,2.15a5.81,5.81,0,0,0-4.69,4.18L83.3,30.11a3.88,3.88,0,0,0-3.12.86,3.84,3.84,0,0,0-1.35,2.93v.4A3.81,3.81,0,0,0,81,37.73l9.78,4.89v81L81,128.54A3.81,3.81,0,0,0,78.83,132v.4a3.83,3.83,0,0,0,4.47,3.79l7.64-1.27a5.81,5.81,0,0,0,4.69,4.18l13.4,2.14a7.91,7.91,0,0,0,3,4A7.78,7.78,0,0,0,118.29,146.26ZM128.1,31.82a2.1,2.1,0,0,1,2.3,2.1v98.43a2.11,2.11,0,0,1-2.3,2.11l-5.52-.51a8.27,8.27,0,0,0-5.06-3l-5.87-1.18a5.29,5.29,0,0,0,.64-2.54V87.1a5.78,5.78,0,0,0-1.56-4,5.83,5.83,0,0,0,1.56-4V49.41a1.86,1.86,0,0,0-3.71,0V79.17a2.12,2.12,0,0,1-2.11,2.11h-4.09V38.42a.14.14,0,0,1,.1-.13l4.55-.91A1.63,1.63,0,0,1,108.58,39v2.48a1.86,1.86,0,0,0,3.71,0V39a5.29,5.29,0,0,0-.64-2.54l5.87-1.17a8.33,8.33,0,0,0,5.06-3ZM82.61,34.41a.12.12,0,0,1-.07-.11v-.4a.13.13,0,0,1,0-.1.14.14,0,0,1,.11,0l8,1.34v3.36Zm0,98.06a.13.13,0,0,1,0-.1V132a.12.12,0,0,1,.07-.11l8.12-4.06v3.36l-8,1.34A.14.14,0,0,1,82.58,132.47Zm31.55,9.62a4.12,4.12,0,0,1-1.77-2.8,1.85,1.85,0,0,0-1.54-1.55l-14.6-2.34a2.11,2.11,0,0,1-1.78-2.09V33a2.11,2.11,0,0,1,1.78-2.09l14.6-2.34A1.84,1.84,0,0,0,112.36,27a4.09,4.09,0,0,1,5.07-3.36,4.08,4.08,0,0,1,3,3.45,4.12,4.12,0,0,1-3.61,4.57h0l-15.06,3a3.86,3.86,0,0,0-3.09,3.77v78.44a1.86,1.86,0,0,0,3.72,0V85h4.09a2.11,2.11,0,0,1,2.11,2.11v40.17a1.63,1.63,0,0,1-1.55,1.62l-4.55-.91a.14.14,0,0,1-.1-.13v-3.06a1.86,1.86,0,0,0-3.72,0v3.06a3.85,3.85,0,0,0,3.09,3.77l15.06,3h0a4.12,4.12,0,0,1,3.61,4.57,4.08,4.08,0,0,1-6.32,2.89Z"/><path class="cls-24" d="M122.47,83.16a1.86,1.86,0,0,0,3.71,0v0a1.86,1.86,0,1,0-3.71,0Z"/><path class="cls-24" d="M122.47,59.35a1.86,1.86,0,1,0,3.71,0v0a1.86,1.86,0,1,0-3.71,0Z"/><path class="cls-24" d="M122.47,71.25a1.86,1.86,0,1,0,3.71,0v0a1.86,1.86,0,0,0-3.71,0Z"/><path class="cls-24" d="M122.47,47.43a1.86,1.86,0,0,0,3.71,0v0a1.86,1.86,0,1,0-3.71,0Z"/><path class="cls-24" d="M122.47,106.94a1.86,1.86,0,1,0,3.71,0v0a1.86,1.86,0,1,0-3.71,0Z"/><path class="cls-24" d="M122.47,118.84a1.86,1.86,0,1,0,3.71,0v0a1.86,1.86,0,0,0-3.71,0Z"/><path class="cls-24" d="M122.47,95a1.86,1.86,0,0,0,3.71,0v0a1.86,1.86,0,1,0-3.71,0Z"/><polygon class="cls-25" points="27.46 43.4 25.46 62.22 22.85 62.22 26 43.4 27.46 43.4"/><polygon class="cls-25" points="31.9 43.4 31.22 62.22 27.89 62.22 29.88 43.4 31.9 43.4"/><polygon class="cls-25" points="36.53 43.4 37.22 62.22 33.63 62.22 34.31 43.4 36.53 43.4"/><polygon class="cls-25" points="40.96 43.4 42.95 62.22 39.63 62.22 38.95 43.4 40.96 43.4"/><polygon class="cls-25" points="44.85 43.4 47.99 62.22 45.38 62.22 43.39 43.4 44.85 43.4"/><path class="cls-26" d="M50.61,63.23a1.25,1.25,0,0,1-.27,1,1.22,1.22,0,0,1-.92.43H42V72a1.21,1.21,0,1,1-2.41.22.81.81,0,0,1,0-.22V64.64h-3v68.08H37.8a5.15,5.15,0,0,1,5.14,5.14,1.21,1.21,0,0,1-1.21,1.21H29.12a1.21,1.21,0,0,1-1.21-1.21h0a5.14,5.14,0,0,1,5.14-5.14h1.17V64.64H21.43a1.21,1.21,0,0,1-1.21-1.21.67.67,0,0,1,0-.2L23.79,42A1.2,1.2,0,0,1,25,41H45.87a1.2,1.2,0,0,1,1.19,1Zm-2.62-1L44.85,43.4H43.39l2,18.82Zm-5,0L41,43.4H39l.68,18.82ZM30.6,136.65h9.64a2.74,2.74,0,0,0-2.44-1.51H33.05A2.75,2.75,0,0,0,30.6,136.65Zm6.61-74.43L36.53,43.4H34.31l-.68,18.82Zm-6,0L31.9,43.4h-2l-2,18.82Zm-5.76,0,2-18.82H26L22.85,62.22Z"/><path class="cls-27" d="M84.88,140h-66v-4.08a1.53,1.53,0,0,1,1.35-1.67H83.54a1.53,1.53,0,0,1,1.34,1.67Z"/><path class="cls-28" d="M83.54,134.26h-2.8a1.53,1.53,0,0,1,1.34,1.67V140h2.8v-4.08a1.53,1.53,0,0,0-1.34-1.67Z"/><path class="cls-29" d="M33.4,144.65H23.1a1.45,1.45,0,0,1-1.28-1.59V140H34.68v3.05A1.46,1.46,0,0,1,33.4,144.65Z"/><path class="cls-29" d="M57,144.65H46.72a1.45,1.45,0,0,1-1.28-1.59V140H58.3v3.05A1.46,1.46,0,0,1,57,144.65Z"/><path class="cls-29" d="M80.64,144.65H70.33a1.45,1.45,0,0,1-1.28-1.59V140H81.92v3.05a1.45,1.45,0,0,1-1.28,1.59Z"/><path class="cls-30" d="M31.88,140v3.05a1.46,1.46,0,0,1-1.27,1.59H33.4a1.45,1.45,0,0,0,1.28-1.59V140Z"/><path class="cls-30" d="M55.5,140v3.05a1.45,1.45,0,0,1-1.28,1.59H57a1.45,1.45,0,0,0,1.28-1.59V140Z"/><path class="cls-30" d="M79.12,140v3.05a1.45,1.45,0,0,1-1.28,1.59h2.8a1.45,1.45,0,0,0,1.28-1.59V140Z"/><path class="cls-31" d="M42,134.26H22.2V114.65a.76.76,0,0,1,.66-.82H42Z"/><path class="cls-32" d="M39.69,113.83H42v20.43H39.69Z"/><path class="cls-33" d="M33.34,120.9h-2.5a.67.67,0,0,1-.59-.74v-6.33h3.69v6.33a.67.67,0,0,1-.59.74Z"/><path class="cls-31" d="M42,113.83H61.76v20.43H42Z"/><path class="cls-32" d="M59.47,113.83h2.29v20.43H59.47Z"/><path class="cls-33" d="M53.12,120.9h-2.5a.66.66,0,0,1-.6-.73h0v-6.33h3.69v6.33A.67.67,0,0,1,53.12,120.9Z"/><path class="cls-31" d="M81.53,134.26H61.76V113.83H80.88a.75.75,0,0,1,.65.82Z"/><path class="cls-32" d="M79.25,113.83v20.43h2.28V114.65a.75.75,0,0,0-.65-.82Z"/><path class="cls-27" d="M72.9,120.9H70.4a.66.66,0,0,1-.6-.73h0v-6.33h3.69v6.33A.68.68,0,0,1,72.9,120.9Z"/><path class="cls-34" d="M51.87,113.83H29.17V103a.75.75,0,0,1,.65-.82h22Z"/><path class="cls-35" d="M49.07,102.15h2.8v11.68h-2.8Z"/><path class="cls-27" d="M41.72,108h-2.4a.79.79,0,0,1-.69-.85v-5H42.4v5A.78.78,0,0,1,41.72,108Z"/><path class="cls-34" d="M74.57,113.83H51.87V102.15h22a.75.75,0,0,1,.66.82Z"/><path class="cls-35" d="M71.77,102.15v11.68h2.8V103a.75.75,0,0,0-.66-.82Z"/><path class="cls-33" d="M64.42,108H62a.79.79,0,0,1-.69-.85v-5H65.1v5A.78.78,0,0,1,64.42,108Z"/><path class="cls-36" d="M83.54,133h-1V114.65a1.9,1.9,0,0,0-1.65-2.05H75.57V103a1.91,1.91,0,0,0-1.66-2.06H72a1.27,1.27,0,0,0,0,2.48h1.57v9.21H52.86v-9.21h7.48v3.75A1.93,1.93,0,0,0,62,109.23h2.4a1.92,1.92,0,0,0,1.68-2.09v-3.75H68a1.27,1.27,0,0,0,0-2.48H64.2v-.11a9.55,9.55,0,0,1-2,0v.09H41.63a4.43,4.43,0,0,1-2.11-.06v.06h-9.7A1.9,1.9,0,0,0,28.17,103v9.63H22.86a1.9,1.9,0,0,0-1.65,2.05V133h-1a2.68,2.68,0,0,0-2.34,2.91V140a1.13,1.13,0,0,0,1,1.24h2v1.81a2.6,2.6,0,0,0,2.28,2.82H33.4a2.6,2.6,0,0,0,2.28-2.82v-1.81h8.76v1.81a2.6,2.6,0,0,0,2.28,2.82h3.16a1.27,1.27,0,0,0,0-2.47H46.72a.33.33,0,0,1-.29-.35v-1.81H57.3v1.81a.32.32,0,0,1-.28.35H53.86a1.26,1.26,0,0,0,0,2.47H57a2.6,2.6,0,0,0,2.28-2.82v-1.81H68v1.81a2.59,2.59,0,0,0,2.27,2.82H80.64a2.59,2.59,0,0,0,2.27-2.82v-1.81h2a1.14,1.14,0,0,0,1-1.24v-4.08A2.68,2.68,0,0,0,83.54,133ZM62.33,103.39h1.78v3.37H62.33Zm8.47,11.68h1.69v4.59H70.8Zm-8,0h6v5.09a1.83,1.83,0,0,0,1.6,2h2.5a1.84,1.84,0,0,0,1.59-2v-5.09h6.05v18H62.75Zm-9.63,7.07a1.81,1.81,0,0,0,1.59-2v-5.09h6v18H43v-18h6v5.09a1.81,1.81,0,0,0,1.59,2ZM51,115.07h1.7v4.59H51ZM39.63,103.39h1.78v3.37H39.63Zm-9.47,0h7.48v3.75a1.92,1.92,0,0,0,1.68,2.09h2.4a1.93,1.93,0,0,0,1.68-2.09v-3.75h7.47v9.21H30.16Zm2.78,11.68v4.59h-1.7v-4.59Zm-9.74,0h6.05v5.09a1.81,1.81,0,0,0,1.59,2h2.5a1.81,1.81,0,0,0,1.59-2v-5.09h6v18H23.2Zm10.2,28.34H23.1a.32.32,0,0,1-.28-.35v-1.81H33.69v1.81h0A.33.33,0,0,1,33.4,143.41Zm47.52-.35a.34.34,0,0,1-.28.35H70.33a.34.34,0,0,1-.28-.35v-1.81H80.92Zm3-4.29h-64v-2.84a.41.41,0,0,1,.35-.43H83.54a.41.41,0,0,1,.35.43Z"/><path class="cls-36" d="M38.41,127.29,37,126.07a.85.85,0,0,0-1.15,0l-1.38,1.22a1.44,1.44,0,0,0-.24,1.73,1,1,0,0,0,.81.52.87.87,0,0,0,.39-.1v.86a1,1,0,0,0,2,0v-.86a.89.89,0,0,0,1.19-.4h0a1.44,1.44,0,0,0-.24-1.73Z"/><path class="cls-36" d="M54.43,127.29a1.44,1.44,0,0,0-.24,1.73,1,1,0,0,0,.81.52.87.87,0,0,0,.39-.1v.86a1,1,0,0,0,2,0v-.86a.89.89,0,0,0,1.19-.4h0a1.44,1.44,0,0,0-.24-1.73L57,126.07a.85.85,0,0,0-1.15,0Z"/><path class="cls-36" d="M73.85,129a1,1,0,0,0,.82.52.86.86,0,0,0,.38-.1v.86a1,1,0,0,0,2,0v-.86a.87.87,0,0,0,1.17-.38v0h0a1.44,1.44,0,0,0-.23-1.73l-1.38-1.22a.86.86,0,0,0-1.16,0l-1.38,1.22A1.47,1.47,0,0,0,73.85,129Z"/><g class="cls-37"><path class="cls-27" d="M84.88,116.8h-66v-4.09a1.51,1.51,0,0,1,1.34-1.66H83.54a1.51,1.51,0,0,1,1.34,1.66Z"/><path class="cls-28" d="M83.54,111.05h-2.8a1.52,1.52,0,0,1,1.35,1.66v4.09h2.79v-4.09A1.51,1.51,0,0,0,83.54,111.05Z"/><path class="cls-29" d="M33.41,121.43H23.1a1.45,1.45,0,0,1-1.28-1.59v-3H34.68v3A1.46,1.46,0,0,1,33.41,121.43Z"/><path class="cls-29" d="M57,121.43H46.72a1.45,1.45,0,0,1-1.28-1.59v-3H58.3v3a1.45,1.45,0,0,1-1.3,1.59Z"/><path class="cls-29" d="M80.64,121.43H70.33a1.46,1.46,0,0,1-1.27-1.59v-3H81.92v3A1.45,1.45,0,0,1,80.64,121.43Z"/><path class="cls-30" d="M31.89,116.8v3a1.45,1.45,0,0,1-1.28,1.59h2.8a1.46,1.46,0,0,0,1.27-1.59v-3Z"/><path class="cls-30" d="M55.5,116.8v3a1.45,1.45,0,0,1-1.28,1.59H57a1.45,1.45,0,0,0,1.28-1.59v-3Z"/><path class="cls-30" d="M79.12,116.8v3a1.45,1.45,0,0,1-1.28,1.59h2.8a1.45,1.45,0,0,0,1.28-1.59v-3Z"/><path class="cls-31" d="M42,111.05H22.2V91.44a.76.76,0,0,1,.66-.82H42Z"/><path class="cls-32" d="M39.69,90.62H42v20.43H39.69Z"/><path class="cls-33" d="M33.34,97.69h-2.5a.67.67,0,0,1-.59-.74V90.62h3.69V97A.68.68,0,0,1,33.34,97.69Z"/><path class="cls-31" d="M42,90.62H61.76v20.43H42Z"/><path class="cls-32" d="M59.47,90.62h2.29v20.43H59.47Z"/><path class="cls-33" d="M53.12,97.69h-2.5A.67.67,0,0,1,50,97V90.62h3.7V97A.68.68,0,0,1,53.12,97.69Z"/><path class="cls-31" d="M81.54,111.05H61.76V90.62H80.88a.76.76,0,0,1,.66.82Z"/><path class="cls-32" d="M79.25,90.62v20.43h2.29V91.44a.76.76,0,0,0-.66-.82Z"/><path class="cls-27" d="M72.9,97.69H70.4a.66.66,0,0,1-.6-.73h0V90.62h3.69V97a.67.67,0,0,1-.59.74Z"/><path class="cls-34" d="M51.87,90.62H29.17V79.75a.73.73,0,0,1,.64-.81h22Z"/><path class="cls-35" d="M49.07,78.94h2.8V90.62h-2.8Z"/><path class="cls-27" d="M41.72,84.78h-2.4a.78.78,0,0,1-.69-.86v-5H42.4v5A.78.78,0,0,1,41.72,84.78Z"/><path class="cls-34" d="M74.57,90.62H51.87V78.94h22a.73.73,0,0,1,.66.79v0Z"/><path class="cls-35" d="M71.77,78.94V90.62h2.8V79.75a.73.73,0,0,0-.64-.81H71.77Z"/><path class="cls-33" d="M64.42,84.78H62a.78.78,0,0,1-.68-.86v-5h3.77v5A.79.79,0,0,1,64.42,84.78Z"/><path class="cls-36" d="M83.54,109.81h-1V91.44a1.89,1.89,0,0,0-1.65-2.06H75.57V79.75a1.89,1.89,0,0,0-1.66-2H72a1.26,1.26,0,0,0,0,2.47h1.57v9.21H52.87V80.17h7.47v3.75A1.93,1.93,0,0,0,62,86h2.4a1.92,1.92,0,0,0,1.68-2.1V80.17H68a1.26,1.26,0,0,0,0-2.47H64.2v-.12a9.55,9.55,0,0,1-2,0v.09H41.63a4.31,4.31,0,0,1-2.11-.07v.07H29.83a1.89,1.89,0,0,0-1.66,2V89.3H22.86a1.89,1.89,0,0,0-1.65,2.06v18.37h-1a2.66,2.66,0,0,0-2.34,2.9v4.09a1.14,1.14,0,0,0,1,1.24h2v1.8a2.61,2.61,0,0,0,2.28,2.83H33.41a2.6,2.6,0,0,0,2.27-2.83V118h8.76v1.8a2.6,2.6,0,0,0,2.28,2.83h3.16a1.27,1.27,0,0,0,0-2.48H46.72a.32.32,0,0,1-.29-.35h0V118H57.31v1.8a.32.32,0,0,1-.29.35H53.86a1.27,1.27,0,0,0,0,2.48H57a2.6,2.6,0,0,0,2.28-2.83V118H68v1.8a2.6,2.6,0,0,0,2.27,2.83H80.64a2.6,2.6,0,0,0,2.27-2.83V118h2a1.14,1.14,0,0,0,1-1.24v-4.09A2.67,2.67,0,0,0,83.54,109.81ZM62.33,80.17h1.78v3.37H62.33ZM70.8,91.86h1.7v4.59H70.8Zm-8,0h6V97a1.81,1.81,0,0,0,1.59,2h2.5a1.81,1.81,0,0,0,1.59-2V91.86h6v18H62.76Zm-9.64,7.06a1.81,1.81,0,0,0,1.59-2V91.86h6v18H43v-18h6V97a1.81,1.81,0,0,0,1.59,2ZM51,91.86h1.7v4.59H51ZM39.63,80.17h1.78v3.37H39.63Zm-9.47,0h7.48v3.75A1.93,1.93,0,0,0,39.32,86h2.4a1.92,1.92,0,0,0,1.68-2.1V80.17h7.47v9.21H30.16Zm2.78,11.69v4.59h-1.7V91.86Zm-9.74,0h6.05V97a1.81,1.81,0,0,0,1.59,2h2.5a1.81,1.81,0,0,0,1.59-2V91.86h6v18H23.2Zm10.21,28.33H23.1a.31.31,0,0,1-.28-.34h0V118H33.69v1.8h0a.32.32,0,0,1-.24.38Zm47.51-.35a.31.31,0,0,1-.26.35H70.33a.32.32,0,0,1-.28-.35V118H80.92Zm3-4.28h-64v-2.85a.41.41,0,0,1,.35-.43H83.54a.41.41,0,0,1,.35.43Z"/><path class="cls-36" d="M38.42,104.08,37,102.86a.83.83,0,0,0-1.15,0l-1.38,1.22a1.42,1.42,0,0,0-.24,1.72,1,1,0,0,0,.82.52.75.75,0,0,0,.38-.1v.87a1,1,0,0,0,2,0v-.87a.87.87,0,0,0,1.17-.37v0h0a1.42,1.42,0,0,0-.23-1.72Z"/><path class="cls-36" d="M54.43,104.08a1.42,1.42,0,0,0-.24,1.72,1,1,0,0,0,.82.52.75.75,0,0,0,.38-.1v.87a1,1,0,0,0,2,0v-.87a.89.89,0,0,0,1.19-.4h0a1.44,1.44,0,0,0-.23-1.72L57,102.86a.83.83,0,0,0-1.15,0Z"/><path class="cls-36" d="M73.86,105.8a.94.94,0,0,0,.81.52.75.75,0,0,0,.38-.1v.87a1,1,0,0,0,2,0v-.87a.87.87,0,0,0,1.17-.37v0h0a1.44,1.44,0,0,0-.24-1.72l-1.38-1.22a.84.84,0,0,0-1.16,0l-1.38,1.22A1.42,1.42,0,0,0,73.86,105.8Z"/></g><polyline class="cls-38" points="136.23 143.28 136.23 148.28 131.23 148.28"/><line class="cls-39" x1="121.13" y1="148.28" x2="25.14" y2="148.28"/><polyline class="cls-38" points="20.08 148.28 15.08 148.28 15.08 143.28"/><line class="cls-39" x1="15.08" y1="133.19" x2="15.08" y2="17.08"/><polyline class="cls-38" points="15.08 12.03 15.08 7.03 20.08 7.03"/><line class="cls-39" x1="30.19" y1="7.03" x2="126.18" y2="7.03"/><polyline class="cls-38" points="131.23 7.03 136.23 7.03 136.23 12.03"/><line class="cls-39" x1="136.23" y1="22.13" x2="136.23" y2="138.24"/><rect class="cls-1" width="149.66" height="150.74"/></g></g></g></g></svg>