<svg xmlns="http://www.w3.org/2000/svg" xmlns:xlink="http://www.w3.org/1999/xlink" width="149.66" height="150.74" viewBox="0 0 149.66 150.74"><defs><style>.cls-1,.cls-40,.cls-41{fill:none;}.cls-2{fill:#586e7f;}.cls-3{fill:#415768;}.cls-4{fill:#eeedee;}.cls-5{fill:#e2e3e6;}.cls-6{fill:#e9c077;}.cls-7{fill:#e5a768;}.cls-8{fill:#de9083;}.cls-9{fill:#f1dab3;}.cls-10{fill:#ecc98a;}.cls-11{fill:#3e3c3c;}.cls-12{fill:#fae0a8;}.cls-13{fill:#f3cf91;}.cls-14{fill:#ebbe7d;}.cls-15{fill:#9b7257;}.cls-16{fill:#eaedef;}.cls-17{fill:#ccd4dc;}.cls-18{fill:#606060;}.cls-19{fill:#e07f54;}.cls-20{fill:#d3774f;}.cls-21{fill:#934c38;}.cls-22{fill:#b27154;}.cls-23{fill:#a5684d;}.cls-24{fill:#ea9b6a;}.cls-25{fill:#f7a676;}.cls-26{fill:#3c2828;}.cls-27{fill:#e45c41;}.cls-28{fill:#5282c3;}.cls-29{fill:#393937;}.cls-30{fill:#3a5f7f;}.cls-31{fill:#2d4f68;}.cls-32{fill:#c5d6ee;}.cls-33{fill:#b8c8e7;}.cls-34{fill:#eab24c;}.cls-35{fill:#e69646;}.cls-36{fill:#df6d57;}.cls-37{fill:#f1cb86;}.cls-38{fill:#ebbe6b;}.cls-39{clip-path:url(#clip-path);}.cls-40,.cls-41{stroke:#5e4f47;stroke-linecap:round;stroke-miterlimit:10;stroke-width:3px;}.cls-41{stroke-dasharray:10.1 10.1;}</style><clipPath id="clip-path"><rect id="SVGID" class="cls-1" x="21.23" y="74.38" width="61.38" height="38.12"/></clipPath></defs><title>Asset 1</title><g id="Layer_2" data-name="Layer 2"><g id="Layer_1-2" data-name="Layer 1"><g id="Layer_1-2-2" data-name="Layer 1-2"><path class="cls-2" d="M89.83,112H24.22v-3.3a1.34,1.34,0,0,1,1.33-1.33h63a1.34,1.34,0,0,1,1.33,1.33h0V112Z"/><path class="cls-3" d="M88.5,107.37H85.72a1.34,1.34,0,0,1,1.33,1.33h0V112h2.78v-3.3a1.34,1.34,0,0,0-1.33-1.33Z"/><path class="cls-4" d="M38.68,115.68H28.44a1.27,1.27,0,0,1-1.27-1.27h0V112H40v2.43a1.27,1.27,0,0,1-1.29,1.25Z"/><path class="cls-4" d="M62.15,115.68H51.91a1.27,1.27,0,0,1-1.27-1.27h0V112H63.42v2.43a1.27,1.27,0,0,1-1.26,1.28h0Z"/><path class="cls-4" d="M85.61,115.68H75.37a1.27,1.27,0,0,1-1.27-1.27h0V112H86.88v2.43a1.27,1.27,0,0,1-1.26,1.28h0Z"/><path class="cls-5" d="M37.17,112v2.43a1.27,1.27,0,0,1-1.26,1.28h2.77A1.27,1.27,0,0,0,40,114.49V112Z"/><path class="cls-5" d="M60.64,112v2.43a1.27,1.27,0,0,1-1.26,1.28h2.77a1.27,1.27,0,0,0,1.27-1.27h0V112Z"/><path class="cls-5" d="M84.1,112v2.43a1.27,1.27,0,0,1-1.26,1.28h2.77a1.27,1.27,0,0,0,1.27-1.27h0V112Z"/><path class="cls-6" d="M47.2,107.37H27.55V91.68a.65.65,0,0,1,.62-.68h19Z"/><path class="cls-7" d="M44.93,91H47.2v16.34H44.93Z"/><path class="cls-8" d="M38.62,96.68H36.13a.61.61,0,0,1-.59-.59V91h3.67v5.06a.6.6,0,0,1-.58.62Z"/><path class="cls-6" d="M47.2,91H66.85v16.34H47.2Z"/><path class="cls-7" d="M64.58,91h2.27v16.34H64.58Z"/><path class="cls-8" d="M58.27,96.68H55.78a.61.61,0,0,1-.59-.59V91h3.67v5.06a.59.59,0,0,1-.56.62Z"/><path class="cls-6" d="M86.5,107.37H66.85V91h19a.65.65,0,0,1,.65.65h0Z"/><path class="cls-7" d="M84.23,91v16.34H86.5V91.68a.65.65,0,0,0-.65-.65h0Z"/><path class="cls-2" d="M77.92,96.68H75.44a.6.6,0,0,1-.6-.59V91h3.67v5.06a.58.58,0,0,1-.59.59Z"/><path class="cls-9" d="M57,91H34.47V82.3a.65.65,0,0,1,.65-.65H57Z"/><path class="cls-10" d="M54.25,81.68H57V91H54.25Z"/><path class="cls-2" d="M46.94,86.35H44.56a.67.67,0,0,1-.69-.67h0v-4h3.75v4a.67.67,0,0,1-.66.68Z"/><path class="cls-9" d="M79.58,91H57V81.68H78.9a.65.65,0,0,1,.65.65h0Z"/><path class="cls-10" d="M76.8,81.68V91h2.78V82.3a.65.65,0,0,0-.65-.65h0Z"/><path class="cls-8" d="M69.5,86.35H67.11a.67.67,0,0,1-.68-.68h0v-4h3.75v4a.67.67,0,0,1-.68.68Z"/><path class="cls-6" d="M68.31,81.68H45.75V61.59a1.07,1.07,0,0,1,1.07-1.07H67.24a1.07,1.07,0,0,1,1.07,1.07Z"/><path class="cls-7" d="M67.24,60.52H64.62a1.07,1.07,0,0,1,1.07,1.07V81.68h2.62V61.59a1.07,1.07,0,0,0-1.07-1.07Z"/><path class="cls-8" d="M58.28,66.29H55.77a1,1,0,0,1-1-1V60.52H59.2v4.81A1,1,0,0,1,58.28,66.29Z"/><path class="cls-11" d="M88.5,106.38h-1V91.68A1.63,1.63,0,0,0,85.92,90H80.57V82.33A1.63,1.63,0,0,0,79,80.69H77a1,1,0,0,0,0,2h1.55V90H58V82.67h7.42v3a1.67,1.67,0,0,0,1.67,1.67H69.5a1.67,1.67,0,0,0,1.67-1.67v-3h1.91a1,1,0,0,0,0-2H69.3V61.59a2.06,2.06,0,0,0-2.06-2.06H46.82a2.06,2.06,0,0,0-2.06,2.06h0v3.58a1,1,0,0,0,2,0V61.59a.09.09,0,0,1,.08-.08h7v3.82a2,2,0,0,0,2,2h2.51a2,2,0,0,0,1.95-2V61.51h7a.09.09,0,0,1,.08.08v19.1H46.74V69.13a1,1,0,0,0-2,0V80.69H35.12a1.63,1.63,0,0,0-1.64,1.64V90H28.2a1.63,1.63,0,0,0-1.64,1.64v14.7h-1a2.32,2.32,0,0,0-2.32,2.32V112a1,1,0,0,0,1,1h2v1.44a2.27,2.27,0,0,0,2.26,2.27H38.68a2.27,2.27,0,0,0,2.26-2.27V113h8.71v1.44a2.27,2.27,0,0,0,2.26,2.27h3.14a1,1,0,0,0,0-2H51.91a.29.29,0,0,1-.28-.28h0V113h10.8v1.44a.29.29,0,0,1-.28.29H59a1,1,0,0,0,0,2h3.14a2.27,2.27,0,0,0,2.26-2.27V113h8.7v1.44a2.27,2.27,0,0,0,2.26,2.27H85.61a2.27,2.27,0,0,0,2.26-2.27V113h2a1,1,0,0,0,1-1v-3.3a2.32,2.32,0,0,0-2.32-2.32ZM58.25,65.3H55.8V61.51h2.45Zm27.26,41.08H67.84V92h6v4.07a1.6,1.6,0,0,0,1.59,1.58h2.48a1.58,1.58,0,0,0,1.58-1.58h0V92h6v14.36ZM77.52,92v3.67H75.83V92ZM65.86,106.38H48.19V92h6v4.07a1.58,1.58,0,0,0,1.58,1.58h2.49a1.58,1.58,0,0,0,1.58-1.58h0V92h6ZM57.87,92v3.67H56.18V92Zm11.32-6.66H67.42V82.67h1.77ZM44.86,82.67h1.77v2.69H44.86Zm-9.4,0h7.42v3a1.69,1.69,0,0,0,1.68,1.67h2.38a1.67,1.67,0,0,0,1.67-1.67v-3H56V90H35.46ZM36.53,92h1.69v3.67H36.53Zm-8,0h6v4.07a1.58,1.58,0,0,0,1.58,1.58H38.6a1.58,1.58,0,0,0,1.58-1.58h0V92h6v14.36H28.54ZM39,114.4a.29.29,0,0,1-.28.29H28.44a.29.29,0,0,1-.28-.28h0V113H39v1.4Zm46.93,0a.29.29,0,0,1-.27.29H75.37a.29.29,0,0,1-.28-.29V113h10.8Zm3-3.42H25.21V108.7a.34.34,0,0,1,.34-.34h63a.34.34,0,0,1,.34.34V111Z"/><path class="cls-11" d="M62.56,78.35a1,1,0,0,0,1-1v-.69a1,1,0,0,0,.38.08,1,1,0,0,0,.81-.42A1,1,0,0,0,64.5,75l-1.37-1A1,1,0,0,0,62,74l-1.37,1a1,1,0,0,0,1,1.72v.69a1,1,0,0,0,1,1Z"/><path class="cls-11" d="M43.66,101.79l-1.38-1a1,1,0,0,0-1.14,0l-1.38,1a1,1,0,0,0,1,1.72v.69a1,1,0,0,0,2,0v-.69a1,1,0,0,0,1-1.72Z"/><path class="cls-11" d="M59.57,101.79a1,1,0,0,0,1,1.72v.69a1,1,0,0,0,2,0v-.69a1,1,0,0,0,1-1.72l-1.37-1a1,1,0,0,0-1.15,0Z"/><path class="cls-11" d="M78.87,103.17a1,1,0,0,0,.81.42,1,1,0,0,0,.38-.08v.69a1,1,0,0,0,2,0v-.69a1,1,0,0,0,1-1.72l-1.37-1a1,1,0,0,0-1.15,0l-1.37,1A1,1,0,0,0,78.87,103.17Z"/><path class="cls-12" d="M73.86,68.05h57.87v46.34H73.86Z"/><path class="cls-13" d="M127.18,68.05h4.55v46.34h-4.55Z"/><path class="cls-14" d="M127.18,92.87V111.1H78.4V92.87Z"/><path class="cls-14" d="M127.18,71.34V89.57H78.4V71.34Z"/><path class="cls-15" d="M84.23,122.63C83,122.63,82,121.89,82,121v-6.59h4.55V121C86.51,121.89,85.49,122.63,84.23,122.63Z"/><path class="cls-15" d="M121.35,122.63c-1.26,0-2.27-.74-2.27-1.65v-6.59h4.54V121C123.62,121.89,122.6,122.63,121.35,122.63Z"/><path class="cls-16" d="M106.27,82.11h-7a1.71,1.71,0,0,1,0-3.3h7a1.71,1.71,0,0,1,0,3.3Z"/><path class="cls-17" d="M106.27,78.81h-2.48c.68,0,1.24.74,1.24,1.65s-.56,1.65-1.24,1.65h2.48a1.71,1.71,0,0,0,0-3.3Z"/><path class="cls-14" d="M88.05,119.88H86.51v-5.49H93v1.89C93,118.27,90.79,119.88,88.05,119.88Z"/><path class="cls-14" d="M117.54,119.88h1.54v-5.49h-6.52v1.89C112.56,118.27,114.79,119.88,117.54,119.88Z"/><path class="cls-18" d="M131.73,108.57c-.63,0-1.14.37-1.14.83v4.17H75V77.74c0-.45-.51-.82-1.13-.82s-1.14.37-1.14.82v36.65c0,.46.51.83,1.14.83h7V121c0,1.36,1.53,2.47,3.41,2.47s3.41-1.11,3.41-2.47v-.27h.41c3.36,0,6.11-2,6.11-4.43v-1.06h17.27v1.06c0,2.44,2.74,4.43,6.11,4.43h.4V121c0,1.36,1.53,2.47,3.41,2.47s3.41-1.11,3.41-2.47v-5.76h7c.63,0,1.13-.37,1.13-.83v-5A1.16,1.16,0,0,0,131.73,108.57ZM85.37,121c0,.46-.51.83-1.14.83s-1.13-.37-1.13-.83v-5.76h2.27Zm6.51-4.7c0,1.53-1.72,2.78-3.83,2.78h-.41v-3.84h4.24Zm25.66,2.78c-2.12,0-3.84-1.25-3.84-2.78v-1.06h4.24v3.84Zm4.95,1.92c0,.46-.51.83-1.14.83s-1.14-.37-1.14-.83v-5.76h2.28Z"/><path class="cls-18" d="M131.73,67.23H73.86c-.63,0-1.14.36-1.14.82v6.2c0,.46.51.83,1.14.83S75,74.71,75,74.25V68.87h55.6v37c0,.46.51.83,1.14.83s1.13-.37,1.13-.83V68.05C132.86,67.59,132.36,67.23,131.73,67.23Z"/><path class="cls-18" d="M77.26,111.1c0,.45.51.82,1.14.82h48.78c.63,0,1.14-.37,1.14-.82V92.87c0-.46-.51-.83-1.14-.83H78.4c-.63,0-1.14.37-1.14.83Zm2.28-17.41h46.51v16.58H79.54Z"/><path class="cls-18" d="M118.47,71.34c0-.45-.51-.82-1.13-.82H78.4c-.63,0-1.14.37-1.14.82V89.57c0,.46.51.83,1.14.83h48.78c.63,0,1.14-.37,1.14-.83V71.34c0-.45-.51-.82-1.14-.82h-5c-.62,0-1.13.37-1.13.82s.51.83,1.13.83h3.87V88.75H79.54V72.17h37.8C118,72.17,118.47,71.8,118.47,71.34Z"/><path class="cls-18" d="M99.31,78a2.57,2.57,0,0,0,0,4.94h7a2.57,2.57,0,0,0,0-4.94Zm7.59,2.47a.74.74,0,0,1-.63.82h-7c-.34,0-.62-.37-.62-.82s.28-.83.62-.83h7c.35,0,.63.36.63.82Z"/><path class="cls-16" d="M106.27,104h-7a1.71,1.71,0,0,1,0-3.3h7a1.71,1.71,0,0,1,0,3.3Z"/><path class="cls-17" d="M106.27,100.65h-2.48c.68,0,1.24.74,1.24,1.65s-.56,1.65-1.24,1.65h2.48a1.71,1.71,0,0,0,0-3.3Z"/><path class="cls-18" d="M99.31,99.83a2.57,2.57,0,0,0,0,4.94h7a2.57,2.57,0,0,0,0-4.94Zm7.59,2.47a.74.74,0,0,1-.63.82h-7c-.34,0-.62-.37-.62-.82s.28-.82.62-.82h7A.74.74,0,0,1,106.9,102.3Z"/><path class="cls-12" d="M73.86,89h57.87v46.34H73.86Z"/><path class="cls-13" d="M127.18,89h4.55v46.34h-4.55Z"/><path class="cls-14" d="M127.18,113.82v18.23H78.4V113.82Z"/><path class="cls-14" d="M127.18,92.29v18.23H78.4V92.29Z"/><path class="cls-15" d="M84.23,143.58c-1.25,0-2.27-.74-2.27-1.65v-6.59h4.55v6.59C86.51,142.84,85.49,143.58,84.23,143.58Z"/><path class="cls-15" d="M121.35,143.58c-1.26,0-2.27-.74-2.27-1.65v-6.59h4.54v6.59C123.62,142.84,122.6,143.58,121.35,143.58Z"/><path class="cls-16" d="M106.27,103.06h-7a1.71,1.71,0,0,1,0-3.3h7a1.71,1.71,0,0,1,0,3.3Z"/><path class="cls-17" d="M106.27,99.76h-2.48c.68,0,1.24.74,1.24,1.65s-.56,1.65-1.24,1.65h2.48a1.71,1.71,0,0,0,0-3.3Z"/><path class="cls-14" d="M88.05,140.83H86.51v-5.49H93v1.89C93,139.22,90.79,140.83,88.05,140.83Z"/><path class="cls-14" d="M117.54,140.83h1.54v-5.49h-6.52v1.89C112.56,139.22,114.79,140.83,117.54,140.83Z"/><path class="cls-18" d="M131.73,129.52c-.63,0-1.14.37-1.14.83v4.17H75V98.69c0-.45-.51-.82-1.13-.82s-1.14.37-1.14.82v36.65c0,.46.51.83,1.14.83h7v5.76c0,1.37,1.53,2.47,3.41,2.47s3.41-1.1,3.41-2.47v-.27h.41c3.36,0,6.11-2,6.11-4.43v-1.06h17.27v1.06c0,2.44,2.74,4.43,6.11,4.43h.4v.27c0,1.37,1.53,2.47,3.41,2.47s3.41-1.1,3.41-2.47v-5.76h7c.63,0,1.13-.37,1.13-.83v-5A1.16,1.16,0,0,0,131.73,129.52ZM85.37,141.93c0,.46-.51.83-1.14.83s-1.13-.37-1.13-.83v-5.76h2.27Zm6.51-4.7c0,1.53-1.72,2.78-3.83,2.78h-.41v-3.84h4.24ZM117.54,140c-2.12,0-3.84-1.25-3.84-2.78v-1.06h4.24V140Zm4.95,1.92c0,.46-.51.83-1.14.83s-1.14-.37-1.14-.83v-5.76h2.28Z"/><path class="cls-18" d="M131.73,88.18H73.86c-.63,0-1.14.37-1.14.82v6.2c0,.46.51.83,1.14.83S75,95.66,75,95.2V89.82h55.6v37c0,.46.51.83,1.14.83s1.13-.37,1.13-.83V89C132.86,88.55,132.36,88.18,131.73,88.18Z"/><path class="cls-18" d="M77.26,132.05c0,.45.51.82,1.14.82h48.78c.63,0,1.14-.37,1.14-.82V113.82c0-.46-.51-.82-1.14-.82H78.4c-.63,0-1.14.36-1.14.82Zm2.28-17.41h46.51v16.59H79.54Z"/><path class="cls-18" d="M118.47,92.29c0-.45-.51-.82-1.13-.82H78.4c-.63,0-1.14.37-1.14.82v18.23c0,.46.51.83,1.14.83h48.78c.63,0,1.14-.37,1.14-.83V92.29c0-.45-.51-.82-1.14-.82h-5c-.62,0-1.13.37-1.13.82s.51.83,1.13.83h3.87V109.7H79.54V93.12h37.8C118,93.12,118.47,92.75,118.47,92.29Z"/><path class="cls-18" d="M99.31,98.94a2.57,2.57,0,0,0,0,4.94h7a2.57,2.57,0,0,0,0-4.94Zm7.59,2.47a.74.74,0,0,1-.63.82h-7c-.34,0-.62-.37-.62-.82s.28-.82.62-.82h7A.74.74,0,0,1,106.9,101.41Z"/><path class="cls-16" d="M106.27,124.9h-7a1.71,1.71,0,0,1,0-3.3h7a1.71,1.71,0,0,1,0,3.3Z"/><path class="cls-17" d="M106.27,121.6h-2.48c.68,0,1.24.74,1.24,1.65s-.56,1.65-1.24,1.65h2.48a1.71,1.71,0,0,0,0-3.3Z"/><path class="cls-18" d="M99.31,120.78a2.57,2.57,0,0,0,0,4.94h7a2.57,2.57,0,0,0,0-4.94Zm7.59,2.47c0,.46-.28.83-.63.83h-7c-.34,0-.62-.37-.62-.83s.28-.82.62-.82h7A.74.74,0,0,1,106.9,123.25Z"/><path class="cls-19" d="M125.94,135.78H106.15c-1,0-1.8-1.12-1.8-2.5V100.69c0-1.37.8-2.5,1.8-2.5-1,0-1.8-1.12-1.8-2.5V63.17c0-1.39.8-2.51,1.8-2.51-1,0-1.8-1.06-1.8-2.5V25.61c0-1.38.8-2.5,1.8-2.5h19.79c3,0,5.41,3.37,5.41,7.51V53.15c0,4.15-2.43,7.51-5.41,7.51,3,0,5.41,3.37,5.41,7.52V90.72c0,4.14-2.43,7.51-5.41,7.51,3,0,5.41,3.35,5.41,7.51v22.5C131.35,132.47,128.92,135.78,125.94,135.78Z"/><path class="cls-20" d="M124.94,135.78H105.15c-1,0-1.8-1.12-1.8-2.5V100.69c0-1.37.8-2.5,1.8-2.5-1,0-1.8-1.12-1.8-2.5V63.17c0-1.39.8-2.51,1.8-2.51-1,0-1.8-1.06-1.8-2.5V25.61c0-1.38.8-2.5,1.8-2.5h14.3c-3,0-5.39,3.37-5.39,7.51V53.15c0,4.15,2.41,7.51,5.39,7.51-3,0-5.39,3.37-5.39,7.52V90.72c0,4.14,2.41,7.51,5.39,7.51-3,0-5.39,3.35-5.39,7.51V118c0,5.53,3.22,10,7.2,10h3.68c3,0,5.41-3.36,5.41-7.52v7.74C130.35,132.47,127.92,135.78,124.94,135.78Z"/><path class="cls-21" d="M90.86,45.4H85.09c-.49,0-.9-.56-.9-1.26V31.63c0-.7.41-1.25.9-1.25h5.77c.49,0,.9.55.9,1.25V44.15C91.76,44.84,91.35,45.4,90.86,45.4Zm.9,81.36V114.25c0-.7-.41-1.26-.9-1.26H85.09c-.49,0-.9.56-.9,1.26v12.51c0,.7.41,1.26.9,1.26h5.77C91.35,128,91.76,127.46,91.76,126.76Z"/><path class="cls-22" d="M114.35,143.54H91.86c-.51,0-.9-.56-.9-1.25V16.6c0-.7.39-1.26.9-1.26h22.49c3,0,5.4,3.37,5.4,7.51s-2.42,7.53-5.4,7.53h-9v98.14h9c3,0,5.4,3.36,5.4,7.51S117.33,143.54,114.35,143.54Z"/><path class="cls-23" d="M115.22,143.54H92.86c-.51,0-.91-.56-.91-1.25V16.6c0-.7.4-1.26.91-1.26h6.29c-.49,0-.9.56-.9,1.26V130.52c0,2.77,1.62,5,3.61,5h13.46c1.92,0,3.6-1.4,4.56-3.51a9.49,9.49,0,0,1,.82,4.32C120.62,140.4,118.15,143.54,115.22,143.54Z"/><path class="cls-24" d="M106.15,135.78h-1.8c-2,0-3.6-2.24-3.6-5V103.24c0-2.77,1.62-5,3.6-5-2,0-3.6-2.25-3.6-5V65.67c0-2.76,1.62-5,3.6-5-2,0-3.6-2.23-3.6-5V28.12c0-2.77,1.62-5,3.6-5h1.8c2,0,3.6,2.24,3.6,5V55.66c0,2.77-1.61,5-3.6,5,2,0,3.6,2.25,3.6,5V93.22c0,2.76-1.61,5-3.6,5,2,0,3.6,2.24,3.6,5v27.54C109.75,133.53,108.14,135.78,106.15,135.78Z"/><path class="cls-25" d="M106.15,90.46h-1.8c-2,0-3.6-2.23-3.6-5V65.67c0-2.76,1.62-5,3.6-5h1.8c2,0,3.6,2.25,3.6,5V85.45C109.75,88.23,108.14,90.46,106.15,90.46Zm3.6-42.56V28.12c0-2.77-1.61-5-3.6-5h-1.8c-2,0-3.6,2.24-3.6,5V47.9c0,2.76,1.61,5,3.6,5h1.8C108.14,52.91,109.75,50.66,109.75,47.9Zm0,75.11V103.24c0-2.77-1.61-5-3.6-5h-1.8c-2,0-3.6,2.24-3.6,5V123c0,2.77,1.61,5,3.6,5h1.8C108.14,128,109.75,125.78,109.75,123Z"/><path class="cls-26" d="M121.08,138.77h5.86c3.78,0,6.84-4.24,6.84-9.45V106.74a10.94,10.94,0,0,0-2.69-7.51,11,11,0,0,0,2.69-7.51V69.18a11,11,0,0,0-2.69-7.51,11,11,0,0,0,2.69-7.52V31.62c0-5.21-3.06-9.45-6.84-9.45h-5.86c-.58-4.41-3.36-7.75-6.73-7.75H91.86c-1.29,0-2.35,1.43-2.35,3.17V29.44H86.15c-1.29,0-2.34,1.43-2.34,3.17V45.15c0,1.74,1,3.17,2.34,3.17h3.36v63.74H86.15c-1.29,0-2.34,1.43-2.34,3.18v12.51c0,1.76,1,3.18,2.34,3.18h3.36v12.34c0,1.76,1.06,3.18,2.35,3.18h22.49C117.71,146.48,120.5,143.12,121.08,138.77Zm9.82-107.1V54.15c0,3.08-1.77,5.58-4,5.58H116.15c-.8,0-1.45.87-1.45,1.93s.64,1.9,1.45,1.9h10.79c2.24,0,4,2.5,4,5.58V91.72c0,3.07-1.77,5.57-4,5.57H116.15c-.8,0-1.45.87-1.45,1.94s.65,1.93,1.45,1.93H127c2.18,0,4,2.5,4,5.58v22.5c0,3.08-1.77,5.58-4,5.58H121c-.71-4.16-3.43-7.27-6.65-7.27h-2.16v-23.2a8.41,8.41,0,0,0-1.66-5.16A8.39,8.39,0,0,0,112.19,94V66.82a8.41,8.41,0,0,0-1.61-5.08,8.3,8.3,0,0,0,1.61-5.08V49.09c0-1.06-.64-1.94-1.44-1.94s-1.45.87-1.45,1.94v7.57c0,1.7-1,3.07-2.15,3.07h-1.8c-1.18,0-2.16-1.37-2.16-3.07V29.12c0-1.7,1-3.07,2.16-3.07h1.8c1.19,0,2.15,1.37,2.15,3.07v12c0,1.06.65,1.94,1.45,1.94s1.44-.87,1.44-1.94V33.3h2.16c3.22,0,5.94-3.1,6.65-7.25h5.94c2.19,0,4,2.55,4,5.57ZM92.4,127.58V46.4h0V33.3h7.85V56.66a8.37,8.37,0,0,0,1.63,5.08,8.29,8.29,0,0,0-1.62,5.08V94.07a8.36,8.36,0,0,0,1.67,5.16,8.31,8.31,0,0,0-1.67,5.15v23.2Zm13.2-30.29c-1.32,0-2.4-1.44-2.4-3.18V66.82c0-1.77,1.12-3.18,2.4-3.18h1.3c1.33,0,2.4,1.45,2.4,3.18V94.07c0,1.78-1.12,3.17-2.4,3.17Zm-2.4,7.09c0-1.77,1.12-3.17,2.4-3.17h1.3c1.33,0,2.4,1.44,2.4,3.17v27.24c0,1.78-1.12,3.23-2.4,3.23h-1.3c-1.32,0-2.4-1.45-2.4-3.23Zm11.15-86.1c2.18,0,4,2.5,4,5.57s-1.77,5.59-4,5.59h-2.16v-.32c0-3.84-2.25-6.95-5-6.95h-1.8c-2.78,0-5,3.11-5,7v.32H92.45V18.28ZM86.64,44.49V33.3h2.9V44.49Zm0,71.47h2.9v11.16h-2.9Zm5.76,26.68V131.45h7.85v.17c0,3.92,2.38,7.1,5.3,7.1h1.3c2.91,0,5.28-3.18,5.28-7.1v-.17h2.17c2.17,0,4,2.51,4,5.58s-1.78,5.58-4,5.58Z"/><path class="cls-27" d="M40.24,136.65H30.6a2.75,2.75,0,0,1,2.45-1.51H37.8A2.74,2.74,0,0,1,40.24,136.65Z"/><polygon class="cls-28" points="27.46 43.4 25.46 62.22 22.85 62.22 26 43.4 27.46 43.4"/><polygon class="cls-28" points="31.9 43.4 31.22 62.22 27.89 62.22 29.88 43.4 31.9 43.4"/><polygon class="cls-28" points="36.53 43.4 37.22 62.22 33.63 62.22 34.31 43.4 36.53 43.4"/><polygon class="cls-28" points="40.96 43.4 42.95 62.22 39.63 62.22 38.95 43.4 40.96 43.4"/><polygon class="cls-28" points="44.85 43.4 47.99 62.22 45.38 62.22 43.39 43.4 44.85 43.4"/><path class="cls-29" d="M50.61,63.23a1.25,1.25,0,0,1-.27,1,1.22,1.22,0,0,1-.92.43H42V72a1.21,1.21,0,0,1-2.41.22.81.81,0,0,1,0-.22V64.64h-3v68.08H37.8a5.15,5.15,0,0,1,5.14,5.14,1.21,1.21,0,0,1-1.21,1.21H29.12a1.21,1.21,0,0,1-1.21-1.21h0a5.14,5.14,0,0,1,5.14-5.14h1.17V64.64H21.43a1.21,1.21,0,0,1-1.21-1.21,1.23,1.23,0,0,1,0-.2L23.79,42A1.2,1.2,0,0,1,25,41H45.87a1.2,1.2,0,0,1,1.19,1Zm-2.62-1L44.85,43.4H43.39l2,18.82Zm-5,0L41,43.4H39l.68,18.82ZM30.6,136.65h9.64a2.74,2.74,0,0,0-2.44-1.51H33.05A2.75,2.75,0,0,0,30.6,136.65Zm6.61-74.43L36.53,43.4H34.31l-.68,18.82Zm-6,0L31.9,43.4h-2l-2,18.82Zm-5.76,0,2-18.82H26L22.85,62.22Z"/><path class="cls-30" d="M84.88,140h-66v-4.08a1.53,1.53,0,0,1,1.35-1.67H83.54a1.53,1.53,0,0,1,1.34,1.67Z"/><path class="cls-31" d="M83.54,134.26h-2.8a1.53,1.53,0,0,1,1.34,1.67V140h2.8v-4.08a1.53,1.53,0,0,0-1.34-1.67Z"/><path class="cls-32" d="M33.4,144.65H23.1a1.45,1.45,0,0,1-1.28-1.59V140H34.68v3.05A1.46,1.46,0,0,1,33.4,144.65Z"/><path class="cls-32" d="M57,144.65H46.72a1.45,1.45,0,0,1-1.28-1.59V140H58.3v3.05A1.46,1.46,0,0,1,57,144.65Z"/><path class="cls-32" d="M80.64,144.65H70.33a1.45,1.45,0,0,1-1.28-1.59V140H81.92v3.05a1.45,1.45,0,0,1-1.28,1.59Z"/><path class="cls-33" d="M31.88,140v3.05a1.46,1.46,0,0,1-1.27,1.59H33.4a1.45,1.45,0,0,0,1.28-1.59V140Z"/><path class="cls-33" d="M55.5,140v3.05a1.45,1.45,0,0,1-1.28,1.59H57a1.45,1.45,0,0,0,1.28-1.59V140Z"/><path class="cls-33" d="M79.12,140v3.05a1.45,1.45,0,0,1-1.28,1.59h2.8a1.45,1.45,0,0,0,1.28-1.59V140Z"/><path class="cls-34" d="M42,134.26H22.2V114.65a.76.76,0,0,1,.66-.82H42Z"/><path class="cls-35" d="M39.69,113.83H42v20.43H39.69Z"/><path class="cls-36" d="M33.34,120.9h-2.5a.67.67,0,0,1-.59-.74v-6.33h3.69v6.33A.67.67,0,0,1,33.34,120.9Z"/><path class="cls-34" d="M42,113.83H61.76v20.43H42Z"/><path class="cls-35" d="M59.47,113.83h2.29v20.43H59.47Z"/><path class="cls-36" d="M53.12,120.9h-2.5a.67.67,0,0,1-.6-.74v-6.33h3.69v6.33A.67.67,0,0,1,53.12,120.9Z"/><path class="cls-34" d="M81.53,134.26H61.76V113.83H80.88a.75.75,0,0,1,.65.82Z"/><path class="cls-35" d="M79.25,113.83v20.43h2.28V114.65a.75.75,0,0,0-.65-.82Z"/><path class="cls-30" d="M72.9,120.9H70.4a.67.67,0,0,1-.6-.74v-6.33h3.69v6.33A.68.68,0,0,1,72.9,120.9Z"/><path class="cls-37" d="M51.87,113.83H29.17V103a.75.75,0,0,1,.65-.82h22Z"/><path class="cls-38" d="M49.07,102.15h2.8v11.68h-2.8Z"/><path class="cls-30" d="M41.72,108h-2.4a.79.79,0,0,1-.69-.85v-5H42.4v5A.78.78,0,0,1,41.72,108Z"/><path class="cls-37" d="M74.57,113.83H51.87V102.15h22a.75.75,0,0,1,.66.82Z"/><path class="cls-38" d="M71.77,102.15v11.68h2.8V103a.75.75,0,0,0-.66-.82Z"/><path class="cls-36" d="M64.42,108H62a.79.79,0,0,1-.69-.85v-5H65.1v5A.78.78,0,0,1,64.42,108Z"/><path class="cls-26" d="M83.54,133h-1V114.65a1.9,1.9,0,0,0-1.65-2.05H75.57V103a1.91,1.91,0,0,0-1.66-2.06H72a1.27,1.27,0,0,0,0,2.48h1.57v9.21H52.86v-9.21h7.48v3.75A1.93,1.93,0,0,0,62,109.23h2.4a1.92,1.92,0,0,0,1.68-2.09v-3.75H68a1.27,1.27,0,0,0,0-2.48H64.2v-.11a9.55,9.55,0,0,1-2,0v.09H41.63a4.43,4.43,0,0,1-2.11-.06v.06h-9.7A1.9,1.9,0,0,0,28.17,103v9.63H22.86a1.9,1.9,0,0,0-1.65,2.05V133h-1a2.68,2.68,0,0,0-2.34,2.91V140a1.13,1.13,0,0,0,1,1.24h2v1.81a2.6,2.6,0,0,0,2.28,2.82H33.4a2.6,2.6,0,0,0,2.28-2.82v-1.81h8.76v1.81a2.6,2.6,0,0,0,2.28,2.82h3.16a1.27,1.27,0,0,0,0-2.47H46.72a.33.33,0,0,1-.29-.35v-1.81H57.3v1.81a.32.32,0,0,1-.28.35H53.86a1.26,1.26,0,0,0,0,2.47H57a2.6,2.6,0,0,0,2.28-2.82v-1.81H68v1.81a2.59,2.59,0,0,0,2.27,2.82H80.64a2.59,2.59,0,0,0,2.27-2.82v-1.81h2a1.14,1.14,0,0,0,1-1.24v-4.08A2.68,2.68,0,0,0,83.54,133ZM62.33,103.39h1.78v3.37H62.33Zm8.47,11.68h1.69v4.59H70.8Zm-8,0h6v5.09a1.83,1.83,0,0,0,1.6,2h2.5a1.84,1.84,0,0,0,1.59-2v-5.09h6.05v18H62.75Zm-9.63,7.07a1.81,1.81,0,0,0,1.59-2v-5.09h6v18H43v-18h6v5.09a1.81,1.81,0,0,0,1.59,2ZM51,115.07h1.7v4.59H51ZM39.63,103.39h1.78v3.37H39.63Zm-9.47,0h7.48v3.75a1.92,1.92,0,0,0,1.68,2.09h2.4a1.93,1.93,0,0,0,1.68-2.09v-3.75h7.47v9.21H30.16Zm2.78,11.68v4.59h-1.7v-4.59Zm-9.74,0h6.05v5.09a1.81,1.81,0,0,0,1.59,2h2.5a1.81,1.81,0,0,0,1.59-2v-5.09h6v18H23.2Zm10.2,28.34H23.1a.32.32,0,0,1-.28-.35v-1.81H33.69v1.81h0A.33.33,0,0,1,33.4,143.41Zm47.52-.35a.34.34,0,0,1-.28.35H70.33a.34.34,0,0,1-.28-.35v-1.81H80.92Zm3-4.29h-64v-2.84a.41.41,0,0,1,.35-.43H83.54a.41.41,0,0,1,.35.43Z"/><path class="cls-26" d="M38.41,127.29,37,126.07a.85.85,0,0,0-1.15,0l-1.38,1.22a1.44,1.44,0,0,0-.24,1.73,1,1,0,0,0,.81.52.87.87,0,0,0,.39-.1v.86a1,1,0,0,0,2,0v-.86a.89.89,0,0,0,1.19-.4v0a1.44,1.44,0,0,0-.24-1.73Z"/><path class="cls-26" d="M54.43,127.29a1.44,1.44,0,0,0-.24,1.73,1,1,0,0,0,.81.52.87.87,0,0,0,.39-.1v.86a1,1,0,0,0,2,0v-.86a.89.89,0,0,0,1.19-.4v0a1.44,1.44,0,0,0-.24-1.73L57,126.07a.85.85,0,0,0-1.15,0Z"/><path class="cls-26" d="M73.85,129a1,1,0,0,0,.82.52.86.86,0,0,0,.38-.1v.86a1,1,0,0,0,2,0v-.86a.87.87,0,0,0,1.18-.4v0a1.44,1.44,0,0,0-.23-1.73l-1.38-1.22a.86.86,0,0,0-1.16,0l-1.38,1.22A1.47,1.47,0,0,0,73.85,129Z"/><g class="cls-39"><path class="cls-30" d="M84.88,116.8h-66v-4.09a1.51,1.51,0,0,1,1.34-1.66H83.54a1.51,1.51,0,0,1,1.34,1.66Z"/><path class="cls-31" d="M83.54,111.05h-2.8a1.52,1.52,0,0,1,1.35,1.66v4.09h2.79v-4.09A1.51,1.51,0,0,0,83.54,111.05Z"/><path class="cls-32" d="M33.41,121.43H23.1a1.45,1.45,0,0,1-1.28-1.59v-3H34.68v3A1.46,1.46,0,0,1,33.41,121.43Z"/><path class="cls-32" d="M57,121.43H46.72a1.45,1.45,0,0,1-1.28-1.59v-3H58.3v3A1.45,1.45,0,0,1,57,121.43Z"/><path class="cls-32" d="M80.64,121.43H70.33a1.46,1.46,0,0,1-1.27-1.59v-3H81.92v3A1.45,1.45,0,0,1,80.64,121.43Z"/><path class="cls-33" d="M31.89,116.8v3a1.45,1.45,0,0,1-1.28,1.59h2.8a1.46,1.46,0,0,0,1.27-1.59v-3Z"/><path class="cls-33" d="M55.5,116.8v3a1.45,1.45,0,0,1-1.28,1.59H57a1.45,1.45,0,0,0,1.28-1.59v-3Z"/><path class="cls-33" d="M79.12,116.8v3a1.45,1.45,0,0,1-1.28,1.59h2.8a1.45,1.45,0,0,0,1.28-1.59v-3Z"/><path class="cls-34" d="M42,111.05H22.2V91.44a.76.76,0,0,1,.66-.82H42Z"/><path class="cls-35" d="M39.69,90.62H42v20.43H39.69Z"/><path class="cls-36" d="M33.34,97.69h-2.5a.67.67,0,0,1-.59-.74V90.62h3.69V97A.68.68,0,0,1,33.34,97.69Z"/><path class="cls-34" d="M42,90.62H61.76v20.43H42Z"/><path class="cls-35" d="M59.47,90.62h2.29v20.43H59.47Z"/><path class="cls-36" d="M53.12,97.69h-2.5A.67.67,0,0,1,50,97V90.62h3.7V97A.68.68,0,0,1,53.12,97.69Z"/><path class="cls-34" d="M81.54,111.05H61.76V90.62H80.88a.76.76,0,0,1,.66.82Z"/><path class="cls-35" d="M79.25,90.62v20.43h2.29V91.44a.76.76,0,0,0-.66-.82Z"/><path class="cls-30" d="M72.9,97.69H70.4a.67.67,0,0,1-.6-.74V90.62h3.69V97a.67.67,0,0,1-.59.74Z"/><path class="cls-37" d="M51.87,90.62H29.17V79.75a.73.73,0,0,1,.66-.81h22Z"/><path class="cls-38" d="M49.07,78.94h2.8V90.62h-2.8Z"/><path class="cls-30" d="M41.72,84.78h-2.4a.78.78,0,0,1-.69-.86v-5H42.4v5A.78.78,0,0,1,41.72,84.78Z"/><path class="cls-37" d="M74.57,90.62H51.87V78.94h22a.73.73,0,0,1,.66.81Z"/><path class="cls-38" d="M71.77,78.94V90.62h2.8V79.75a.73.73,0,0,0-.66-.81Z"/><path class="cls-36" d="M64.42,84.78H62a.78.78,0,0,1-.68-.86v-5h3.77v5A.79.79,0,0,1,64.42,84.78Z"/><path class="cls-26" d="M83.54,109.81h-1V91.44a1.89,1.89,0,0,0-1.65-2.06H75.57V79.75a1.89,1.89,0,0,0-1.66-2H72a1.26,1.26,0,0,0,0,2.47h1.57v9.21H52.87V80.17h7.47v3.75A1.93,1.93,0,0,0,62,86h2.4a1.92,1.92,0,0,0,1.68-2.1V80.17H68a1.26,1.26,0,0,0,0-2.47H64.2v-.12a9.55,9.55,0,0,1-2,0v.09H41.63a4.31,4.31,0,0,1-2.11-.07v.07H29.83a1.89,1.89,0,0,0-1.66,2V89.3H22.86a1.89,1.89,0,0,0-1.65,2.06v18.37h-1a2.66,2.66,0,0,0-2.34,2.9v4.09a1.14,1.14,0,0,0,1,1.24h2v1.8a2.61,2.61,0,0,0,2.28,2.83H33.41a2.6,2.6,0,0,0,2.27-2.83V118h8.76v1.8a2.6,2.6,0,0,0,2.28,2.83h3.16a1.27,1.27,0,0,0,0-2.48H46.72a.32.32,0,0,1-.29-.35h0V118H57.31v1.8a.32.32,0,0,1-.29.35H53.86a1.27,1.27,0,0,0,0,2.48H57a2.6,2.6,0,0,0,2.28-2.83V118H68v1.8a2.6,2.6,0,0,0,2.27,2.83H80.64a2.6,2.6,0,0,0,2.27-2.83V118h2a1.14,1.14,0,0,0,1-1.24v-4.09A2.67,2.67,0,0,0,83.54,109.81ZM62.33,80.17h1.78v3.37H62.33ZM70.8,91.86h1.7v4.59H70.8Zm-8,0h6V97a1.81,1.81,0,0,0,1.59,2h2.5a1.81,1.81,0,0,0,1.59-2V91.86h6v18H62.76Zm-9.64,7.06a1.81,1.81,0,0,0,1.59-2V91.86h6v18H43v-18h6V97a1.81,1.81,0,0,0,1.59,2ZM51,91.86h1.7v4.59H51ZM39.63,80.17h1.78v3.37H39.63Zm-9.47,0h7.48v3.75A1.93,1.93,0,0,0,39.32,86h2.4a1.92,1.92,0,0,0,1.68-2.1V80.17h7.47v9.21H30.16Zm2.78,11.69v4.59h-1.7V91.86Zm-9.74,0h6.05V97a1.81,1.81,0,0,0,1.59,2h2.5a1.81,1.81,0,0,0,1.59-2V91.86h6v18H23.2Zm10.21,28.33H23.1a.31.31,0,0,1-.28-.34h0V118H33.69v1.8h0a.32.32,0,0,1-.24.38Zm47.51-.35a.31.31,0,0,1-.27.35H70.33a.32.32,0,0,1-.28-.35V118H80.92Zm3-4.28h-64v-2.85a.41.41,0,0,1,.35-.43H83.54a.41.41,0,0,1,.35.43Z"/><path class="cls-26" d="M38.42,104.08,37,102.86a.83.83,0,0,0-1.15,0l-1.38,1.22a1.42,1.42,0,0,0-.24,1.72,1,1,0,0,0,.82.52.75.75,0,0,0,.38-.1v.87a1,1,0,0,0,2,0v-.87a.87.87,0,0,0,1.18-.39l0,0a1.42,1.42,0,0,0-.23-1.72Z"/><path class="cls-26" d="M54.43,104.08a1.42,1.42,0,0,0-.24,1.72,1,1,0,0,0,.82.52.75.75,0,0,0,.38-.1v.87a1,1,0,0,0,2,0v-.87a.89.89,0,0,0,1.19-.4v0a1.44,1.44,0,0,0-.23-1.72L57,102.86a.83.83,0,0,0-1.15,0Z"/><path class="cls-26" d="M73.86,105.8a.94.94,0,0,0,.81.52.75.75,0,0,0,.38-.1v.87a1,1,0,0,0,2,0v-.87a.87.87,0,0,0,1.18-.39l0,0a1.44,1.44,0,0,0-.24-1.72l-1.38-1.22a.84.84,0,0,0-1.16,0l-1.38,1.22A1.42,1.42,0,0,0,73.86,105.8Z"/></g><polyline class="cls-40" points="136.23 143.28 136.23 148.28 131.23 148.28"/><line class="cls-41" x1="121.13" y1="148.28" x2="25.14" y2="148.28"/><polyline class="cls-40" points="20.08 148.28 15.08 148.28 15.08 143.28"/><line class="cls-41" x1="15.08" y1="133.19" x2="15.08" y2="17.08"/><polyline class="cls-40" points="15.08 12.03 15.08 7.03 20.08 7.03"/><line class="cls-41" x1="30.19" y1="7.03" x2="126.18" y2="7.03"/><polyline class="cls-40" points="131.23 7.03 136.23 7.03 136.23 12.03"/><line class="cls-41" x1="136.23" y1="22.13" x2="136.23" y2="138.24"/><rect class="cls-1" width="149.66" height="150.74"/></g></g></g></svg>