<svg xmlns="http://www.w3.org/2000/svg" width="386.1" height="100.24" viewBox="0 0 386.1 100.24"><defs><style>.cls-1,.cls-3{fill:#f7f3ed;}.cls-2{fill:#ffa41c;}.cls-3{fill-rule:evenodd;}</style></defs><g id="Layer_2" data-name="Layer 2"><g id="Layer_1-2" data-name="Layer 1"><g id="Layer_2-2" data-name="Layer 2"><g id="Layer_1-2-2" data-name="Layer 1-2"><g id="Layer_2-2-2" data-name="Layer 2-2"><g id="Layer_1-2-2-2" data-name="Layer 1-2-2"><g id="Layer_2-2-2-2" data-name="Layer 2-2-2"><g id="Layer_1-2-2-2-2" data-name="Layer 1-2-2-2"><path class="cls-1" d="M128.88,21.92H152.7a55.35,55.35,0,0,1-1,10.11A21.65,21.65,0,0,1,148,40.1q-6.48,9-19,9-10.89,0-17.73-6.75t-6.84-17.57q0-11.19,6.91-18t18-6.77a23.54,23.54,0,0,1,12.53,3.24,21.19,21.19,0,0,1,8.25,9.65l-11.36,4.77a11.87,11.87,0,0,0-3.85-5.38,9.74,9.74,0,0,0-6.11-1.95,10.2,10.2,0,0,0-8.77,4.4,16.7,16.7,0,0,0-3.21,10.14A16.42,16.42,0,0,0,120.11,35a11.46,11.46,0,0,0,15.59,2.23,8.23,8.23,0,0,0,3-5.93h-9.77Z"/><path class="cls-1" d="M184.43,39.64h-16.5l-3.18,8H152L169.76,1.57h13.08l17.35,46.08H187.42Zm-3.24-9.17L176.3,15.81h-.12l-5,14.66Z"/><path class="cls-1" d="M220.42,47.65H202V1.57h17.11q13.68,0,13.69,12,0,6.84-5.08,9.41v0q9.42,1.2,9.42,11.73a12.53,12.53,0,0,1-1.41,6,10.78,10.78,0,0,1-3.82,4,19.17,19.17,0,0,1-5.26,2.1A27.3,27.3,0,0,1,220.42,47.65Zm-6.48-36.92v8.93h1.35a10.53,10.53,0,0,0,4.7-.92c1.18-.61,1.78-1.79,1.78-3.54a4.64,4.64,0,0,0-.58-2.48,3,3,0,0,0-1.75-1.34,9.29,9.29,0,0,0-2.14-.52,19,19,0,0,0-2.5-.13Zm0,17.85v9.9h3.52a16.65,16.65,0,0,0,2-.12,8,8,0,0,0,2.17-.43c.56-.25,1.11-.53,1.65-.83a3.1,3.1,0,0,0,1.35-1.4,5.27,5.27,0,0,0,.39-2.11,6.52,6.52,0,0,0-.18-1.65,2.57,2.57,0,0,0-.64-1.22l-.82-.89a2.5,2.5,0,0,0-1.2-.61c-.42-.1-.84-.23-1.25-.37a6.31,6.31,0,0,0-1.5-.21l-1.4-.06Z"/><path class="cls-1" d="M259.84,47.65H241.38V1.57h17.11q13.68,0,13.69,12,0,6.84-5.07,9.41v0q9.39,1.2,9.41,11.73a12.67,12.67,0,0,1-1.4,6,10.78,10.78,0,0,1-3.82,4,19.17,19.17,0,0,1-5.26,2.1A27,27,0,0,1,259.84,47.65Zm-6.48-36.92v8.93h1.34a10.6,10.6,0,0,0,4.71-.92q1.77-.91,1.77-3.54a4.64,4.64,0,0,0-.58-2.48,3.14,3.14,0,0,0-1.74-1.34,9.29,9.29,0,0,0-2.14-.52,19,19,0,0,0-2.5-.13Zm0,17.85v9.9h3.51a16.65,16.65,0,0,0,2-.12,8,8,0,0,0,2.17-.43c.56-.25,1.11-.53,1.65-.83A3.17,3.17,0,0,0,264,35.7a5.27,5.27,0,0,0,.39-2.11,6.52,6.52,0,0,0-.18-1.65,2.57,2.57,0,0,0-.64-1.22l-.83-.89a2.27,2.27,0,0,0-1.19-.61c-.42-.1-.84-.23-1.25-.37a6.31,6.31,0,0,0-1.5-.21l-1.41-.06Z"/><path class="cls-1" d="M309,39.64H292.5l-3.18,8H276.64L294.37,1.57h13.07L324.8,47.65H312Zm-3.24-9.17-4.88-14.66h-.13L295.8,30.47Z"/><path class="cls-2" d="M136.52,55.1l-4.77,9.28a12.2,12.2,0,0,0-8-3,6.26,6.26,0,0,0-3.51,1,3.18,3.18,0,0,0-1.54,2.8,3,3,0,0,0,1,2.2,6.31,6.31,0,0,0,1.89,1.34c.59.25,1.4.53,2.42.86l3,.92a19.83,19.83,0,0,1,8.41,4.5c2,1.92,3,4.61,3,8.09q0,8.37-4.77,12.41-5.13,4.32-13.07,4.34a27.71,27.71,0,0,1-16.2-5.26L109.51,85q5.43,4.77,10.64,4.76a7.14,7.14,0,0,0,4.06-1.19,4,4,0,0,0,1.73-3.5c0-2.08-1.94-3.69-5.8-4.83l-1.44-.42A48.11,48.11,0,0,1,113.48,78a17.2,17.2,0,0,1-3.78-2.2,7.72,7.72,0,0,1-2.7-3.6,16,16,0,0,1-.8-5.44,14.74,14.74,0,0,1,4.49-11.21,15.84,15.84,0,0,1,11.43-4.24,28.25,28.25,0,0,1,7.43,1A28.62,28.62,0,0,1,136.52,55.1Z"/><path class="cls-2" d="M160.47,62.67V98.61h-12V62.67h-9.9V52.53h31.78V62.67Z"/><path class="cls-2" d="M183.45,54a27.71,27.71,0,0,1,24.93,0,24.22,24.22,0,0,1,9.41,8.47,21.94,21.94,0,0,1,3.61,12.28q0,11.19-7.18,18.31t-18.3,7.11q-11.13,0-18.31-7.11t-7.18-18.31A21.8,21.8,0,0,1,174,62.43,24.16,24.16,0,0,1,183.45,54Zm21.63,12.32a13.27,13.27,0,0,0-18.33,0,11.31,11.31,0,0,0-3.85,8.49,13.62,13.62,0,0,0,3.8,9.81,12.8,12.8,0,0,0,18.06.39l.39-.39a13.67,13.67,0,0,0,3.79-9.81,11.44,11.44,0,0,0-3.86-8.53Z"/><path class="cls-2" d="M248.84,79.72l14.48,18.89H248.41l-11.3-17.73H237V98.61H225V52.53h17.91q7.22,0,11.61,3.54t4.4,10.64a14.1,14.1,0,0,1-2.66,8.55A11.35,11.35,0,0,1,248.84,79.72ZM237,61.72V73.18h1.16q8.31,0,8.31-5.74t-8.31-5.75Z"/><path class="cls-2" d="M292.84,90.6h-16.5l-3.18,8H260.45l17.72-46.08h13.08L308.61,98.6H295.83Zm-3.24-9.17-4.9-14.66h-.12l-4.95,14.66Z"/><path class="cls-2" d="M332.56,72.88h23.77a55.76,55.76,0,0,1-1,10.14,22,22,0,0,1-3.7,8.07q-6.48,9-19,9-10.87,0-17.72-6.75t-6.84-17.57q0-11.17,6.9-18T333.05,51a23.54,23.54,0,0,1,12.53,3.24,21.21,21.21,0,0,1,8.25,9.66l-11.37,4.76a11.74,11.74,0,0,0-3.85-5.38,9.76,9.76,0,0,0-6.11-2,10.2,10.2,0,0,0-8.77,4.4,16.7,16.7,0,0,0-3.21,10.14,16.38,16.38,0,0,0,3.27,10.09,11.45,11.45,0,0,0,15.56,2.26,8.23,8.23,0,0,0,3-5.93h-9.78Z"/><path class="cls-2" d="M386.1,62.67H371.86v7.7h13.5V80.52h-13.5v7.94H386.1V98.61H359.88V52.53H386.1Z"/></g></g></g></g><g id="Layer_2-3" data-name="Layer 2-3"><g id="Layer_1-2-3" data-name="Layer 1-2-3"><path class="cls-3" d="M72.9,78.81l-1.2,7.7h6.7L77,78.81a5.91,5.91,0,0,0,4-5.7c0-4.5-3.2-6.1-6.1-6.1a6,6,0,0,0-6.1,5.9h0v.4c0,4.3,4,5.4,4.1,5.5m23.21-26.9H53.87a3,3,0,0,0-3,3V97.24a3,3,0,0,0,3,3H96.22a3,3,0,0,0,3-3l-.08-42.37a3,3,0,0,0-3-3Z"/><path class="cls-2" d="M45.23,24.61H3a3,3,0,0,0-3,3V97.24a3,3,0,0,0,3,3H45.23a3,3,0,0,0,3-3V27.58A3,3,0,0,0,45.23,24.61Z"/><path class="cls-2" d="M96,.9H53.76a3,3,0,0,0-3,3h0V46.45a3,3,0,0,0,3,3H96a3,3,0,0,0,3-3V3.87A3,3,0,0,0,96,.9Z"/></g></g></g></g></g></g></svg>