<svg xmlns="http://www.w3.org/2000/svg" width="99.22" height="99.34" viewBox="0 0 99.22 99.34"><defs><style>.cls-1{fill:#f7f3ed;fill-rule:evenodd;}.cls-2{fill:#ffa41c;}</style></defs><g id="Layer_2" data-name="Layer 2"><g id="Layer_1-2" data-name="Layer 1"><g id="Layer_2-2" data-name="Layer 2"><g id="Layer_1-2-2" data-name="Layer 1-2"><g id="Layer_2-3" data-name="Layer 2-3"><g id="Layer_1-2-3" data-name="Layer 1-2-3"><path class="cls-1" d="M72.9,77.91l-1.2,7.7h6.7L77,77.91a5.9,5.9,0,0,0,4-5.7c0-4.5-3.2-6.1-6.1-6.1A6,6,0,0,0,68.8,72h0v.4c0,4.3,4,5.4,4.1,5.5M96.11,51H53.87a3,3,0,0,0-3,3V96.34a3,3,0,0,0,3,3H96.22a3,3,0,0,0,3-3L99.14,54a3,3,0,0,0-3-3Z"/><path class="cls-2" d="M45.23,23.71H3a3,3,0,0,0-3,3V96.34a3,3,0,0,0,3,3H45.23a3,3,0,0,0,3-3V26.68A3,3,0,0,0,45.23,23.71Z"/><path class="cls-2" d="M96,0H53.76a3,3,0,0,0-3,3h0V45.55a3,3,0,0,0,3,3H96a3,3,0,0,0,3-3V3A3,3,0,0,0,96,0Z"/></g></g></g></g></g></g></svg>