<?xml version="1.0" encoding="utf-8"?>
<!-- Generator: Adobe Illustrator 24.2.1, SVG Export Plug-In . SVG Version: 6.00 Build 0)  -->
<svg version="1.1" id="Layer_1" xmlns="http://www.w3.org/2000/svg" xmlns:xlink="http://www.w3.org/1999/xlink" x="0px" y="0px"
	 viewBox="0 0 386.4 100.1" style="enable-background:new 0 0 386.4 100.1;" xml:space="preserve">
<style type="text/css">
	.st0{fill:#FF4828;}
	.st1{fill:#FFF9F8;}
	.st2{fill-rule:evenodd;clip-rule:evenodd;fill:#FFF9F8;}
</style>
<g id="Layer_2_1_">
	<g id="Layer_1-2">
		<g id="Layer_2-2">
			<g id="Layer_1-2-2">
				<path class="st0" d="M94.4,44h-38V6h38V44z M99.5,0.8H51.3v48.3h48.2V0.8z"/>
				<path class="st1" d="M94.4,95h-38V56.9h38V95z M99.6,51.8H51.3v48.3h48.2L99.6,51.8z"/>
				<path class="st0" d="M43.5,95h-38V29.6h38V95z M48.7,24.5H0.4v75.6h48.2L48.7,24.5z"/>
				<path class="st2" d="M73.3,78.7l-1.2,7.7h6.7l-1.4-7.7c2.5-0.8,4.1-3.2,4-5.8c0-4.5-3.2-6.1-6.1-6.1c-3.3-0.1-6.1,2.6-6.1,5.9
					c0,0,0,0,0,0c0,0.1,0,0.3,0,0.4C69.2,77.5,73.2,78.6,73.3,78.7"/>
				<path class="st1" d="M129.6,21.9h23.8c0,3.4-0.4,6.8-1,10.1c-0.7,2.9-1.9,5.7-3.7,8.1c-4.3,6-10.7,9-19,9
					c-7.3,0-13.2-2.3-17.7-6.8s-6.8-10.4-6.8-17.6c0-7.5,2.3-13.5,6.9-18s10.6-6.8,18-6.8c4.4-0.1,8.7,1,12.5,3.2
					c3.7,2.3,6.6,5.7,8.3,9.6l-11.4,4.8c-0.7-2.1-2.1-4-3.9-5.4c-1.8-1.3-3.9-2-6.1-1.9c-3.5-0.1-6.8,1.5-8.8,4.4
					c-2.1,2.9-3.3,6.5-3.2,10.1c-0.1,3.7,1.1,7.2,3.3,10.2c3.8,4.8,10.6,5.7,15.6,2.2c1.8-1.5,2.9-3.6,3-5.9h-9.8L129.6,21.9z"/>
				<path class="st1" d="M185.2,39.6h-16.5l-3.2,8h-12.7l17.7-46.1h13.1l17.4,46.1h-12.8L185.2,39.6z M181.9,30.4L177,15.7h-0.1
					L172,30.4L181.9,30.4z"/>
				<path class="st1" d="M221.2,47.6h-18.4V1.5h17.1c9.1,0,13.7,4,13.7,12c0,4.6-1.7,7.7-5.1,9.4v0c6.3,0.8,9.4,4.7,9.4,11.7
					c0,2.1-0.4,4.2-1.4,6c-0.9,1.7-2.2,3-3.8,4c-1.6,1-3.4,1.7-5.3,2.1C225.3,47.3,223.2,47.6,221.2,47.6z M214.7,10.7v8.9h1.4
					c1.6,0.1,3.2-0.3,4.7-0.9c1.2-0.6,1.8-1.8,1.8-3.5c0-0.9-0.2-1.7-0.6-2.5c-0.4-0.6-1-1.1-1.8-1.3c-0.7-0.3-1.4-0.4-2.1-0.5
					c-0.8-0.1-1.7-0.1-2.5-0.1H214.7z M214.7,28.5v9.9h3.5c0.7,0,1.3,0,2-0.1c0.7,0,1.5-0.2,2.2-0.4c0.6-0.3,1.1-0.5,1.6-0.8
					c0.6-0.3,1.1-0.8,1.4-1.4c0.3-0.7,0.4-1.4,0.4-2.1c0-0.6,0-1.1-0.2-1.7c-0.1-0.5-0.3-0.9-0.6-1.2l-0.8-0.9
					c-0.3-0.3-0.8-0.5-1.2-0.6c-0.4-0.1-0.8-0.2-1.3-0.4c-0.5-0.1-1-0.2-1.5-0.2l-1.4-0.1L214.7,28.5L214.7,28.5z"/>
				<path class="st1" d="M260.6,47.6h-18.5V1.5h17.1c9.1,0,13.7,4,13.7,12c0,4.6-1.7,7.7-5.1,9.4v0c6.3,0.8,9.4,4.7,9.4,11.7
					c0,2.1-0.4,4.1-1.4,6c-0.9,1.7-2.2,3-3.8,4c-1.6,1-3.4,1.7-5.3,2.1C264.7,47.3,262.7,47.6,260.6,47.6z M254.1,10.7v8.9h1.3
					c1.6,0.1,3.2-0.2,4.7-0.9c1.2-0.6,1.8-1.8,1.8-3.5c0-0.9-0.2-1.7-0.6-2.5c-0.4-0.6-1-1.1-1.7-1.3c-0.7-0.3-1.4-0.4-2.1-0.5
					c-0.8-0.1-1.7-0.1-2.5-0.1H254.1z M254.1,28.5v9.9h3.5c0.7,0,1.3,0,2-0.1c0.7,0,1.5-0.2,2.2-0.4c0.6-0.3,1.1-0.5,1.6-0.8
					c0.6-0.3,1.1-0.8,1.4-1.4c0.3-0.7,0.4-1.4,0.4-2.1c0-0.6,0-1.1-0.2-1.7c-0.1-0.5-0.3-0.9-0.6-1.2l-0.8-0.9
					c-0.3-0.3-0.7-0.5-1.2-0.6c-0.4-0.1-0.8-0.2-1.3-0.4c-0.5-0.1-1-0.2-1.5-0.2l-1.4-0.1L254.1,28.5L254.1,28.5z"/>
				<path class="st1" d="M309.8,39.6h-16.5l-3.2,8h-12.7l17.7-46.1h13.1l17.4,46.1h-12.8L309.8,39.6z M306.5,30.4l-4.9-14.7h-0.1
					l-5,14.7H306.5z"/>
				<path class="st0" d="M137.3,55l-4.8,9.3c-2.2-1.9-5.1-3-8-3c-1.2,0-2.5,0.3-3.5,1c-1,0.6-1.6,1.7-1.5,2.8c0,0.8,0.4,1.6,1,2.2
					c0.5,0.6,1.2,1,1.9,1.3c0.6,0.3,1.4,0.5,2.4,0.9l3,0.9c3.1,0.8,6,2.4,8.4,4.5c2,1.9,3,4.6,3,8.1c0,5.6-1.6,9.7-4.8,12.4
					c-3.4,2.9-7.8,4.3-13.1,4.3c-5.8,0-11.5-1.8-16.2-5.3l5.1-9.7c3.6,3.2,7.2,4.8,10.6,4.8c1.4,0,2.9-0.4,4.1-1.2
					c1.2-0.8,1.8-2.1,1.7-3.5c0-2.1-1.9-3.7-5.8-4.8l-1.4-0.4c-1.8-0.5-3.5-1.1-5.2-1.8c-1.3-0.6-2.6-1.3-3.8-2.2
					c-1.2-0.9-2.2-2.2-2.7-3.6c-0.6-1.8-0.8-3.6-0.8-5.4c-0.2-4.2,1.5-8.3,4.5-11.2c3.1-2.9,7.2-4.4,11.4-4.2c2.5,0,5,0.3,7.4,1
					C132.7,52.9,135.1,53.8,137.3,55z"/>
				<path class="st0" d="M161.2,62.6v35.9h-12V62.6h-9.9V52.5h31.8v10.1H161.2z"/>
				<path class="st0" d="M184.2,53.9c7.8-3.9,17.1-3.9,24.9,0c3.8,1.9,7.1,4.9,9.4,8.5c2.4,3.6,3.7,7.9,3.6,12.3
					c0,7.5-2.4,13.6-7.2,18.3c-4.8,4.7-10.9,7.1-18.3,7.1c-7.4,0-13.5-2.4-18.3-7.1c-4.8-4.7-7.2-10.8-7.2-18.3
					c0-4.4,1.2-8.6,3.6-12.3C177.1,58.8,180.4,55.8,184.2,53.9z M205.8,66.2c-5.1-4.9-13.2-4.9-18.3,0c-2.4,2.1-3.8,5.2-3.9,8.5
					c-0.1,3.6,1.3,7.2,3.8,9.8c4.9,5.1,13,5.3,18.1,0.4l0.4-0.4c2.5-2.6,3.9-6.2,3.8-9.8C209.7,71.5,208.3,68.4,205.8,66.2z"/>
				<path class="st0" d="M249.6,79.7l14.5,18.9h-14.9l-11.3-17.7h-0.1v17.7h-12V52.5h17.9c4.8,0,8.7,1.2,11.6,3.5
					c2.9,2.4,4.4,5.9,4.4,10.6c0.1,3.1-0.9,6.1-2.7,8.6C255.2,77.6,252.5,79.2,249.6,79.7z M237.7,61.7v11.5h1.2
					c5.5,0,8.3-1.9,8.3-5.7s-2.8-5.7-8.3-5.8L237.7,61.7z"/>
				<path class="st0" d="M293.6,90.5h-16.5l-3.2,8h-12.7l17.7-46.1H292l17.4,46.1h-12.8L293.6,90.5z M290.3,81.4l-4.9-14.7h-0.1
					l-5,14.7H290.3z"/>
				<path class="st0" d="M333.3,72.8h23.8c0,3.4-0.4,6.8-1,10.1c-0.7,2.9-1.9,5.7-3.7,8.1c-4.3,6-10.7,9-19,9
					c-7.2,0-13.2-2.3-17.7-6.8s-6.8-10.4-6.8-17.6c0-7.4,2.3-13.4,6.9-18s10.6-6.8,18.1-6.7c4.4-0.1,8.7,1,12.5,3.2
					c3.7,2.3,6.6,5.7,8.3,9.7l-11.4,4.8c-0.7-2.1-2.1-4-3.9-5.4c-1.8-1.3-3.9-2-6.1-2c-3.5-0.1-6.8,1.5-8.8,4.4
					c-2.1,2.9-3.3,6.5-3.2,10.1c-0.1,3.6,1.1,7.2,3.3,10.1c3.8,4.8,10.6,5.7,15.6,2.3c1.8-1.5,2.9-3.6,3-5.9h-9.8L333.3,72.8z"/>
				<path class="st0" d="M386.8,62.6h-14.2v7.7h13.5v10.2h-13.5v7.9h14.2v10.2h-26.2V52.5h26.2V62.6z"/>
			</g>
		</g>
	</g>
</g>
</svg>
