<svg xmlns="http://www.w3.org/2000/svg" width="386.4" height="100.12" viewBox="0 0 386.4 100.12"><defs><style>.cls-1{fill:#ff4828;}.cls-2,.cls-3{fill:#3f3131;}.cls-3{fill-rule:evenodd;}</style></defs><g id="Layer_2" data-name="Layer 2"><g id="Layer_1-2" data-name="Layer 1"><g id="Layer_2-2" data-name="Layer 2"><g id="Layer_1-2-2" data-name="Layer 1-2"><path class="cls-1" d="M94,44H56V6H94ZM99.11.83H50.86V49.14H99.11Z"/><path class="cls-2" d="M94,95H56V56.91H94Zm5.12-43.19H50.86v48.3H99.11Z"/><path class="cls-1" d="M43.1,95H5.1V29.65h38Zm5.12-70.46H0v75.57H48.22Z"/><path class="cls-3" d="M72.91,78.75l-1.18,7.67h6.69L77,78.75A5.89,5.89,0,0,0,81,73c0-4.53-3.2-6.1-6.1-6.1a6,6,0,0,0-6.12,5.88c0,.14,0,.28,0,.42,0,4.29,4,5.39,4.14,5.51"/><path class="cls-2" d="M129.18,21.89H153A54.8,54.8,0,0,1,152,32a21.51,21.51,0,0,1-3.7,8.07q-6.48,9-19,9-10.89,0-17.73-6.75t-6.84-17.57q0-11.18,6.91-18t18-6.77a23.54,23.54,0,0,1,12.53,3.24,21.19,21.19,0,0,1,8.25,9.65l-11.36,4.77a11.81,11.81,0,0,0-3.85-5.38,9.8,9.8,0,0,0-6.11-1.95,10.22,10.22,0,0,0-8.77,4.4,16.77,16.77,0,0,0-3.21,10.14A16.37,16.37,0,0,0,120.41,35,11.45,11.45,0,0,0,136,37.23a8.14,8.14,0,0,0,3-5.93h-9.77Z"/><path class="cls-2" d="M184.73,39.61h-16.5l-3.18,8H152.34L170.06,1.54h13.08l17.35,46.08H187.72Zm-3.24-9.17L176.6,15.78h-.12l-4.95,14.66Z"/><path class="cls-2" d="M220.72,47.62H202.27V1.54h17.11q13.68,0,13.69,12,0,6.84-5.08,9.41V23q9.42,1.21,9.42,11.73a12.42,12.42,0,0,1-1.41,6,10.48,10.48,0,0,1-3.82,4,18.86,18.86,0,0,1-5.26,2.1A27,27,0,0,1,220.72,47.62ZM214.24,10.7v8.93h1.35a10.4,10.4,0,0,0,4.7-.92c1.18-.61,1.78-1.79,1.78-3.54a4.66,4.66,0,0,0-.58-2.48,3.09,3.09,0,0,0-1.75-1.34,9.83,9.83,0,0,0-2.14-.52,19,19,0,0,0-2.5-.13Zm0,17.85v9.9h3.52a15.65,15.65,0,0,0,2-.12,7.67,7.67,0,0,0,2.17-.43c.56-.25,1.11-.53,1.65-.83a3.05,3.05,0,0,0,1.35-1.4,5.1,5.1,0,0,0,.39-2.11,6.52,6.52,0,0,0-.18-1.65,2.57,2.57,0,0,0-.64-1.22l-.82-.89a2.5,2.5,0,0,0-1.2-.61c-.42-.1-.84-.23-1.25-.37a6.31,6.31,0,0,0-1.5-.21l-1.4-.06h-4.09Z"/><path class="cls-2" d="M260.14,47.62H241.68V1.54h17.11q13.69,0,13.69,12,0,6.84-5.07,9.41V23q9.4,1.21,9.41,11.73a12.52,12.52,0,0,1-1.4,6,10.48,10.48,0,0,1-3.82,4,18.86,18.86,0,0,1-5.26,2.1A27,27,0,0,1,260.14,47.62ZM253.66,10.7v8.93H255a10.33,10.33,0,0,0,4.71-.92q1.77-.91,1.77-3.54a4.64,4.64,0,0,0-.58-2.48,3.14,3.14,0,0,0-1.74-1.34,9.83,9.83,0,0,0-2.14-.52,19,19,0,0,0-2.5-.13Zm0,17.85v9.9h3.51a15.57,15.57,0,0,0,2-.12,7.67,7.67,0,0,0,2.17-.43c.56-.25,1.11-.53,1.65-.83a3.05,3.05,0,0,0,1.35-1.4,5.1,5.1,0,0,0,.39-2.11,6.52,6.52,0,0,0-.18-1.65,2.57,2.57,0,0,0-.64-1.22l-.83-.89a2.35,2.35,0,0,0-1.19-.61c-.42-.1-.84-.23-1.25-.37a6.31,6.31,0,0,0-1.5-.21l-1.41-.06h-4.07Z"/><path class="cls-2" d="M309.33,39.61h-16.5l-3.18,8H276.94L294.67,1.54h13.07L325.1,47.62H312.33Zm-3.24-9.17-4.88-14.66h-.13l-4.95,14.66Z"/><path class="cls-1" d="M136.82,55.07l-4.77,9.28a12.21,12.21,0,0,0-8-3,6.34,6.34,0,0,0-3.51,1A3.2,3.2,0,0,0,119,65.15a3,3,0,0,0,1,2.2,6.31,6.31,0,0,0,1.89,1.34c.59.25,1.4.53,2.42.86l3,.92A19.85,19.85,0,0,1,135.72,75q3,2.88,3,8.09,0,8.37-4.77,12.41-5.13,4.32-13.07,4.34a27.71,27.71,0,0,1-16.2-5.26l5.13-9.65q5.44,4.77,10.64,4.76a7.07,7.07,0,0,0,4.06-1.19,3.91,3.91,0,0,0,1.73-3.5q0-3.12-5.8-4.83L119,79.75A47.67,47.67,0,0,1,113.78,78a17.2,17.2,0,0,1-3.78-2.2,7.78,7.78,0,0,1-2.69-3.63,16,16,0,0,1-.8-5.44A14.77,14.77,0,0,1,111,55.52a15.9,15.9,0,0,1,11.43-4.24,28.67,28.67,0,0,1,7.43,1A29.12,29.12,0,0,1,136.82,55.07Z"/><path class="cls-1" d="M160.77,62.64V98.58h-12V62.64h-9.9V52.5h31.78V62.64Z"/><path class="cls-1" d="M183.75,53.93a27.71,27.71,0,0,1,24.93,0,24.22,24.22,0,0,1,9.41,8.47,21.86,21.86,0,0,1,3.61,12.28q0,11.19-7.18,18.31t-18.3,7.11q-11.13,0-18.31-7.11t-7.18-18.31a21.86,21.86,0,0,1,3.61-12.28A24.22,24.22,0,0,1,183.75,53.93Zm21.63,12.32a13.27,13.27,0,0,0-18.33,0,11.36,11.36,0,0,0-3.85,8.49,13.62,13.62,0,0,0,3.8,9.81,12.78,12.78,0,0,0,18.06.39l.39-.39a13.61,13.61,0,0,0,3.79-9.81A11.41,11.41,0,0,0,205.38,66.25Z"/><path class="cls-1" d="M249.14,79.69l14.48,18.89H248.71l-11.3-17.73h-.13V98.58h-12V52.5h17.91q7.22,0,11.61,3.54t4.4,10.64a14,14,0,0,1-2.66,8.55A11.31,11.31,0,0,1,249.14,79.69Zm-11.86-18V73.15h1.16q8.31,0,8.31-5.74t-8.31-5.75Z"/><path class="cls-1" d="M293.14,90.57h-16.5l-3.18,8H260.75l17.72-46.08h13.08l17.36,46.08H296.13ZM289.9,81.4,285,66.74h-.12L279.93,81.4Z"/><path class="cls-1" d="M332.86,72.85h23.77a54.8,54.8,0,0,1-1,10.14,21.65,21.65,0,0,1-3.7,8.07q-6.48,9-19,9-10.87,0-17.72-6.75t-6.84-17.57q0-11.17,6.9-18T333.35,51a23.54,23.54,0,0,1,12.53,3.24,21.21,21.21,0,0,1,8.25,9.66l-11.37,4.76a11.74,11.74,0,0,0-3.85-5.38,9.76,9.76,0,0,0-6.11-2,10.26,10.26,0,0,0-8.77,4.4,16.77,16.77,0,0,0-3.21,10.14,16.38,16.38,0,0,0,3.27,10.09,11.45,11.45,0,0,0,15.56,2.26,8.14,8.14,0,0,0,3-5.93h-9.78Z"/><path class="cls-1" d="M386.4,62.64H372.16v7.7h13.5V80.49h-13.5v7.94H386.4V98.58H360.18V52.5H386.4Z"/></g></g></g></g></svg>