<svg xmlns="http://www.w3.org/2000/svg" width="99.12" height="99.29" viewBox="0 0 99.12 99.29"><defs><style>.cls-1{fill:#ff7415;}.cls-2,.cls-3{fill:#3f3131;}.cls-3{fill-rule:evenodd;}</style></defs><g id="Layer_2" data-name="Layer 2"><g id="Layer_1-2" data-name="Layer 1"><path class="cls-1" d="M94,43.18H56V5.12H94ZM99.11,0H50.86V48.31H99.11Z"/><path class="cls-2" d="M94,94.18H56V56.08H94ZM99.12,51H50.86v48.3H99.11Z"/><path class="cls-1" d="M43.1,94.18H5.1V28.82h38Zm5.12-70.46H0V99.29H48.22Z"/><path class="cls-3" d="M72.91,77.92l-1.18,7.67h6.69L77,77.92a5.89,5.89,0,0,0,4-5.74c0-4.53-3.2-6.1-6.1-6.1A6,6,0,0,0,68.78,72c0,.14,0,.28,0,.42,0,4.29,4,5.39,4.14,5.51"/></g></g></svg>