<svg xmlns="http://www.w3.org/2000/svg" width="386.4" height="100.09" viewBox="0 0 386.4 100.09"><defs><style>.cls-1{fill:#ff7415;}.cls-2,.cls-3{fill:#3f3131;}.cls-3{fill-rule:evenodd;}</style></defs><title>Asset 4</title><g id="Layer_2" data-name="Layer 2"><g id="Layer_1-2" data-name="Layer 1"><path class="cls-1" d="M94,44H56V5.94H94ZM99.11.82H50.86V49.13H99.11Z"/><path class="cls-2" d="M94,95H56V56.9H94Zm5.12-43.19H50.86v48.3H99.11Z"/><path class="cls-1" d="M43.1,95h-38V29.64h38Zm5.12-70.46H0v75.57H48.22Z"/><path class="cls-3" d="M72.91,78.74l-1.18,7.67h6.69L77,78.74A5.89,5.89,0,0,0,81,73c0-4.53-3.2-6.1-6.1-6.1a6,6,0,0,0-6.11,6.3c0,4.29,4,5.39,4.14,5.51"/><path class="cls-2" d="M129.18,21.88H153a54.8,54.8,0,0,1-1,10.14,21.41,21.41,0,0,1-3.7,8.07q-6.48,9-19,9-10.89,0-17.73-6.75t-6.84-17.57q0-11.17,6.91-18T129.66,0a23.59,23.59,0,0,1,12.53,3.24,21.23,21.23,0,0,1,8.25,9.65l-11.36,4.77a11.84,11.84,0,0,0-3.85-5.38,9.83,9.83,0,0,0-6.11-1.95,10.24,10.24,0,0,0-8.77,4.4,16.74,16.74,0,0,0-3.21,10.14A16.33,16.33,0,0,0,120.41,35a10.53,10.53,0,0,0,8.89,4.33A10.43,10.43,0,0,0,136,37.22a8.16,8.16,0,0,0,3-5.93h-9.77Z"/><path class="cls-2" d="M184.73,39.6h-16.5l-3.18,8H152.34L170.06,1.53h13.08l17.35,46.08H187.72Zm-3.24-9.17L176.6,15.77h-.12l-4.95,14.66Z"/><path class="cls-2" d="M220.72,47.61H202.27V1.53h17.11q13.68,0,13.69,12,0,6.84-5.08,9.41V23q9.42,1.22,9.42,11.73a12.35,12.35,0,0,1-1.41,6,10.39,10.39,0,0,1-3.82,4,18.51,18.51,0,0,1-5.26,2.1A26.77,26.77,0,0,1,220.72,47.61Zm-6.48-36.92v8.93h1.35a10.28,10.28,0,0,0,4.7-.92c1.18-.61,1.78-1.79,1.78-3.54a4.76,4.76,0,0,0-.58-2.48,3.15,3.15,0,0,0-1.75-1.34,10.19,10.19,0,0,0-2.14-.52,20.84,20.84,0,0,0-2.5-.13Zm0,17.85v9.9h3.52c.34,0,1,0,2-.12a7.37,7.37,0,0,0,2.17-.43,18.19,18.19,0,0,0,1.65-.83,3,3,0,0,0,1.35-1.4,5.2,5.2,0,0,0,.39-2.11,7,7,0,0,0-.18-1.65,2.6,2.6,0,0,0-.64-1.22l-.82-.89a2.5,2.5,0,0,0-1.2-.61,12.31,12.31,0,0,1-1.25-.37,6.17,6.17,0,0,0-1.5-.21l-1.4-.06h-4.07Z"/><path class="cls-2" d="M260.14,47.61H241.68V1.53h17.11q13.69,0,13.69,12,0,6.84-5.07,9.41V23q9.4,1.22,9.41,11.73a12.46,12.46,0,0,1-1.4,6,10.39,10.39,0,0,1-3.82,4,18.51,18.51,0,0,1-5.26,2.1A26.77,26.77,0,0,1,260.14,47.61Zm-6.48-36.92v8.93H255a10.3,10.3,0,0,0,4.71-.92q1.77-.91,1.77-3.54a4.67,4.67,0,0,0-.58-2.48,3.16,3.16,0,0,0-1.74-1.34,10.34,10.34,0,0,0-2.14-.52,21,21,0,0,0-2.5-.13Zm0,17.85v9.9h3.51c.35,0,1,0,2-.12a7.37,7.37,0,0,0,2.17-.43,18.19,18.19,0,0,0,1.65-.83,3,3,0,0,0,1.35-1.4,5.2,5.2,0,0,0,.39-2.11,7,7,0,0,0-.18-1.65,2.7,2.7,0,0,0-.64-1.22l-.83-.89a2.41,2.41,0,0,0-1.19-.61,11.56,11.56,0,0,1-1.25-.37,6.26,6.26,0,0,0-1.5-.21l-1.41-.06h-4.06Z"/><path class="cls-2" d="M309.33,39.6h-16.5l-3.18,8H276.94L294.67,1.53h13.07L325.1,47.61H312.33Zm-3.24-9.17-4.88-14.66h-.13l-4.95,14.66Z"/><path class="cls-1" d="M136.82,55.06l-4.77,9.28a12.21,12.21,0,0,0-8-3.05,6.4,6.4,0,0,0-3.51,1A3.19,3.19,0,0,0,119,65.14a3,3,0,0,0,1,2.2,6.2,6.2,0,0,0,1.89,1.34c.59.25,1.4.53,2.42.86l3,.92A19.91,19.91,0,0,1,135.72,75q3,2.89,3,8.09,0,8.38-4.77,12.41-5.13,4.33-13.07,4.34a27.68,27.68,0,0,1-16.2-5.26l5.13-9.65q5.45,4.77,10.64,4.76a7,7,0,0,0,4.06-1.19A3.91,3.91,0,0,0,126.24,85q0-3.12-5.8-4.83L119,79.74A44.94,44.94,0,0,1,113.78,78,17.21,17.21,0,0,1,110,75.8a7.74,7.74,0,0,1-2.69-3.63,16.14,16.14,0,0,1-.8-5.44A14.8,14.8,0,0,1,111,55.51a15.92,15.92,0,0,1,11.43-4.24,28.93,28.93,0,0,1,7.43,1A29.36,29.36,0,0,1,136.82,55.06Z"/><path class="cls-1" d="M160.77,62.63V98.57h-12V62.63h-9.9V52.49h31.78V62.63Z"/><path class="cls-1" d="M183.75,53.92a27.73,27.73,0,0,1,24.93,0,24.28,24.28,0,0,1,9.41,8.47,21.88,21.88,0,0,1,3.61,12.28q0,11.19-7.18,18.31t-18.3,7.11q-11.13,0-18.31-7.11t-7.18-18.31a21.88,21.88,0,0,1,3.61-12.28A24.28,24.28,0,0,1,183.75,53.92Zm21.63,12.32a13.28,13.28,0,0,0-18.33,0,11.39,11.39,0,0,0-3.85,8.49A13.59,13.59,0,0,0,187,84.54a12.77,12.77,0,0,0,18.45,0,13.59,13.59,0,0,0,3.79-9.81A11.39,11.39,0,0,0,205.38,66.24Z"/><path class="cls-1" d="M249.14,79.68l14.48,18.89H248.71l-11.3-17.73h-.13V98.57h-12V52.49h17.91q7.22,0,11.61,3.54t4.4,10.64a14,14,0,0,1-2.66,8.55A11.27,11.27,0,0,1,249.14,79.68Zm-11.86-18V73.14h1.16q8.31,0,8.31-5.74t-8.31-5.75Z"/><path class="cls-1" d="M293.14,90.56h-16.5l-3.18,8H260.75l17.72-46.08h13.08l17.36,46.08H296.13Zm-3.24-9.17L285,66.73h-.12l-4.95,14.66Z"/><path class="cls-1" d="M332.86,72.84h23.77a54.88,54.88,0,0,1-1,10.14,21.56,21.56,0,0,1-3.7,8.07q-6.48,9-19,9-10.87,0-17.72-6.75t-6.84-17.57q0-11.17,6.9-18T333.35,51a23.62,23.62,0,0,1,12.53,3.24,21.32,21.32,0,0,1,8.25,9.66l-11.37,4.76a11.77,11.77,0,0,0-3.85-5.38,9.81,9.81,0,0,0-6.11-2,10.28,10.28,0,0,0-8.77,4.4,16.74,16.74,0,0,0-3.21,10.14,16.33,16.33,0,0,0,3.27,10.09,11.45,11.45,0,0,0,15.56,2.26,8.16,8.16,0,0,0,3-5.93h-9.78Z"/><path class="cls-1" d="M386.4,62.63H372.16v7.7h13.5V80.48h-13.5v7.94H386.4V98.57H360.18V52.49H386.4Z"/></g></g></svg>