<svg xmlns="http://www.w3.org/2000/svg" width="371.89" height="138.16" viewBox="0 0 371.89 138.16"><defs><style>.cls-1{fill:#3a3737;}.cls-2{fill:#ff8120;}.cls-3{fill:none;stroke:#3a3737;stroke-miterlimit:10;stroke-width:10px;}</style></defs><title>Asset 1</title><g id="Layer_2" data-name="Layer 2"><g id="Layer_1-2" data-name="Layer 1"><path class="cls-1" d="M32.05,31.64h31.1a72.34,72.34,0,0,1-1.32,13.27A28.09,28.09,0,0,1,57,55.46Q48.52,67.3,32.13,67.29,17.91,67.29,9,58.46T0,35.48Q0,20.86,9,11.94T32.69,3A30.94,30.94,0,0,1,49.08,7.26,27.86,27.86,0,0,1,59.87,19.89L45,26.13a15.37,15.37,0,0,0-5-7,12.87,12.87,0,0,0-8-2.56A13.43,13.43,0,0,0,20.5,22.29a22,22,0,0,0-4.19,13.27,21.33,21.33,0,0,0,4.27,13.19,13.79,13.79,0,0,0,11.63,5.67,13.6,13.6,0,0,0,8.72-2.72A10.67,10.67,0,0,0,44.84,44H32.05Z"/><path class="cls-1" d="M104.71,54.82H83.13L79,65.29H62.35L85.53,5h17.1l22.71,60.27H108.63Zm-4.23-12-6.4-19.18h-.16L87.45,42.83Z"/><path class="cls-1" d="M151.79,65.29H127.65V5H150q17.91,0,17.91,15.67,0,9-6.63,12.31v.16q12.3,1.61,12.31,15.35a16.28,16.28,0,0,1-1.84,7.91,13.56,13.56,0,0,1-5,5.24,24.17,24.17,0,0,1-6.87,2.75A35.09,35.09,0,0,1,151.79,65.29ZM143.32,17V28.68h1.76a13.4,13.4,0,0,0,6.15-1.2c1.55-.79,2.32-2.34,2.32-4.63a6.12,6.12,0,0,0-.76-3.24,4.13,4.13,0,0,0-2.28-1.76,14.8,14.8,0,0,0-2.79-.68,29,29,0,0,0-3.28-.16Zm0,23.34V53.3h4.6c.45,0,1.32,0,2.59-.16a9.24,9.24,0,0,0,2.84-.56,24,24,0,0,0,2.16-1.08,3.89,3.89,0,0,0,1.76-1.83,6.83,6.83,0,0,0,.52-2.76,8.92,8.92,0,0,0-.24-2.16,3.57,3.57,0,0,0-.84-1.6L155.63,42a3.25,3.25,0,0,0-1.56-.8,16.68,16.68,0,0,1-1.64-.48,8.36,8.36,0,0,0-2-.28c-.93,0-1.54-.08-1.83-.08h-5.32Z"/><path class="cls-1" d="M203.35,65.29H179.21V5h22.38Q219.5,5,219.5,20.69q0,9-6.64,12.31v.16q12.31,1.61,12.31,15.35a16.16,16.16,0,0,1-1.84,7.91,13.54,13.54,0,0,1-5,5.24,24.23,24.23,0,0,1-6.88,2.75A34.94,34.94,0,0,1,203.35,65.29ZM194.88,17V28.68h1.75a13.47,13.47,0,0,0,6.16-1.2c1.55-.79,2.32-2.34,2.32-4.63a6.12,6.12,0,0,0-.76-3.24,4.21,4.21,0,0,0-2.28-1.76,14.71,14.71,0,0,0-2.8-.68A28.65,28.65,0,0,0,196,17Zm0,23.34V53.3h4.59c.46,0,1.32,0,2.6-.16a9.3,9.3,0,0,0,2.84-.56,24,24,0,0,0,2.16-1.08,3.94,3.94,0,0,0,1.76-1.83,6.83,6.83,0,0,0,.52-2.76,8.92,8.92,0,0,0-.24-2.16,3.57,3.57,0,0,0-.84-1.6L207.19,42a3.25,3.25,0,0,0-1.56-.8,15.88,15.88,0,0,1-1.64-.48,8.46,8.46,0,0,0-2-.28c-.93,0-1.55-.08-1.84-.08h-5.31Z"/><path class="cls-1" d="M267.7,54.82H246.11L242,65.29H225.33L248.51,5h17.11l22.7,60.27H271.61Zm-4.24-12-6.4-19.18h-.16l-6.47,19.18Z"/><path class="cls-2" d="M42.37,79.24,36.13,91.4a15.89,15.89,0,0,0-10.39-4,8.33,8.33,0,0,0-4.6,1.36A4.17,4.17,0,0,0,19,92.43a3.91,3.91,0,0,0,1.32,2.88,8.35,8.35,0,0,0,2.48,1.76c.77.32,1.83.69,3.16,1.12l4,1.2a26.12,26.12,0,0,1,11,5.87q3.91,3.8,3.91,10.6,0,11-6.23,16.22-6.72,5.68-17.11,5.68A36.21,36.21,0,0,1,.32,130.88L7,118.25q7.12,6.24,13.91,6.24a9.18,9.18,0,0,0,5.32-1.56,5.14,5.14,0,0,0,2.28-4.52q0-4.08-7.6-6.31L19,111.54a60.44,60.44,0,0,1-6.79-2.24,22.77,22.77,0,0,1-5-2.92,10.2,10.2,0,0,1-3.51-4.75,21,21,0,0,1-1-7.12q0-9.11,5.83-14.67t15-5.55a37.93,37.93,0,0,1,9.71,1.36A39,39,0,0,1,42.37,79.24Z"/><path class="cls-2" d="M73.78,89.16v47H58.11v-47h-13V75.89H86.73V89.16Z"/><path class="cls-2" d="M103.91,77.77a36.22,36.22,0,0,1,32.62,0,31.75,31.75,0,0,1,12.31,11.07,28.68,28.68,0,0,1,4.71,16.06q0,14.64-9.39,23.94t-23.94,9.32q-14.55,0-23.94-9.32T86.89,104.9A28.68,28.68,0,0,1,91.6,88.84,31.75,31.75,0,0,1,103.91,77.77Zm28.3,16.1a17.4,17.4,0,0,0-24,0,14.91,14.91,0,0,0-5,11.11,17.79,17.79,0,0,0,5,12.83,16.7,16.7,0,0,0,24.14,0,17.79,17.79,0,0,0,5-12.83A14.91,14.91,0,0,0,132.21,93.87Z"/><path class="cls-2" d="M189.52,111.46l18.95,24.7H189L174.17,113H174v23.18H158.35V75.89h23.42q9.42,0,15.19,4.63t5.75,13.91a18.31,18.31,0,0,1-3.48,11.19A14.77,14.77,0,0,1,189.52,111.46ZM174,87.88v15h1.52q10.88,0,10.87-7.51t-10.87-7.51Z"/><path class="cls-2" d="M247.15,125.69H225.57l-4.15,10.47H204.79L228,75.89h17.11l22.7,60.27H251.07Zm-4.23-12-6.4-19.19h-.16l-6.47,19.19Z"/><path class="cls-2" d="M299.19,102.51h31.09A70.51,70.51,0,0,1,329,115.77a28,28,0,0,1-4.83,10.56q-8.47,11.82-24.86,11.83-14.24,0-23.18-8.84t-8.95-23q0-14.62,9-23.54t23.66-8.91a30.79,30.79,0,0,1,16.38,4.24A27.78,27.78,0,0,1,327,90.76L312.14,97a15.35,15.35,0,0,0-5-7,12.78,12.78,0,0,0-8-2.56,13.45,13.45,0,0,0-11.47,5.75,21.93,21.93,0,0,0-4.2,13.27,21.32,21.32,0,0,0,4.28,13.19,13.78,13.78,0,0,0,11.63,5.68,13.61,13.61,0,0,0,8.71-2.72,10.69,10.69,0,0,0,3.92-7.75H299.19Z"/><path class="cls-2" d="M369.29,89.16H350.67V99.23h17.66V112.5H350.67v10.39h18.62v13.27H335V75.89h34.29Z"/><rect class="cls-3" x="307.48" y="5" width="59.41" height="59.41"/><circle class="cls-1" cx="337.19" cy="29.39" r="9.79"/><polygon class="cls-1" points="337.19 19.6 332.86 51.16 341.51 51.16 337.19 19.6"/></g></g></svg>