<svg xmlns="http://www.w3.org/2000/svg" width="167.56" height="159.96" viewBox="0 0 167.56 159.96"><defs><style>.cls-1{fill:#676767;}.cls-2{fill:#ccc;}.cls-3{fill:#b4b4b4;}.cls-4{fill:#e6e6e5;}.cls-5{fill:#e0b394;}.cls-6{fill:#8da558;}.cls-7{fill:#5e9eba;}.cls-8{fill:#798c46;}.cls-9{fill:#f6cba4;}.cls-10{fill:#518da3;}.cls-11{fill:#342c2c;}</style></defs><g id="Layer_2" data-name="Layer 2"><g id="Layer_1-2" data-name="Layer 1"><circle class="cls-1" cx="39.04" cy="102.68" r="36.18"/><circle class="cls-2" cx="39.04" cy="102.68" r="18.79"/><path class="cls-3" d="M25.71,102.68A18.79,18.79,0,0,1,41.77,84.09a18.79,18.79,0,1,0,0,37.18A18.79,18.79,0,0,1,25.71,102.68Z"/><path class="cls-2" d="M144.06,145.29l.89,8.65a13.69,13.69,0,0,0,5.05-5.69,13.83,13.83,0,0,0-.32-12.63,20.42,20.42,0,0,1-1.2-17.34l6.08-15.21a20.33,20.33,0,0,1,5.56-7.68,13.87,13.87,0,0,0-4.44-23.47l.9,8.75a6.14,6.14,0,0,1-5.48,6.74h0a6.13,6.13,0,0,1-6.73-5.48l-.9-8.65A13.69,13.69,0,0,0,138.42,79a13.89,13.89,0,0,0,.32,12.63,20.42,20.42,0,0,1,1.2,17.34l-3.84,9.61-2.24,5.6a20.41,20.41,0,0,1-5.55,7.68,13.88,13.88,0,0,0-3.2,16.73,3.57,3.57,0,0,0,6.73-2h0a6.15,6.15,0,0,1,5.48-6.74,6.55,6.55,0,0,1,6.74,5.48"/><polygon class="cls-4" points="157.09 25.79 162.4 34.98 157.09 44.17 146.48 44.17 141.17 34.98 146.48 25.79 157.09 25.79"/><polygon class="cls-4" points="25.63 38.49 30.94 47.68 25.63 56.87 15.02 56.87 9.71 47.68 15.02 38.49 25.63 38.49"/><path class="cls-5" d="M49.29,68.91a8.68,8.68,0,0,1,.4-17.35,8.93,8.93,0,0,1,1.27.09Z"/><path class="cls-5" d="M127.75,68.91a8.68,8.68,0,0,0-.4-17.35,8.83,8.83,0,0,0-1.27.09Z"/><path class="cls-6" d="M106.07,100.37H71a23,23,0,0,0-23,23v33.78h81.13V123.39A23,23,0,0,0,106.07,100.37Z"/><rect class="cls-7" x="74.01" y="93.48" width="29.03" height="36.15"/><path class="cls-8" d="M85.15,100.37H71a23,23,0,0,0-23,23v33.78H62.14V123.39A23,23,0,0,1,85.15,100.37Z"/><path class="cls-9" d="M76,106.44,60.69,95.34A28.14,28.14,0,0,1,49.21,69.85l2.65-27.42A36.83,36.83,0,0,1,88.52,9.14h0a36.85,36.85,0,0,1,36.67,33.29l2.65,27.42a28.16,28.16,0,0,1-11.48,25.49l-15.28,11.1A21.37,21.37,0,0,1,76,106.44Z"/><path class="cls-5" d="M58.71,75.25a17,17,0,0,0,4,12l16,19.62a12.92,12.92,0,0,0,2.81,2.49A21.29,21.29,0,0,1,76,106.44L60.69,95.34A28.14,28.14,0,0,1,49.21,69.85l2.65-27.42A36.83,36.83,0,0,1,88,9.14c-11.54.28-24.6,11.16-25.28,22.74Z"/><path class="cls-6" d="M126.39,45.49a53.49,53.49,0,0,0-75.73,0l1.62-27.36a7.18,7.18,0,0,1,5.2-6.9l16.27-4.7L85,3.29a12.8,12.8,0,0,1,7,0l27.51,7.94a7.18,7.18,0,0,1,5.2,6.9Z"/><path class="cls-8" d="M68.53,33.66A53.13,53.13,0,0,0,50.66,45.49l1.62-27.36a7.18,7.18,0,0,1,5.2-6.9l16.27-4.7A61,61,0,0,0,68.53,33.66Z"/><path class="cls-6" d="M126.39,45.49l.14,2.37h-.09a95.48,95.48,0,0,0-75.84,0h-.09l.15-2.37A53.55,53.55,0,0,1,126.39,45.49Z"/><path class="cls-7" d="M129.08,122v35.13H113.33V128.49a23.19,23.19,0,0,1,10.86-19.64l.07-.06A20.55,20.55,0,0,1,129.08,122Z"/><path class="cls-10" d="M63.71,128.49v28.68H48V122a20.5,20.5,0,0,1,4.83-13.25l.07.06A23.21,23.21,0,0,1,63.71,128.49Z"/><path class="cls-11" d="M93.45,88.06a7.09,7.09,0,0,1-10,0,2.79,2.79,0,0,0-4,3.94A12.66,12.66,0,0,0,97.4,92a2.79,2.79,0,1,0-4-3.94Z"/><path class="cls-11" d="M71.88,62a2.79,2.79,0,0,0-2.79,2.79v4.46a2.79,2.79,0,1,0,5.58,0V64.77A2.79,2.79,0,0,0,71.88,62Z"/><path class="cls-11" d="M105,48.54A11.72,11.72,0,0,0,96.66,52a2.79,2.79,0,0,0,3.94,4,6.25,6.25,0,0,1,8.82,0,2.79,2.79,0,0,0,4,0,2.79,2.79,0,0,0,0-4A11.76,11.76,0,0,0,105,48.54Z"/><path class="cls-11" d="M80.23,52a11.84,11.84,0,0,0-16.71,0,2.79,2.79,0,0,0,3.95,4,6.25,6.25,0,0,1,8.82,0,2.78,2.78,0,0,0,3.94,0A2.79,2.79,0,0,0,80.23,52Z"/><path class="cls-11" d="M105,62a2.79,2.79,0,0,0-2.79,2.79v4.46a2.79,2.79,0,1,0,5.58,0V64.77A2.79,2.79,0,0,0,105,62Z"/><path class="cls-11" d="M88.44,81a7.08,7.08,0,0,0,7.07-7.07V60.68a2.79,2.79,0,0,0-5.58,0V73.89a1.49,1.49,0,0,1-3,0V60.68a2.79,2.79,0,0,0-5.58,0V73.89A7.08,7.08,0,0,0,88.44,81Z"/><path class="cls-11" d="M88.44,20.32a2.79,2.79,0,0,0,2.8-2.79V12.32a2.8,2.8,0,0,0-5.59,0v5.21A2.79,2.79,0,0,0,88.44,20.32Z"/><path class="cls-11" d="M73.93,111.65a2.79,2.79,0,0,0-2.79,2.79v15.19a2.79,2.79,0,0,0,2.79,2.79h29a2.79,2.79,0,0,0,2.79-2.79V114.44a2.79,2.79,0,0,0-5.58,0v12.39H76.72V114.44A2.79,2.79,0,0,0,73.93,111.65Z"/><path class="cls-11" d="M120.52,102a2.79,2.79,0,1,0-2.9,4.77,17.07,17.07,0,0,1,2.29,1.65,25.83,25.83,0,0,0-9.45,20.05v10a2.79,2.79,0,0,0,5.58,0v-10a20.28,20.28,0,0,1,7.51-15.81,17.82,17.82,0,0,1,2.67,9.36v32.34H116v-5.83a2.79,2.79,0,1,0-5.58,0v5.83h-4.71v-8.57A2.79,2.79,0,0,0,103,143h-29a2.79,2.79,0,0,0-2.79,2.79v8.57H66.43V128.49A25.82,25.82,0,0,0,57,108.44a17.07,17.07,0,0,1,2.29-1.65,2.79,2.79,0,0,0-2.9-4.77,23.46,23.46,0,0,0-11.28,20v35.13A2.79,2.79,0,0,0,47.88,160H129a2.79,2.79,0,0,0,2.79-2.79V122a23.46,23.46,0,0,0-11.28-20ZM50.67,122a17.82,17.82,0,0,1,2.67-9.36,20.27,20.27,0,0,1,7.51,15.81v25.89H50.67V122Zm26.05,32.34V148.6h23.45v5.78Z"/><path class="cls-11" d="M166.09,78.16a16.56,16.56,0,0,0-9.53-8.86,2.79,2.79,0,0,0-3.73,2.9l.9,8.76a3.35,3.35,0,0,1-6.66.69L146.18,73a2.79,2.79,0,0,0-4.28-2.07,16.64,16.64,0,0,0-5.53,22.29,17,17,0,0,1,.89,14.74l-3.83,9.56a2.79,2.79,0,1,0,5.18,2.07l3.83-9.56a22.51,22.51,0,0,0-1.22-19.57,11.15,11.15,0,0,1-.36-10.28c.12-.24.24-.47.37-.7l.28,2.75a8.93,8.93,0,0,0,17.77-1.83l-.31-3a11.11,11.11,0,0,1-.8,15.94,23.15,23.15,0,0,0-6.33,8.85l-6,15a22.54,22.54,0,0,0,1.22,19.57,11.15,11.15,0,0,1,.36,10.28c-.11.24-.24.47-.37.7l-.28-2.74a8.94,8.94,0,0,0-9.8-8,2.79,2.79,0,0,0,.57,5.55,3.36,3.36,0,0,1,3.68,3l.89,8.65a2.8,2.8,0,0,0,1.56,2.23,2.86,2.86,0,0,0,1.21.28,2.76,2.76,0,0,0,1.5-.44A16.65,16.65,0,0,0,151.91,134a16.93,16.93,0,0,1-.89-14.74l6-15a17.53,17.53,0,0,1,4.8-6.71,16.77,16.77,0,0,0,4.52-6.38A16.54,16.54,0,0,0,166.09,78.16Z"/><path class="cls-11" d="M39.26,136.36a33.68,33.68,0,0,1-4.66-67,2.79,2.79,0,0,0-.76-5.53,39.26,39.26,0,0,0,5.42,78.15,2.79,2.79,0,1,0,0-5.58Z"/><path class="cls-11" d="M45.92,84.17a2.8,2.8,0,0,0-2.18-3.3,22.26,22.26,0,1,0-4.48,44.06,2.79,2.79,0,0,0,0-5.58,16.68,16.68,0,0,1,0-33.35,17.1,17.1,0,0,1,3.36.34A2.79,2.79,0,0,0,45.92,84.17Z"/><path class="cls-11" d="M144,45.56A2.78,2.78,0,0,0,146.4,47H157a2.78,2.78,0,0,0,2.41-1.4l5.31-9.19a2.78,2.78,0,0,0,0-2.79l-5.31-9.19A2.79,2.79,0,0,0,157,23H146.4A2.79,2.79,0,0,0,144,24.39l-5.31,9.19a2.78,2.78,0,0,0,0,2.79Zm4-17h7.39l3.7,6.4-3.7,6.4H148L144.32,35Z"/><path class="cls-11" d="M12.53,58.27a2.78,2.78,0,0,0,2.41,1.39H25.56A2.79,2.79,0,0,0,28,58.27l5.31-9.19a2.78,2.78,0,0,0,0-2.79L28,37.1a2.78,2.78,0,0,0-2.41-1.4H14.94a2.77,2.77,0,0,0-2.41,1.4L7.22,46.29a2.78,2.78,0,0,0,0,2.79Zm4-17h7.39l3.7,6.4-3.7,6.4H16.55l-3.69-6.4Z"/><path class="cls-11" d="M46.24,71.21A31.09,31.09,0,0,0,59,97.6l15.27,11.1a24.11,24.11,0,0,0,28.41,0l15.27-11.1a31.1,31.1,0,0,0,12.73-26.39A11.47,11.47,0,0,0,129.31,49L127.47,18a10,10,0,0,0-7.21-9.5L92.75.61a15.52,15.52,0,0,0-8.6,0L56.63,8.54A10,10,0,0,0,49.42,18L47.58,49a11.47,11.47,0,0,0-1.34,22.26Zm68.4,21.87-15.28,11.1a18.5,18.5,0,0,1-21.83,0L62.25,93.08a25.47,25.47,0,0,1-10.34-23V70L53.12,49.8a93.12,93.12,0,0,1,70.65,0L125,70s0,.07,0,.1A25.47,25.47,0,0,1,114.64,93.08Zm-55-51.54a50.92,50.92,0,0,1,57.57,0A98.88,98.88,0,0,0,59.66,41.54Zm73.51,18.7a5.88,5.88,0,0,1-2.89,5.07l-.62-10.45A5.88,5.88,0,0,1,133.17,60.24ZM55,18.13a4.4,4.4,0,0,1,3.17-4.22L85.69,6A9.93,9.93,0,0,1,91.2,6l27.52,7.94a4.4,4.4,0,0,1,3.17,4.22.86.86,0,0,0,0,.16L123.12,39a56.45,56.45,0,0,0-69.36,0L55,18.29A.86.86,0,0,0,55,18.13ZM47.22,54.86,46.6,65.31a5.89,5.89,0,0,1,.62-10.45Z"/><circle class="cls-11" cx="151.71" cy="34.98" r="2.79"/><circle class="cls-11" cx="20.25" cy="47.68" r="2.79"/><circle class="cls-11" cx="39.32" cy="92.23" r="2.79"/><circle class="cls-11" cx="28.92" cy="102.68" r="2.79"/><circle class="cls-11" cx="39.32" cy="113.44" r="2.79"/></g></g></svg>