<?xml version="1.0" encoding="utf-8"?>
<!-- Generator: Adobe Illustrator 24.2.1, SVG Export Plug-In . SVG Version: 6.00 Build 0)  -->
<svg version="1.1" id="Layer_1" xmlns="http://www.w3.org/2000/svg" xmlns:xlink="http://www.w3.org/1999/xlink" x="0px" y="0px"
	 viewBox="0 0 167.6 160" style="enable-background:new 0 0 167.6 160;" xml:space="preserve">
<style type="text/css">
	.st0{fill:#555;}
</style>
<g id="Layer_2_1_">
	<g id="Layer_1-2">
		<path class="st0" d="M93.4,88.4c-2.8,2.8-7.2,2.8-10,0c-1.1-1.1-2.9-1.1-4,0s-1.1,2.9,0,4c4.9,5,12.9,5,17.9,0c0,0,0,0,0,0
			c1.1-1.1,1.1-2.9,0-4S94.5,87.2,93.4,88.4L93.4,88.4z"/>
		<path class="st0" d="M71.9,62.3c-1.5,0-2.8,1.2-2.8,2.8l0,0v4.5c0,1.5,1.2,2.8,2.8,2.8s2.8-1.2,2.8-2.8v-4.5
			C74.7,63.5,73.4,62.3,71.9,62.3z"/>
		<path class="st0" d="M105,48.8c-3.1,0-6.1,1.2-8.3,3.5c-1.1,1.1-1.1,2.9,0,4s2.9,1.1,4,0l0,0c2.4-2.4,6.4-2.4,8.8,0
			c1.1,1.1,2.8,1.1,3.9,0.1c0,0,0,0,0.1-0.1c1.1-1.1,1.1-2.8,0.1-3.9c0,0,0,0-0.1-0.1C111.2,50.1,108.2,48.8,105,48.8z"/>
		<path class="st0" d="M80.2,52.3c-4.6-4.6-12.1-4.6-16.7,0c-1.1,1.1-1.1,2.9,0,4c1.1,1.1,2.9,1.1,4,0l0,0c2.4-2.4,6.4-2.4,8.8,0
			c1.1,1.1,2.8,1.1,3.9,0c0,0,0,0,0,0C81.3,55.2,81.4,53.4,80.2,52.3C80.3,52.3,80.2,52.3,80.2,52.3z"/>
		<path class="st0" d="M105,62.3c-1.5,0-2.8,1.2-2.8,2.8l0,0v4.5c0,1.5,1.2,2.8,2.8,2.8s2.8-1.2,2.8-2.8v-4.5
			C107.8,63.5,106.5,62.3,105,62.3z"/>
		<path class="st0" d="M88.4,81.3c3.9,0,7.1-3.2,7.1-7.1V61c0-1.5-1.2-2.8-2.8-2.8s-2.8,1.2-2.8,2.8v13.2c0,0.8-0.7,1.5-1.5,1.5
			s-1.5-0.7-1.5-1.5V61c0-1.5-1.2-2.8-2.8-2.8s-2.8,1.2-2.8,2.8v13.2C81.3,78.1,84.5,81.3,88.4,81.3C88.4,81.3,88.4,81.3,88.4,81.3z
			"/>
		<path class="st0" d="M88.4,20.6c1.5,0,2.8-1.2,2.8-2.8c0,0,0,0,0,0v-5.2c-0.1-1.5-1.4-2.7-3-2.6c-1.4,0.1-2.5,1.2-2.6,2.6v5.2
			C85.7,19.4,86.9,20.6,88.4,20.6z"/>
		<path class="st0" d="M73.9,111.9c-1.5,0-2.8,1.2-2.8,2.8l0,0v15.2c0,1.5,1.2,2.8,2.8,2.8h29c1.5,0,2.8-1.2,2.8-2.8v-15.2
			c0-1.5-1.2-2.8-2.8-2.8s-2.8,1.2-2.8,2.8v12.4H76.7v-12.4C76.7,113.2,75.5,111.9,73.9,111.9L73.9,111.9z"/>
		<path class="st0" d="M120.5,102.3c-1.3-0.8-3-0.4-3.8,0.9s-0.4,3,0.9,3.8l0,0c0.8,0.5,1.6,1,2.3,1.7c-6,4.9-9.5,12.3-9.4,20.1v10
			c0,1.5,1.2,2.8,2.8,2.8s2.8-1.2,2.8-2.8v-10c0-6.1,2.7-11.9,7.5-15.8c1.7,2.8,2.7,6.1,2.7,9.4v32.3H116v-5.8
			c0-1.5-1.2-2.8-2.8-2.8s-2.8,1.2-2.8,2.8v5.8h-4.7v-8.6c0-1.5-1.2-2.7-2.7-2.8H74c-1.5,0-2.8,1.2-2.8,2.8v8.6h-4.8v-25.9
			c0-7.8-3.4-15.1-9.4-20.1c0.7-0.6,1.5-1.2,2.3-1.7c1.3-0.8,1.7-2.5,0.9-3.8s-2.5-1.7-3.8-0.9c-7,4.2-11.3,11.8-11.3,20v35.1
			c0,1.5,1.2,2.8,2.7,2.8c0,0,0,0,0,0H129c1.5,0,2.8-1.2,2.8-2.8v-35.2C131.8,114.1,127.5,106.5,120.5,102.3L120.5,102.3z
			 M50.7,122.3c0-3.3,0.9-6.5,2.7-9.4c4.8,3.9,7.5,9.7,7.5,15.8v25.9H50.7V122.3z M76.7,154.6v-5.7h23.4v5.8L76.7,154.6z"/>
		<path class="st0" d="M166.1,78.5c-1.8-4.1-5.3-7.3-9.5-8.9c-1.4-0.5-3,0.2-3.6,1.7c-0.1,0.4-0.2,0.8-0.2,1.2l0.9,8.8
			c0.1,1.8-1.3,3.4-3.1,3.6c-1.8,0.1-3.3-1.1-3.5-2.9l-0.9-8.7c-0.2-1.5-1.5-2.7-3.1-2.5c-0.4,0-0.9,0.2-1.2,0.4
			c-7.5,4.8-9.9,14.6-5.5,22.3c2.5,4.5,2.9,9.9,0.9,14.7l-3.8,9.6c-0.6,1.4,0,3.1,1.5,3.7s3.1,0,3.7-1.5c0,0,0-0.1,0.1-0.1l3.8-9.6
			c2.6-6.4,2.2-13.6-1.2-19.6c-1.8-3.2-1.9-7-0.4-10.3c0.1-0.2,0.2-0.5,0.4-0.7l0.3,2.8c0.5,4.9,4.9,8.5,9.8,8s8.5-4.9,8-9.8l-0.3-3
			c4.2,4.5,3.9,11.5-0.5,15.7c-0.1,0.1-0.2,0.2-0.3,0.2c-2.8,2.4-5,5.4-6.3,8.8l-6,15c-2.6,6.4-2.2,13.6,1.2,19.6
			c1.8,3.2,1.9,7,0.4,10.3c-0.1,0.2-0.2,0.5-0.4,0.7l-0.3-2.7c-0.5-4.9-4.9-8.5-9.8-8c0,0,0,0,0,0c-1.5,0.2-2.6,1.6-2.4,3.1
			c0.2,1.5,1.5,2.6,3,2.4c1.8-0.2,3.5,1.2,3.7,3l0.9,8.6c0.1,1,0.7,1.8,1.6,2.2c0.4,0.2,0.8,0.3,1.2,0.3c0.5,0,1.1-0.2,1.5-0.4
			c7.5-4.8,9.9-14.6,5.5-22.3c-2.5-4.5-2.9-9.9-0.9-14.7l6-15c1-2.6,2.7-4.9,4.8-6.7c2-1.7,3.5-3.9,4.5-6.4
			C168,87.3,167.9,82.6,166.1,78.5z"/>
		<path class="st0" d="M39.3,136.7c-18.6-0.1-33.6-15.3-33.4-33.9c0.1-16.6,12.3-30.7,28.8-33.1c1.5-0.2,2.6-1.6,2.4-3.1
			c-0.2-1.5-1.6-2.6-3.1-2.4c-21.5,3-36.5,22.8-33.5,44.3c2.7,19.4,19.3,33.9,38.9,33.9c1.5,0,2.8-1.2,2.8-2.8
			C42.1,137.9,40.8,136.7,39.3,136.7L39.3,136.7z"/>
		<path class="st0" d="M45.9,84.5c0.3-1.5-0.7-3-2.2-3.3c-12-2.5-23.8,5.3-26.3,17.3s5.3,23.8,17.3,26.3c1.5,0.3,3,0.5,4.5,0.5
			c1.5,0,2.8-1.2,2.8-2.8s-1.2-2.8-2.8-2.8c-9.2-0.2-16.5-7.9-16.3-17.1c0.2-8.9,7.4-16,16.3-16.3c1.1,0,2.3,0.1,3.4,0.3
			C44.1,86.9,45.6,86,45.9,84.5C45.9,84.5,45.9,84.5,45.9,84.5z"/>
		<path class="st0" d="M144,45.9c0.5,0.9,1.4,1.4,2.4,1.4H157c1,0,1.9-0.5,2.4-1.4l5.3-9.2c0.5-0.9,0.5-1.9,0-2.8l-5.3-9.2
			c-0.5-0.9-1.4-1.4-2.4-1.4h-10.6c-1,0-1.9,0.5-2.4,1.4l-5.3,9.2c-0.5,0.9-0.5,1.9,0,2.8L144,45.9z M148,28.9h7.4l3.7,6.4l-3.7,6.4
			H148l-3.7-6.4L148,28.9z"/>
		<path class="st0" d="M12.5,58.6c0.5,0.9,1.4,1.4,2.4,1.4h10.6c1,0,1.9-0.5,2.4-1.4l5.3-9.2c0.5-0.9,0.5-1.9,0-2.8L28,37.4
			c-0.5-0.9-1.4-1.4-2.4-1.4H14.9c-1,0-1.9,0.5-2.4,1.4l-5.3,9.2c-0.5,0.9-0.5,1.9,0,2.8L12.5,58.6z M16.5,41.6h7.4l3.7,6.4
			l-3.7,6.4h-7.4L12.9,48L16.5,41.6z"/>
		<path class="st0" d="M46.7,71.1C46.3,81.4,51,91.3,59.4,97.5l15.3,11.1c8.5,6.2,19.9,6.2,28.4,0l15.3-11.1
			c8.4-6.1,13.2-16,12.7-26.4c6-1.9,9.4-8.4,7.5-14.4c-1.3-4-4.7-7-8.8-7.8l-1.8-31c0-4.4-3-8.3-7.2-9.5L93.2,0.5
			c-2.8-0.8-5.8-0.8-8.6,0L57.1,8.4c-4.2,1.2-7.1,5.1-7.2,9.5l-1.8,31c-6.2,1.1-10.4,7.1-9.3,13.3C39.5,66.4,42.6,69.9,46.7,71.1
			L46.7,71.1z M114.6,93.4l-15.3,11.1c-6.5,4.8-15.3,4.8-21.8,0L62.3,93.4c-7.3-5.3-11.2-14-10.3-23v-0.1l1.2-20.2
			c22.6-9.3,48-9.3,70.7,0l1.2,20.2c0,0,0,0.1,0,0.1C125.8,79.3,121.9,88.1,114.6,93.4z M59.6,41.8c17.3-11.9,40.2-11.9,57.6,0
			C98.5,36.1,78.4,36.1,59.6,41.8L59.6,41.8z M55,18.4c0-2,1.3-3.7,3.2-4.2l27.5-7.9c1.8-0.5,3.7-0.5,5.5,0l27.5,7.9
			c1.9,0.5,3.2,2.3,3.2,4.2c0,0.1,0,0.1,0,0.2l1.2,20.7c-20.4-15.9-49-15.9-69.4,0L55,18.6C55,18.5,55,18.5,55,18.4z"/>
		<circle class="st0" cx="151.7" cy="35.3" r="2.8"/>
		<circle class="st0" cx="20.3" cy="48" r="2.8"/>
		<circle class="st0" cx="39.3" cy="92.5" r="2.8"/>
		<circle class="st0" cx="28.9" cy="103" r="2.8"/>
		<circle class="st0" cx="39.3" cy="113.7" r="2.8"/>
	</g>
</g>
</svg>
