<svg xmlns="http://www.w3.org/2000/svg" width="149.66" height="150.74" viewBox="0 0 149.66 150.74"><defs><style>.cls-1{fill:#fae0a8;}.cls-2{fill:#f3cf91;}.cls-3{fill:#ebbf7e;}.cls-4{fill:#9a7156;}.cls-5{fill:#eaeef1;}.cls-6{fill:#cbd3db;}.cls-7{fill:#5f5f5f;}.cls-8{fill:#e45b41;}.cls-9{fill:#5282c3;}.cls-10{fill:#242423;}.cls-11{fill:#385e7e;}.cls-12{fill:#2c4e67;}.cls-13{fill:#c4d5ee;}.cls-14{fill:#b8c8e7;}.cls-15{fill:#eab24c;}.cls-16{fill:#e59544;}.cls-17{fill:#df6c57;}.cls-18{fill:#f1cb86;}.cls-19{fill:#ebbe6b;}.cls-20{fill:#3b2828;}.cls-21,.cls-22,.cls-23,.cls-24{fill:none;}.cls-21,.cls-22,.cls-23{stroke:#5c4e46;stroke-linecap:round;stroke-miterlimit:10;stroke-width:3px;}.cls-22{stroke-dasharray:9.58 9.58;}.cls-23{stroke-dasharray:10.1 10.1;}</style></defs><title>Asset 2</title><g id="Layer_2" data-name="Layer 2"><g id="Layer_1-2" data-name="Layer 1"><path class="cls-1" d="M53.92,67.74h57.87v46.34H53.92Z"/><path class="cls-2" d="M107.24,67.74h4.55v46.34h-4.55Z"/><path class="cls-3" d="M107.24,92.56v18.23H58.46V92.56Z"/><path class="cls-3" d="M107.24,71V89.26H58.46V71Z"/><path class="cls-4" d="M64.29,122.32c-1.25,0-2.27-.74-2.27-1.65v-6.59h4.55v6.59C66.57,121.58,65.55,122.32,64.29,122.32Z"/><path class="cls-4" d="M101.41,122.32c-1.25,0-2.27-.74-2.27-1.65v-6.59h4.54v6.59C103.68,121.58,102.67,122.32,101.41,122.32Z"/><path class="cls-5" d="M86.33,81.8h-7c-.69,0-1.24-.74-1.24-1.65s.55-1.65,1.24-1.65h7a1.71,1.71,0,0,1,0,3.3Z"/><path class="cls-6" d="M86.33,78.5H83.85c.68,0,1.24.74,1.24,1.65s-.56,1.65-1.24,1.65h2.48a1.71,1.71,0,0,0,0-3.3Z"/><path class="cls-3" d="M68.11,119.57H66.57v-5.49h6.51V116C73.08,118,70.85,119.57,68.11,119.57Z"/><path class="cls-3" d="M97.6,119.57h1.54v-5.49H92.62V116C92.62,118,94.85,119.57,97.6,119.57Z"/><path class="cls-7" d="M111.79,108.26c-.63,0-1.14.37-1.14.83v4.17H55.05V77.43c0-.45-.51-.82-1.13-.82s-1.14.37-1.14.82v36.65c0,.46.51.83,1.14.83h7v5.76c0,1.37,1.53,2.47,3.41,2.47s3.41-1.1,3.41-2.47v-.27h.41c3.37,0,6.11-2,6.11-4.43v-1.06H91.49V116c0,2.44,2.74,4.43,6.11,4.43H98v.27c0,1.37,1.53,2.47,3.41,2.47s3.41-1.1,3.41-2.47v-5.76h7c.63,0,1.13-.37,1.13-.83v-5C112.92,108.63,112.42,108.26,111.79,108.26ZM65.43,120.67c0,.46-.51.83-1.14.83s-1.13-.37-1.13-.83v-5.76h2.27Zm6.51-4.7c0,1.53-1.72,2.78-3.83,2.78H67.7v-3.84h4.24Zm25.66,2.78c-2.12,0-3.84-1.25-3.84-2.78v-1.06H98v3.84Zm5,1.92c0,.46-.51.83-1.14.83s-1.14-.37-1.14-.83v-5.76h2.28Z"/><path class="cls-7" d="M111.79,66.92H53.92c-.63,0-1.14.37-1.14.82v6.2c0,.46.51.83,1.14.83s1.13-.37,1.13-.83V68.56h55.6v37c0,.46.51.83,1.14.83s1.13-.37,1.13-.83V67.74C112.92,67.29,112.42,66.92,111.79,66.92Z"/><path class="cls-7" d="M57.32,110.79c0,.45.51.82,1.14.82h48.78c.63,0,1.14-.37,1.14-.82V92.56c0-.46-.51-.82-1.14-.82H58.46c-.63,0-1.14.36-1.14.82ZM59.6,93.38h46.51V110H59.6Z"/><path class="cls-7" d="M98.53,71c0-.45-.51-.82-1.13-.82H58.46c-.63,0-1.14.37-1.14.82V89.26c0,.46.51.83,1.14.83h48.78c.63,0,1.14-.37,1.14-.83V71c0-.45-.51-.82-1.14-.82h-5c-.62,0-1.13.37-1.13.82s.51.83,1.13.83h3.87V88.44H59.6V71.86H97.4C98,71.86,98.53,71.49,98.53,71Z"/><path class="cls-7" d="M79.37,77.68a2.57,2.57,0,0,0,0,4.94h7a2.57,2.57,0,0,0,0-4.94ZM87,80.15a.74.74,0,0,1-.63.82h-7c-.34,0-.62-.37-.62-.82s.28-.82.62-.82h7A.74.74,0,0,1,87,80.15Z"/><path class="cls-5" d="M86.33,103.64h-7c-.69,0-1.24-.74-1.24-1.65s.55-1.65,1.24-1.65h7a1.71,1.71,0,0,1,0,3.3Z"/><path class="cls-6" d="M86.33,100.34H83.85c.68,0,1.24.74,1.24,1.65s-.56,1.65-1.24,1.65h2.48a1.71,1.71,0,0,0,0-3.3Z"/><path class="cls-7" d="M79.37,99.52a2.57,2.57,0,0,0,0,4.94h7a2.57,2.57,0,0,0,0-4.94ZM87,102c0,.46-.28.83-.63.83h-7c-.34,0-.62-.37-.62-.83s.28-.82.62-.82h7A.74.74,0,0,1,87,102Z"/><path class="cls-1" d="M53.92,88.69h57.87V135H53.92Z"/><path class="cls-2" d="M107.24,88.69h4.55V135h-4.55Z"/><path class="cls-3" d="M107.24,113.51v18.23H58.46V113.51Z"/><path class="cls-3" d="M107.24,92v18.23H58.46V92Z"/><path class="cls-4" d="M64.29,143.27c-1.25,0-2.27-.74-2.27-1.65V135h4.55v6.58C66.57,142.53,65.55,143.27,64.29,143.27Z"/><path class="cls-4" d="M101.41,143.27c-1.25,0-2.27-.74-2.27-1.65V135h4.54v6.58C103.68,142.53,102.67,143.27,101.41,143.27Z"/><path class="cls-5" d="M86.33,102.75h-7c-.69,0-1.24-.74-1.24-1.65s.55-1.65,1.24-1.65h7a1.71,1.71,0,0,1,0,3.3Z"/><path class="cls-6" d="M86.33,99.45H83.85c.68,0,1.24.74,1.24,1.65s-.56,1.65-1.24,1.65h2.48a1.71,1.71,0,0,0,0-3.3Z"/><path class="cls-3" d="M68.11,140.53H66.57V135h6.51v1.88C73.08,138.91,70.85,140.53,68.11,140.53Z"/><path class="cls-3" d="M97.6,140.53h1.54V135H92.62v1.88C92.62,138.91,94.85,140.53,97.6,140.53Z"/><path class="cls-7" d="M111.79,129.21c-.63,0-1.14.37-1.14.83v4.17H55.05V98.38c0-.45-.51-.82-1.13-.82s-1.14.37-1.14.82V135c0,.45.51.82,1.14.82h7v5.76c0,1.37,1.53,2.48,3.41,2.48s3.41-1.11,3.41-2.48v-.27h.41c3.37,0,6.11-2,6.11-4.43v-1.06H91.49v1.06c0,2.44,2.74,4.43,6.11,4.43H98v.27c0,1.37,1.53,2.48,3.41,2.48s3.41-1.11,3.41-2.48v-5.76h7c.63,0,1.13-.37,1.13-.82v-5C112.92,129.58,112.42,129.21,111.79,129.21ZM65.43,141.62c0,.46-.51.83-1.14.83s-1.13-.37-1.13-.83v-5.76h2.27Zm6.51-4.7c0,1.53-1.72,2.78-3.83,2.78H67.7v-3.84h4.24ZM97.6,139.7c-2.12,0-3.84-1.25-3.84-2.78v-1.06H98v3.84Zm5,1.92c0,.46-.51.83-1.14.83s-1.14-.37-1.14-.83v-5.76h2.28Z"/><path class="cls-7" d="M111.79,87.87H53.92c-.63,0-1.14.37-1.14.82V94.9c0,.45.51.82,1.14.82s1.13-.37,1.13-.82V89.51h55.6v37c0,.46.51.83,1.14.83s1.13-.37,1.13-.83V88.69C112.92,88.24,112.42,87.87,111.79,87.87Z"/><path class="cls-7" d="M57.32,131.74c0,.46.51.82,1.14.82h48.78c.63,0,1.14-.36,1.14-.82V113.51c0-.45-.51-.82-1.14-.82H58.46c-.63,0-1.14.37-1.14.82Zm2.28-17.41h46.51v16.59H59.6Z"/><path class="cls-7" d="M98.53,92c0-.46-.51-.83-1.13-.83H58.46c-.63,0-1.14.37-1.14.83v18.23c0,.45.51.82,1.14.82h48.78c.63,0,1.14-.37,1.14-.82V92c0-.46-.51-.83-1.14-.83h-5c-.62,0-1.13.37-1.13.83s.51.82,1.13.82h3.87v16.58H59.6V92.81H97.4C98,92.81,98.53,92.44,98.53,92Z"/><path class="cls-7" d="M79.37,98.63a2.57,2.57,0,0,0,0,4.94h7a2.57,2.57,0,0,0,0-4.94ZM87,101.1a.74.74,0,0,1-.63.82h-7c-.34,0-.62-.36-.62-.82s.28-.82.62-.82h7A.74.74,0,0,1,87,101.1Z"/><path class="cls-5" d="M86.33,124.59h-7c-.69,0-1.24-.74-1.24-1.65s.55-1.64,1.24-1.64h7a1.71,1.71,0,0,1,0,3.29Z"/><path class="cls-6" d="M86.33,121.3H83.85a1.48,1.48,0,0,1,1.24,1.64c0,.91-.56,1.65-1.24,1.65h2.48a1.71,1.71,0,0,0,0-3.29Z"/><path class="cls-7" d="M79.37,120.47a2.57,2.57,0,0,0,0,4.94h7a2.57,2.57,0,0,0,0-4.94ZM87,122.94c0,.46-.28.83-.63.83h-7c-.34,0-.62-.37-.62-.83s.28-.82.62-.82h7A.74.74,0,0,1,87,122.94Z"/><path class="cls-8" d="M102.91,135.75H93.27a2.74,2.74,0,0,1,2.45-1.52h4.75A2.72,2.72,0,0,1,102.91,135.75Z"/><polygon class="cls-9" points="90.13 42.5 88.14 61.32 85.52 61.32 88.67 42.5 90.13 42.5"/><polygon class="cls-9" points="94.57 42.5 93.89 61.32 90.56 61.32 92.55 42.5 94.57 42.5"/><polygon class="cls-9" points="99.2 42.5 99.89 61.32 96.3 61.32 96.98 42.5 99.2 42.5"/><polygon class="cls-9" points="103.63 42.5 105.63 61.32 102.3 61.32 101.62 42.5 103.63 42.5"/><polygon class="cls-9" points="107.52 42.5 110.66 61.32 108.05 61.32 106.06 42.5 107.52 42.5"/><path class="cls-10" d="M113.28,62.33a1.2,1.2,0,0,1-1.19,1.4h-7.44v7.32a1.21,1.21,0,0,1-2.41,0V63.73H99.3v68.09h1.17a5.15,5.15,0,0,1,5.14,5.14,1.21,1.21,0,0,1-1.21,1.2H91.79a1.21,1.21,0,0,1-1.21-1.2,5.14,5.14,0,0,1,5.14-5.14h1.17V63.73H84.1a1.2,1.2,0,0,1-1.19-1.4L86.46,41.1a1.2,1.2,0,0,1,1.19-1h20.89a1.2,1.2,0,0,1,1.19,1Zm-2.62-1L107.52,42.5h-1.46l2,18.82Zm-5,0-2-18.82h-2l.68,18.82ZM93.27,135.75h9.64a2.72,2.72,0,0,0-2.44-1.52H95.72A2.74,2.74,0,0,0,93.27,135.75Zm6.62-74.43L99.2,42.5H97L96.3,61.32Zm-6,0,.68-18.82h-2l-2,18.82Zm-5.75,0,2-18.82H88.67L85.52,61.32Z"/><path class="cls-11" d="M110.15,140.25H39.85v-3.7A1.47,1.47,0,0,1,41.28,135h67.44a1.47,1.47,0,0,1,1.43,1.51v3.7Z"/><path class="cls-12" d="M108.72,135h-3a1.47,1.47,0,0,1,1.43,1.51v3.7h3v-3.7a1.47,1.47,0,0,0-1.43-1.51Z"/><path class="cls-13" d="M55.34,144.45h-11A1.41,1.41,0,0,1,43,143v-2.76h13.7V143A1.41,1.41,0,0,1,55.34,144.45Z"/><path class="cls-13" d="M80.49,144.45h-11A1.41,1.41,0,0,1,68.15,143v-2.76h13.7V143a1.41,1.41,0,0,1-1.36,1.44Z"/><path class="cls-13" d="M105.63,144.45h-11A1.41,1.41,0,0,1,93.3,143v-2.76H107V143a1.41,1.41,0,0,1-1.36,1.44Z"/><path class="cls-14" d="M53.73,140.25V143a1.41,1.41,0,0,1-1.37,1.44h3A1.41,1.41,0,0,0,56.71,143v-2.76Z"/><path class="cls-14" d="M78.87,140.25V143a1.41,1.41,0,0,1-1.36,1.44h3A1.41,1.41,0,0,0,81.85,143v-2.76Z"/><path class="cls-14" d="M104,140.25V143a1.41,1.41,0,0,1-1.36,1.44h3A1.41,1.41,0,0,0,107,143v-2.76Z"/><path class="cls-15" d="M64.47,135h-21V117.26a.72.72,0,0,1,.7-.74H64.47Z"/><path class="cls-16" d="M62,116.52h2.43V135H62Z"/><path class="cls-17" d="M55.28,122.93H52.61a.66.66,0,0,1-.63-.67v-5.74h3.93v5.74A.65.65,0,0,1,55.28,122.93Z"/><path class="cls-15" d="M64.47,116.52H85.53V135H64.47Z"/><path class="cls-16" d="M83.09,116.52h2.44V135H83.09Z"/><path class="cls-17" d="M76.33,122.93H73.67a.65.65,0,0,1-.63-.67v-5.74H77v5.74A.66.66,0,0,1,76.33,122.93Z"/><path class="cls-15" d="M106.58,135h-21V116.52h20.35a.72.72,0,0,1,.7.74Z"/><path class="cls-16" d="M104.15,116.52V135h2.43V117.26a.72.72,0,0,0-.7-.74Z"/><path class="cls-11" d="M97.39,122.93H94.73a.66.66,0,0,1-.64-.67v-5.74H98v5.74a.65.65,0,0,1-.63.67Z"/><path class="cls-18" d="M75,116.52H50.83v-9.85a.72.72,0,0,1,.7-.74H75Z"/><path class="cls-19" d="M72,105.93h3v10.59H72Z"/><path class="cls-11" d="M64.19,111.23H61.64a.76.76,0,0,1-.73-.78v-4.52h4v4.52A.75.75,0,0,1,64.19,111.23Z"/><path class="cls-18" d="M99.17,116.52H75V105.93H98.47a.72.72,0,0,1,.7.74Z"/><path class="cls-19" d="M96.19,105.93v10.59h3v-9.85a.72.72,0,0,0-.7-.74Z"/><path class="cls-17" d="M88.36,111.23H85.81a.76.76,0,0,1-.73-.78v-4.52h4v4.52A.75.75,0,0,1,88.36,111.23Z"/><path class="cls-15" d="M87.09,105.93H62.92V83.18A1.18,1.18,0,0,1,64.06,82H85.94a1.18,1.18,0,0,1,1.15,1.21Z"/><path class="cls-16" d="M85.94,82h-2.8a1.18,1.18,0,0,1,1.14,1.21v22.75h2.81V83.18A1.18,1.18,0,0,0,85.94,82Z"/><path class="cls-17" d="M76.35,88.5H73.66a1.06,1.06,0,0,1-1-1.09V82h4.76v5.44A1.06,1.06,0,0,1,76.35,88.5Z"/><path class="cls-20" d="M108.72,133.91h-1.07V117.26a1.82,1.82,0,0,0-1.77-1.86h-5.65v-8.73a1.82,1.82,0,0,0-1.76-1.86h-2a1.13,1.13,0,0,0,0,2.25h1.67v8.34h-22v-8.34h8v3.39a1.85,1.85,0,0,0,1.79,1.9h2.55a1.85,1.85,0,0,0,1.79-1.9v-3.39h2a1.13,1.13,0,0,0,0-2.25h-4V83.18a2.28,2.28,0,0,0-2.21-2.34H64.06a2.28,2.28,0,0,0-2.2,2.34v4a1.06,1.06,0,1,0,2.12,0v-4a.09.09,0,0,1,.08-.09h7.5v4.32a2.17,2.17,0,0,0,2.1,2.22h2.69a2.16,2.16,0,0,0,2.09-2.22V83.09h7.5a.09.09,0,0,1,.09.09v21.63H64V91.72a1.06,1.06,0,1,0-2.12,0v13.09H51.53a1.82,1.82,0,0,0-1.76,1.86v8.73H44.12a1.82,1.82,0,0,0-1.76,1.86v16.65H41.28a2.57,2.57,0,0,0-2.49,2.64v3.7a1.09,1.09,0,0,0,1.06,1.12H42V143a2.5,2.5,0,0,0,2.42,2.56h11A2.5,2.5,0,0,0,57.77,143v-1.64h9.32V143a2.5,2.5,0,0,0,2.43,2.56h3.36a1.12,1.12,0,0,0,0-2.24H69.52a.32.32,0,0,1-.31-.32v-1.64H80.79V143a.32.32,0,0,1-.3.32H77.12a1.12,1.12,0,0,0,0,2.24h3.37A2.5,2.5,0,0,0,82.91,143v-1.64h9.33V143a2.49,2.49,0,0,0,2.42,2.56h11a2.49,2.49,0,0,0,2.42-2.56v-1.64h2.1a1.09,1.09,0,0,0,1.06-1.12v-3.7a2.57,2.57,0,0,0-2.49-2.64ZM76.32,87.38H73.69V83.09h2.63Zm29.2,46.53H86.59V117.64H93v4.62a1.75,1.75,0,0,0,1.7,1.79h2.66a1.74,1.74,0,0,0,1.69-1.79v-4.62h6.44v16.27ZM97,117.64v4.17H95.15v-4.17ZM84.47,133.91H65.53V117.64H72v4.62a1.74,1.74,0,0,0,1.69,1.79h2.66a1.75,1.75,0,0,0,1.7-1.79v-4.62h6.44ZM75.9,117.64v4.17H74.1v-4.17ZM88,110.11H86.14v-3H88Zm-26.06-3h1.89v3H62Zm-10.08,0h8v3.39a1.85,1.85,0,0,0,1.79,1.9h2.55a1.85,1.85,0,0,0,1.8-1.9v-3.39h8v8.34h-22ZM53,117.64h1.81v4.17H53Zm-8.56,0h6.44v4.62a1.74,1.74,0,0,0,1.69,1.79h2.67A1.74,1.74,0,0,0,57,122.26v-4.62h6.44v16.27H44.48ZM55.64,143a.31.31,0,0,1-.3.32h-11a.32.32,0,0,1-.3-.32v-1.64H55.64V143Zm50.29,0a.31.31,0,0,1-.3.32h-11a.31.31,0,0,1-.3-.32v-1.64h11.57Zm3.16-3.88H40.91v-2.58a.38.38,0,0,1,.37-.39h67.44a.38.38,0,0,1,.37.39v2.58Z"/><path class="cls-20" d="M80.93,102.16A1.09,1.09,0,0,0,82,101v-.78a1,1,0,0,0,.41.09,1,1,0,0,0,.86-.47A1.17,1.17,0,0,0,83,98.31l-1.47-1.1a1,1,0,0,0-1.23,0l-1.47,1.1a1.17,1.17,0,0,0-.25,1.57,1,1,0,0,0,1.27.38V101a1.1,1.1,0,0,0,1.07,1.12Z"/><path class="cls-20" d="M60.68,128.72l-1.47-1.11a1,1,0,0,0-1.23,0l-1.47,1.11a1.16,1.16,0,0,0-.25,1.56,1,1,0,0,0,.86.47,1,1,0,0,0,.41-.09v.79a1.06,1.06,0,1,0,2.12,0v-.78a1,1,0,0,0,1.28-.39,1.16,1.16,0,0,0-.25-1.56Z"/><path class="cls-20" d="M77.72,128.72a1.17,1.17,0,0,0-.25,1.56,1,1,0,0,0,.87.47,1,1,0,0,0,.41-.09v.79a1.06,1.06,0,1,0,2.12,0v-.78a1,1,0,0,0,1.28-.39,1.17,1.17,0,0,0-.25-1.56l-1.48-1.11a1,1,0,0,0-1.22,0Z"/><path class="cls-20" d="M98.41,130.28a1,1,0,0,0,.86.47,1,1,0,0,0,.41-.09v.79a1.07,1.07,0,1,0,2.13,0v-.78a1,1,0,0,0,1.27-.39,1.16,1.16,0,0,0-.25-1.56l-1.47-1.11a1,1,0,0,0-1.23,0l-1.47,1.11A1.16,1.16,0,0,0,98.41,130.28Z"/><polyline class="cls-21" points="115.1 142.44 115.1 147.44 110.1 147.44"/><line class="cls-22" x1="100.51" y1="147.44" x2="47.81" y2="147.44"/><polyline class="cls-21" points="43.02 147.44 38.02 147.44 38.02 142.44"/><line class="cls-23" x1="38.02" y1="132.34" x2="38.02" y2="16.23"/><polyline class="cls-21" points="38.02 11.19 38.02 6.19 43.02 6.19"/><line class="cls-22" x1="52.6" y1="6.19" x2="105.3" y2="6.19"/><polyline class="cls-21" points="110.1 6.19 115.1 6.19 115.1 11.19"/><line class="cls-23" x1="115.1" y1="21.28" x2="115.1" y2="137.39"/><rect class="cls-24" width="149.66" height="150.74"/></g></g></svg>