<svg xmlns="http://www.w3.org/2000/svg" width="150.06" height="148.13" viewBox="0 0 150.06 148.13"><defs><style>.cls-1{fill:#555;}</style></defs><title>Asset 3</title><g id="Layer_2" data-name="Layer 2"><g id="Layer_1-2" data-name="Layer 1"><path class="cls-1" d="M134,81.08H99a6.15,6.15,0,1,1,0-12.29h20.32a6.21,6.21,0,1,0,0-4.4H99a10.55,10.55,0,0,0,0,21.09H134A11.74,11.74,0,0,1,145.67,97.2a12.6,12.6,0,0,1-6.4,10.93,6.21,6.21,0,0,0-4.4-2.39,7,7,0,0,0-1.21,0,6.22,6.22,0,0,0-5.1,4H100.5a6.21,6.21,0,1,0,0,4.4h28.07a6.2,6.2,0,0,0,12-1.71,17,17,0,0,0,9.51-15.22A16.14,16.14,0,0,0,134,81.08ZM123.76,65.44a1.81,1.81,0,1,1,1.4,3A1.81,1.81,0,0,1,123.76,65.44ZM94.85,113.73a1.81,1.81,0,1,1,1.67-1.8A1.82,1.82,0,0,1,94.85,113.73ZM136.17,112a1.82,1.82,0,0,1-1.77,1.7h0a1.81,1.81,0,1,1,1.77-1.7Z"/><path class="cls-1" d="M68.27,132.72h-9.4a2.2,2.2,0,1,0,0,4.39h9.4a2.2,2.2,0,1,0,0-4.39Z"/><path class="cls-1" d="M125,10.22a12.89,12.89,0,1,0,12.89,12.89A12.91,12.91,0,0,0,125,10.22Zm0,21.38a8.49,8.49,0,1,1,8.5-8.49A8.5,8.5,0,0,1,125,31.6Z"/><path class="cls-1" d="M144.63,10.9a2.2,2.2,0,0,0-3.73,2.32,18.68,18.68,0,0,1-.81,21L125.57,54a.67.67,0,0,1-1.07,0L110,34.25c-9.12-12.39-.16-29.84,15-29.85a18.64,18.64,0,0,1,9.25,2.46A2.2,2.2,0,0,0,136.46,3,23.11,23.11,0,0,0,125,0c-18.74,0-29.88,21.53-18.59,36.86L121,56.59a5.06,5.06,0,0,0,8.15,0l14.52-19.73A23,23,0,0,0,144.63,10.9Z"/><path class="cls-1" d="M81.27,78.72,72.58,63.2h0A4.13,4.13,0,0,0,69,61.1H13.67a4.13,4.13,0,0,0-3.58,2.1L1.4,78.72A6,6,0,0,0,0,82.58v6.68a2.2,2.2,0,0,0,4.4,0V82.58A1.64,1.64,0,0,1,6,80.94H30.36V98.11a2.6,2.6,0,0,0,4.06,2.15,1.75,1.75,0,0,1,1.18-.36,2.1,2.1,0,0,1,1.53.61,6.57,6.57,0,0,0,8.26,0,2.07,2.07,0,0,1,1.53-.61,1.82,1.82,0,0,1,1.28.43,2.6,2.6,0,0,0,4.11-2.12V80.94H76.63a1.64,1.64,0,0,1,1.64,1.64V142.1a1.64,1.64,0,0,1-1.64,1.64H68.89a2.2,2.2,0,0,0,0,4.39h7.74a6,6,0,0,0,6-6V82.58A6,6,0,0,0,81.27,78.72ZM7.66,76.54l6.18-11H30.36v11Zm40.25,19A6.48,6.48,0,0,0,42.79,97a2.14,2.14,0,0,1-1.53.61A2.11,2.11,0,0,1,39.73,97a6.41,6.41,0,0,0-5-1.42V80.94H47.91V95.57Zm0-19H34.76v-11H47.91Zm4.4,0v-11H68.82l6.19,11Z"/><path class="cls-1" d="M58.64,143.74H6A1.64,1.64,0,0,1,4.4,142.1V99.52a2.2,2.2,0,1,0-4.4,0V142.1a6,6,0,0,0,6,6H58.64a2.2,2.2,0,0,0,0-4.39Z"/></g></g></svg>