<svg xmlns="http://www.w3.org/2000/svg" width="149.66" height="150.74" viewBox="0 0 149.66 150.74"><defs><style>.cls-1{fill:#eab24c;}.cls-2{fill:#e59544;}.cls-3{fill:#df6c57;}.cls-4{fill:#3b2828;}.cls-5,.cls-6,.cls-7{fill:none;}.cls-5,.cls-6{stroke:#5c4e46;stroke-linecap:round;stroke-miterlimit:10;stroke-width:3px;}.cls-6{stroke-dasharray:10.37 10.37;}</style></defs><title>Asset 1</title><g id="Layer_2" data-name="Layer 2"><g id="Layer_1-2" data-name="Layer 1"><path class="cls-1" d="M72.42,145H47.94a.84.84,0,0,1-.85-.84V119.68a.85.85,0,0,1,.85-.84H73.27v25.33A.84.84,0,0,1,72.42,145Z"/><path class="cls-2" d="M61.45,142.48a11.82,11.82,0,0,1-11.82-11.82V118.84H47.94a.85.85,0,0,0-.85.84v24.49a.84.84,0,0,0,.85.84H72.42a.84.84,0,0,0,.85-.84v-1.69Z"/><rect class="cls-3" x="58.07" y="118.84" width="4.22" height="8.44"/><path class="cls-1" d="M98.6,145H74.11a.84.84,0,0,1-.84-.84V118.84H98.6a.85.85,0,0,1,.84.84v24.49A.84.84,0,0,1,98.6,145Z"/><path class="cls-2" d="M87.62,142.48A11.82,11.82,0,0,1,75.8,130.66V118.84H73.27v25.33a.84.84,0,0,0,.84.84H98.6a.84.84,0,0,0,.84-.84v-1.69Z"/><rect class="cls-3" x="84.24" y="118.84" width="4.22" height="8.44"/><path class="cls-1" d="M85.51,118.84H61a.85.85,0,0,1-.85-.84V93.51a.84.84,0,0,1,.85-.84H85.51a.84.84,0,0,1,.85.84V118A.85.85,0,0,1,85.51,118.84Z"/><path class="cls-2" d="M74.53,116.31a11.83,11.83,0,0,1-11.82-11.82V92.67H61a.84.84,0,0,0-.85.84V118a.85.85,0,0,0,.85.84H85.51a.85.85,0,0,0,.85-.84v-1.69Z"/><rect class="cls-3" x="71.16" y="92.67" width="4.22" height="8.44"/><path class="cls-4" d="M55.54,139.16H51.32a.79.79,0,1,0,0,1.58h4.22a.79.79,0,1,0,0-1.58Z"/><path class="cls-4" d="M58.07,135.78H51.32a.79.79,0,1,0,0,1.58h6.75a.79.79,0,1,0,0-1.58Z"/><path class="cls-4" d="M98.6,118.05H87.15V93.51a1.64,1.64,0,0,0-1.64-1.63H61a1.63,1.63,0,0,0-1.64,1.63v24.54H47.94a1.64,1.64,0,0,0-1.64,1.63v24.49a1.64,1.64,0,0,0,1.64,1.63H98.6a1.63,1.63,0,0,0,1.63-1.63V119.68A1.63,1.63,0,0,0,98.6,118.05ZM85,119.63h2.65v6.86H85ZM72,93.46h2.64v6.86H72V93.46ZM58.86,119.63H61.5v6.86H58.86Zm39.79,24.54a0,0,0,0,1-.05.05H74.06V119.63h5.12a.79.79,0,1,0,0-1.58H67.36a.79.79,0,1,0,0,1.58h5.12v24.59H47.94a.06.06,0,0,1-.06-.05V119.68a.06.06,0,0,1,.06-.05h9.34v7.65a.79.79,0,0,0,.79.79h4.22a.79.79,0,0,0,.79-.79v-7.65H64a.79.79,0,0,0,0-1.58H61V93.51a.06.06,0,0,1,.06-.05h9.34v7.65a.79.79,0,0,0,.79.79h4.22a.8.8,0,0,0,.79-.79V93.46h9.34a0,0,0,0,1,0,.05v24.54h-3a.79.79,0,1,0,0,1.58h.89v7.65a.79.79,0,0,0,.79.79h4.23a.79.79,0,0,0,.79-.79v-7.65H98.6a0,0,0,0,1,.05.05v24.49Z"/><path class="cls-4" d="M81.71,139.16H77.49a.79.79,0,1,0,0,1.58h4.22a.79.79,0,0,0,0-1.58Z"/><path class="cls-4" d="M84.24,135.78H77.49a.79.79,0,1,0,0,1.58h6.75a.79.79,0,0,0,0-1.58Z"/><path class="cls-4" d="M68.62,113H64.4a.79.79,0,1,0,0,1.58h4.22a.79.79,0,1,0,0-1.58Z"/><path class="cls-4" d="M71.16,109.61H64.4a.79.79,0,1,0,0,1.58h6.76a.79.79,0,0,0,0-1.58Z"/><polyline class="cls-5" points="103.68 142.19 103.68 147.19 98.68 147.19"/><line class="cls-6" x1="88.31" y1="147.19" x2="52.02" y2="147.19"/><polyline class="cls-5" points="46.84 147.19 41.84 147.19 41.84 142.19"/><line class="cls-6" x1="41.84" y1="131.83" x2="41.84" y2="95.54"/><polyline class="cls-5" points="41.84 90.35 41.84 85.35 46.84 85.35"/><line class="cls-6" x1="57.21" y1="85.35" x2="93.49" y2="85.35"/><polyline class="cls-5" points="98.68 85.35 103.68 85.35 103.68 90.35"/><line class="cls-6" x1="103.68" y1="100.72" x2="103.68" y2="137.01"/><rect class="cls-7" width="149.66" height="150.74"/></g></g></svg>