<svg xmlns="http://www.w3.org/2000/svg" width="149.66" height="150.74" viewBox="0 0 149.66 150.74"><defs><style>.cls-1,.cls-2,.cls-3{fill:none;}.cls-1,.cls-2{stroke:#5c4e46;stroke-linecap:round;stroke-miterlimit:10;stroke-width:3px;}.cls-2{stroke-dasharray:10.37 10.37;}.cls-4{fill:#eab24c;}.cls-5{fill:#e59544;}.cls-6{fill:#df6c57;}.cls-7{fill:#4d3a3a;}</style></defs><g id="Layer_2" data-name="Layer 2"><g id="Layer_1-2" data-name="Layer 1"><g id="Layer_2-2" data-name="Layer 2"><g id="Layer_1-2-2" data-name="Layer 1-2"><polyline class="cls-1" points="103.68 142.19 103.68 147.19 98.68 147.19"/><line class="cls-2" x1="88.31" y1="147.19" x2="52.02" y2="147.19"/><polyline class="cls-1" points="46.84 147.19 41.84 147.19 41.84 142.19"/><line class="cls-2" x1="41.84" y1="131.83" x2="41.84" y2="95.54"/><polyline class="cls-1" points="41.84 90.35 41.84 85.35 46.84 85.35"/><line class="cls-2" x1="57.21" y1="85.35" x2="93.49" y2="85.35"/><polyline class="cls-1" points="98.68 85.35 103.68 85.35 103.68 90.35"/><line class="cls-2" x1="103.68" y1="100.72" x2="103.68" y2="137.01"/><rect class="cls-3" width="149.66" height="150.74"/><path class="cls-4" d="M67.31,144H45.78a.74.74,0,0,1-.74-.74V121.76a.74.74,0,0,1,.74-.74H68.05v22.27A.74.74,0,0,1,67.31,144Z"/><path class="cls-5" d="M57.66,141.81a10.4,10.4,0,0,1-10.4-10.4V121H45.78a.74.74,0,0,0-.74.74v21.53a.74.74,0,0,0,.74.74H67.31a.74.74,0,0,0,.74-.74v-1.48Z"/><rect class="cls-6" x="54.69" y="121.02" width="3.71" height="7.42"/><path class="cls-4" d="M90.32,144H68.79a.74.74,0,0,1-.74-.74V121H90.32a.75.75,0,0,1,.75.74v21.53A.75.75,0,0,1,90.32,144Z"/><path class="cls-5" d="M80.67,141.81a10.4,10.4,0,0,1-10.39-10.4V121H68.05v22.27a.74.74,0,0,0,.74.74H90.32a.75.75,0,0,0,.75-.74v-1.48Z"/><rect class="cls-6" x="77.7" y="121.02" width="3.71" height="7.42"/><path class="cls-4" d="M78.82,121H57.29a.75.75,0,0,1-.75-.74V98.75a.76.76,0,0,1,.75-.75H78.82a.75.75,0,0,1,.74.75v21.53A.74.74,0,0,1,78.82,121Z"/><path class="cls-5" d="M69.16,118.79A10.39,10.39,0,0,1,58.77,108.4V98H57.29a.76.76,0,0,0-.75.75v21.53a.75.75,0,0,0,.75.74H78.82a.74.74,0,0,0,.74-.74v-1.49Z"/><rect class="cls-6" x="66.2" y="98" width="3.71" height="7.42"/><path class="cls-7" d="M52.46,138.88H48.75a.7.7,0,0,0-.7.7.69.69,0,0,0,.7.69h3.71a.7.7,0,0,0,.7-.69A.71.71,0,0,0,52.46,138.88Z"/><path class="cls-7" d="M54.69,135.91H48.75a.7.7,0,0,0-.7.7.69.69,0,0,0,.7.69h5.94a.69.69,0,0,0,.69-.69A.7.7,0,0,0,54.69,135.91Z"/><path class="cls-7" d="M90.32,120.32H80.25V98.75a1.43,1.43,0,0,0-1.43-1.44H57.29a1.43,1.43,0,0,0-1.44,1.44v21.57H45.78a1.45,1.45,0,0,0-1.44,1.44v21.53a1.45,1.45,0,0,0,1.44,1.44H90.32a1.44,1.44,0,0,0,1.44-1.44V121.76A1.44,1.44,0,0,0,90.32,120.32ZM78.4,121.71h2.32v6H78.4Zm-11.51-23h2.32v6H66.89v-6Zm-11.51,23h2.33v6H55.38Zm35,21.58a0,0,0,0,1-.05.05H68.75V121.71h4.5a.7.7,0,0,0,0-1.39H62.85a.7.7,0,0,0,0,1.39h4.51v21.63H45.78a0,0,0,0,1-.05-.05V121.76a0,0,0,0,1,.05-.05H54v6.73a.7.7,0,0,0,.7.7H58.4a.69.69,0,0,0,.69-.7v-6.73h.79a.7.7,0,1,0,0-1.39H57.24V98.75a0,0,0,0,1,0,0H65.5v6.73a.69.69,0,0,0,.7.69h3.71a.69.69,0,0,0,.69-.69V98.7h8.22a0,0,0,0,1,0,0v21.57H76.22a.7.7,0,1,0,0,1.39H77v6.73a.69.69,0,0,0,.69.7h3.71a.7.7,0,0,0,.7-.7v-6.73h8.21a0,0,0,0,1,.05.05v21.53Z"/><path class="cls-7" d="M90.32,145.1H45.78A1.81,1.81,0,0,1,44,143.29V121.76A1.81,1.81,0,0,1,45.78,120h9.69V98.74a1.82,1.82,0,0,1,1.82-1.81H78.82a1.82,1.82,0,0,1,1.81,1.81V120h9.69a1.82,1.82,0,0,1,1.82,1.81v21.53A1.82,1.82,0,0,1,90.32,145.1ZM45.78,120.7a1.06,1.06,0,0,0-1.06,1.06v21.53a1.05,1.05,0,0,0,1.06,1.06H90.32a1.06,1.06,0,0,0,1.07-1.06V121.76a1.07,1.07,0,0,0-1.07-1.06H79.88v-22a1.07,1.07,0,0,0-1.06-1.06H57.29a1.07,1.07,0,0,0-1.07,1.06v22Zm44.54,23H68.37V121.34h4.88a.33.33,0,0,0,.32-.32.32.32,0,0,0-.32-.32H62.85a.32.32,0,0,0-.32.32.33.33,0,0,0,.32.32h4.88v22.37H45.4l0-.42v-21.9l.42,0h8.59v7.1a.32.32,0,0,0,.32.32H58.4a.32.32,0,0,0,.32-.32v-7.1h1.16a.32.32,0,0,0,.32-.32.32.32,0,0,0-.32-.32h-3V98.37l.43-.05h8.59v7.11a.32.32,0,0,0,.32.32h3.71a.33.33,0,0,0,.32-.32V98.32h9l0,.42v22h-3a.32.32,0,0,0-.32.32.32.32,0,0,0,.32.32h1.16v7.1a.32.32,0,0,0,.32.32h3.72a.31.31,0,0,0,.31-.32v-7.1h9l0,.42v21.91ZM69.12,143H90V122.09H82.48v6.35a1.07,1.07,0,0,1-1.06,1.07H77.7a1.07,1.07,0,0,1-1.07-1.07v-6.35h-.41a1.07,1.07,0,1,1,0-2.14h2.27V99.07H71v6.36a1.07,1.07,0,0,1-1.07,1.07H66.2a1.07,1.07,0,0,1-1.07-1.07V99.07H57.61V120h2.27a1.07,1.07,0,1,1,0,2.14h-.41v6.35a1.07,1.07,0,0,1-1.07,1.07H54.69a1.07,1.07,0,0,1-1.07-1.07v-6.35H46.11V143H67V122.09H62.85a1.07,1.07,0,1,1,0-2.14h10.4a1.07,1.07,0,1,1,0,2.14H69.12Zm12-14.84H78v-6.78H81.1Zm-2.33-.75h1.58v-5.28H78.77Zm-20.69.75H55v-6.78h3.07Zm-2.32-.75h1.57v-5.28H55.76Zm13.83-22.26H66.51V98.32h3.08Zm-2.33-.75h1.58V99.07H67.26Z"/><path class="cls-7" d="M75.48,138.88H71.76a.7.7,0,0,0-.69.7.69.69,0,0,0,.69.69h3.72a.69.69,0,0,0,.69-.69A.7.7,0,0,0,75.48,138.88Z"/><path class="cls-7" d="M77.7,135.91H71.76a.7.7,0,0,0-.69.7.69.69,0,0,0,.69.69H77.7a.69.69,0,0,0,.7-.69A.7.7,0,0,0,77.7,135.91Z"/><path class="cls-7" d="M64,115.87H60.26a.7.7,0,1,0,0,1.39H64a.7.7,0,0,0,0-1.39Z"/><path class="cls-7" d="M66.2,112.9H60.26a.7.7,0,1,0,0,1.39H66.2a.7.7,0,0,0,0-1.39Z"/></g></g></g></g></svg>