<svg xmlns="http://www.w3.org/2000/svg" width="216.62" height="172.84" viewBox="0 0 216.62 172.84"><defs><style>.cls-1{fill:#ce685e;}.cls-2{fill:#ab4c45;}.cls-3{fill:#f9aa4c;}.cls-4{fill:#c2772b;}.cls-5{fill:#feea96;}.cls-6{fill:#f1f0f2;}.cls-7{fill:#93b8e1;}.cls-8{fill:#5b92cd;}.cls-9{fill:#e0f3fd;}.cls-10{fill:#c8e6f6;}.cls-11{fill:#585c7b;}.cls-12{fill:#262e4c;}.cls-13{fill:#342c2c;}</style></defs><g id="Layer_2" data-name="Layer 2"><g id="Layer_1-2" data-name="Layer 1"><path class="cls-1" d="M3.17,125.42V142a1.7,1.7,0,0,0,1.7,1.69H132.19V123.73H4.87A1.7,1.7,0,0,0,3.17,125.42Z"/><path class="cls-2" d="M112.33,123.73h19.86v19.92H112.33Z"/><path class="cls-3" d="M7.51,9.1V123.73H123.25V9.1a5.94,5.94,0,0,0-5.93-5.93H13.44A5.94,5.94,0,0,0,7.51,9.1Z"/><path class="cls-4" d="M117.32,3.17H106.74a5.93,5.93,0,0,1,5.93,5.93V123.73h10.58V9.1A5.94,5.94,0,0,0,117.32,3.17Z"/><path class="cls-5" d="M82.23,45l-7.39-5.56a.74.74,0,0,0-.89,0L65.83,45.5a.74.74,0,0,1-.89,0l-8.13-6.11a.72.72,0,0,0-.88,0L48.53,45a.74.74,0,0,1-1.18-.59V3.17H83.41V44.36A.74.74,0,0,1,82.23,45Z"/><path class="cls-6" d="M21.3,82.56v22.93a3.3,3.3,0,0,0,3.3,3.3H59.69a3.3,3.3,0,0,0,3.3-3.3V82.56a3.3,3.3,0,0,0-3.3-3.3H24.6A3.3,3.3,0,0,0,21.3,82.56Z"/><path class="cls-7" d="M207.58,143.65H123.25V61.39a5.86,5.86,0,0,1,5.87-5.87h40.53a43.79,43.79,0,0,1,43.8,43.79v38.47A5.87,5.87,0,0,1,207.58,143.65Z"/><path class="cls-8" d="M169.65,55.52h-9.52a43.79,43.79,0,0,1,43.8,43.79v38.47a5.87,5.87,0,0,1-5.87,5.87h9.52a5.87,5.87,0,0,0,5.87-5.87V99.31A43.79,43.79,0,0,0,169.65,55.52Z"/><path class="cls-9" d="M169.65,55.52h-27.3V84.64A7.36,7.36,0,0,0,149.71,92h4.22a7.35,7.35,0,0,1,6.16,3.33l6.08,9.26a7.34,7.34,0,0,0,6.15,3.33h41.13V99.31A43.79,43.79,0,0,0,169.65,55.52Z"/><path class="cls-10" d="M210.79,84.25c-.24-.67-.51-1.33-.78-2a43.73,43.73,0,0,0-2.36-4.75c-.36-.61-.72-1.21-1.1-1.8a43.78,43.78,0,0,0-17-15.4c-.31-.17-.63-.32-1-.48a43.7,43.7,0,0,0-19-4.31h-9.51a43.8,43.8,0,0,1,43.79,43.79v8.61h9.52V99.31A43.73,43.73,0,0,0,210.79,84.25Z"/><path class="cls-11" d="M193.2,145.41a24.26,24.26,0,1,1-24.26-24.26A24.26,24.26,0,0,1,193.2,145.41Z"/><path class="cls-12" d="M181.91,124.91a24.25,24.25,0,0,1-32.85,34.39,24.26,24.26,0,1,0,32.85-34.39Z"/><path class="cls-6" d="M177.48,145.41a8.54,8.54,0,1,1-8.54-8.54A8.54,8.54,0,0,1,177.48,145.41Z"/><path class="cls-11" d="M72.08,145.41a24.26,24.26,0,1,1-24.26-24.26A24.26,24.26,0,0,1,72.08,145.41Z"/><path class="cls-12" d="M60.79,124.91A24.25,24.25,0,0,1,27.94,159.3a24.26,24.26,0,1,0,32.85-34.39Z"/><path class="cls-6" d="M56.36,145.41a8.54,8.54,0,1,1-8.54-8.54A8.54,8.54,0,0,1,56.36,145.41Z"/><path class="cls-13" d="M59.69,112a6.48,6.48,0,0,0,6.47-6.48V82.56a6.47,6.47,0,0,0-6.47-6.47H24.6a6.47,6.47,0,0,0-6.47,6.47v22.93A6.48,6.48,0,0,0,24.6,112Zm-35.22-6.48V82.56a.13.13,0,0,1,.13-.13H59.69a.13.13,0,0,1,.13.13v22.93a.13.13,0,0,1-.13.13H24.6A.13.13,0,0,1,24.47,105.49Z"/><path class="cls-13" d="M32,92.25h6.77a3.18,3.18,0,0,0,0-6.35H32a3.18,3.18,0,0,0,0,6.35Z"/><path class="cls-13" d="M32,102.15H52.3a3.18,3.18,0,0,0,0-6.35H32a3.18,3.18,0,0,0,0,6.35Z"/><path class="cls-13" d="M201.24,64.55A3.17,3.17,0,1,0,197,69.24a40.72,40.72,0,0,1,13.31,30.07v5.44h-38a4.18,4.18,0,0,1-3.5-1.9l-6.07-9.26a10.52,10.52,0,0,0-8.81-4.76h-4.23a4.2,4.2,0,0,1-4.19-4.19V58.69h24.13a40.23,40.23,0,0,1,17.59,4A3.17,3.17,0,1,0,190,57a46.59,46.59,0,0,0-20.34-4.62H129.12a9.24,9.24,0,0,0-2.7.41V9.1a9.11,9.11,0,0,0-9.1-9.1H13.44a9.11,9.11,0,0,0-9.1,9.1V120.59A4.86,4.86,0,0,0,0,125.42V142a4.87,4.87,0,0,0,4.87,4.86h6a3.18,3.18,0,0,0,0-6.35H6.35V126.91H27.58a27.43,27.43,0,1,0,47.64,19.91h57a3.18,3.18,0,0,0,0-6.35h-5.77V61.3a2.7,2.7,0,0,1,2.7-2.61h10v26a10.55,10.55,0,0,0,10.54,10.53h4.22a4.18,4.18,0,0,1,3.51,1.9l6.07,9.26a10.52,10.52,0,0,0,8.81,4.76h38v26.69a2.71,2.71,0,0,1-2.7,2.69H195.93a27.44,27.44,0,1,0,.41,6.35h11.24a9,9,0,0,0,9-9V99.31A47.07,47.07,0,0,0,201.24,64.55ZM68.06,126.91h52v13.56H74.81A27.3,27.3,0,0,0,68.06,126.91Zm-57.37-6.35V9.1a2.75,2.75,0,0,1,2.75-2.75H44.18V18.07a3.18,3.18,0,0,0,6.35,0V6.35h29.7V39.48l-3.49-2.63a3.93,3.93,0,0,0-4.7,0l-6.66,5-6.66-5a3.93,3.93,0,0,0-4.7,0l-3.49,2.63V30.76a3.18,3.18,0,0,0-6.35,0v13.6a3.91,3.91,0,0,0,6.26,3.13L56.37,43,63,48a3.89,3.89,0,0,0,2.34.78A4,4,0,0,0,67.74,48l6.65-5,5.93,4.45a3.91,3.91,0,0,0,6.26-3.12v-38h30.74a2.75,2.75,0,0,1,2.75,2.75V120.56H59.45a27.38,27.38,0,0,0-23.25,0Zm37.13,45.93a21.09,21.09,0,1,1,21.09-21.08A21.11,21.11,0,0,1,47.82,166.49Zm121.12,0a21.09,21.09,0,1,1,21-22.69.66.66,0,0,0,0,.14c0,.48.05,1,.05,1.47A21.11,21.11,0,0,1,168.94,166.49Z"/><path class="cls-13" d="M168.94,133.7a11.71,11.71,0,1,0,11.71,11.71A11.72,11.72,0,0,0,168.94,133.7Zm0,17.07a5.37,5.37,0,1,1,5.37-5.36A5.36,5.36,0,0,1,168.94,150.77Z"/><path class="cls-13" d="M47.82,133.7a11.71,11.71,0,1,0,11.71,11.71A11.73,11.73,0,0,0,47.82,133.7Zm0,17.07a5.37,5.37,0,1,1,5.37-5.36A5.36,5.36,0,0,1,47.82,150.77Z"/></g></g></svg>