<svg xmlns="http://www.w3.org/2000/svg" width="165.43" height="171.33" viewBox="0 0 165.43 171.33"><defs><style>.cls-1{fill:#ef7c52;}.cls-2{fill:#e5563c;}.cls-3{fill:#75767c;}.cls-4{fill:#616369;}.cls-5{fill:#d7d8d9;}.cls-6{fill:#fcdd85;}.cls-7{fill:#fdd044;}.cls-8{fill:#e1a628;}.cls-9{fill:#342c2c;}</style></defs><g id="Layer_2" data-name="Layer 2"><g id="Layer_1-2" data-name="Layer 1"><polygon class="cls-1" points="2.86 56.99 82.9 2.68 162.93 56.99 162.93 168.47 2.86 168.47 2.86 56.99"/><polygon class="cls-2" points="88.61 6.56 82.9 2.68 2.86 56.99 2.86 168.47 14.29 168.47 14.29 56.99 88.61 6.56"/><rect id="SVGCleanerId_0" data-name="SVGCleanerId 0" class="cls-3" x="31.44" y="71.28" width="102.91" height="97.19"/><rect id="SVGCleanerId_0-2" data-name="SVGCleanerId 0" class="cls-3" x="31.44" y="71.28" width="102.91" height="97.19"/><rect class="cls-4" x="31.44" y="71.28" width="11.43" height="97.19"/><rect class="cls-5" x="25.73" y="59.85" width="114.34" height="11.43"/><rect class="cls-6" x="31.44" y="99.87" width="34.3" height="34.3"/><rect class="cls-7" x="31.44" y="99.87" width="8.58" height="34.3"/><rect class="cls-8" x="42.88" y="99.87" width="11.43" height="17.15"/><rect class="cls-6" x="31.44" y="134.17" width="34.3" height="34.3"/><rect class="cls-7" x="31.44" y="134.17" width="8.58" height="34.3"/><rect class="cls-8" x="42.88" y="134.17" width="11.43" height="17.15"/><rect class="cls-6" x="65.75" y="134.17" width="34.3" height="34.3"/><rect class="cls-7" x="65.75" y="134.17" width="8.58" height="34.3"/><rect class="cls-8" x="77.18" y="134.17" width="11.43" height="17.15"/><path class="cls-9" d="M164.35,54.77,84.36.46a2.67,2.67,0,0,0-3,0L1.25,54.77A2.77,2.77,0,0,0,0,57V168.47a3,3,0,0,0,2.86,2.86H162.93a2.69,2.69,0,0,0,2.5-2.86V57A2.61,2.61,0,0,0,164.35,54.77Zm-136.12,14V62.71h109v6.07Zm17.15,34h6.07v11.79H45.38V102.73Zm-2.5,17.15H54.31a2.69,2.69,0,0,0,2.5-2.86V102.73h6.08v28.94H33.94V102.73H40V117A3,3,0,0,0,42.88,119.88ZM45.38,137h6.07v11.79H45.38V137Zm-11.44,0H40v14.29a3,3,0,0,0,2.86,2.86H54.31a2.69,2.69,0,0,0,2.5-2.86V137h6.08V166H33.94V137ZM68.25,166V137h6.07v14.29a3,3,0,0,0,2.86,2.86H88.61a2.69,2.69,0,0,0,2.5-2.86V137h6.08V166ZM79.68,137h6.07v11.79H79.68V137ZM160.07,166H136.85V108.44a2.68,2.68,0,0,0-5.36,0V166H102.55v-31.8a2.38,2.38,0,0,0-2.5-2.5H68.25V99.87a2.38,2.38,0,0,0-2.5-2.5H34V74.14h97.54V97a2.68,2.68,0,0,0,5.36,0V74.14h3.22a2.69,2.69,0,0,0,2.5-2.86V59.85a2.38,2.38,0,0,0-2.5-2.5H25.73a2.69,2.69,0,0,0-2.86,2.5V71.28a3,3,0,0,0,2.86,2.86h2.85V166H5.36V58.41L82.72,5.92l77.35,52.49Z"/><path class="cls-9" d="M68.78,25.73a2.68,2.68,0,0,0,2.68,2.68H94.33a2.68,2.68,0,1,0,0-5.36H71.46A2.68,2.68,0,0,0,68.78,25.73Z"/><path class="cls-9" d="M94.33,34.48H71.46a2.68,2.68,0,1,0,0,5.36H94.33a2.68,2.68,0,1,0,0-5.36Z"/><path class="cls-9" d="M94.33,45.91H71.46a2.68,2.68,0,1,0,0,5.36H94.33a2.68,2.68,0,1,0,0-5.36Z"/><path class="cls-9" d="M42.88,128.45H54.31a2.68,2.68,0,1,0,0-5.36H42.88a2.68,2.68,0,0,0,0,5.36Z"/><path class="cls-9" d="M54.31,157.4H42.88a2.68,2.68,0,1,0,0,5.35H54.31a2.68,2.68,0,1,0,0-5.35Z"/><path class="cls-9" d="M88.61,157.4H77.18a2.68,2.68,0,1,0,0,5.35H88.61a2.68,2.68,0,1,0,0-5.35Z"/></g></g></svg>